<svg xmlns="http://www.w3.org/2000/svg" width="19.334" height="20" viewBox="0 0 19.334 20">
  <g id="building-line" transform="translate(-4 -3)">
    <path id="Path_36386" data-name="Path 36386" d="M28.333,8H23V9.333h5.333v14H23v1.333h6.667V9.333A1.333,1.333,0,0,0,28.333,8Z" transform="translate(-6.333 -1.667)" fill="#3e4664"/>
    <path id="Path_36387" data-name="Path 36387" d="M14.587,3H5.413A1.413,1.413,0,0,0,4,4.413V23H16V4.413A1.413,1.413,0,0,0,14.587,3Zm.08,18.667h-2v-2H7.333v2h-2V4.413a.08.08,0,0,1,.08-.08h9.173a.08.08,0,0,1,.08.08Z" transform="translate(0)" fill="#3e4664"/>
    <rect id="Rectangle_2675" data-name="Rectangle 2675" width="1.333" height="1.333" transform="translate(6.667 6.333)" fill="#3e4664"/>
    <rect id="Rectangle_2676" data-name="Rectangle 2676" width="1.333" height="1.333" transform="translate(9.333 6.333)" fill="#3e4664"/>
    <rect id="Rectangle_2677" data-name="Rectangle 2677" width="1.333" height="1.333" transform="translate(12 6.333)" fill="#3e4664"/>
    <rect id="Rectangle_2678" data-name="Rectangle 2678" width="1.333" height="1.333" transform="translate(6.667 9.667)" fill="#3e4664"/>
    <rect id="Rectangle_2679" data-name="Rectangle 2679" width="1.333" height="1.333" transform="translate(9.333 9.667)" fill="#3e4664"/>
    <rect id="Rectangle_2680" data-name="Rectangle 2680" width="1.333" height="1.333" transform="translate(12 9.667)" fill="#3e4664"/>
    <rect id="Rectangle_2681" data-name="Rectangle 2681" width="1.333" height="1.333" transform="translate(6.667 13)" fill="#3e4664"/>
    <rect id="Rectangle_2682" data-name="Rectangle 2682" width="1.333" height="1.333" transform="translate(9.333 13)" fill="#3e4664"/>
    <rect id="Rectangle_2683" data-name="Rectangle 2683" width="1.333" height="1.333" transform="translate(12 13)" fill="#3e4664"/>
    <rect id="Rectangle_2684" data-name="Rectangle 2684" width="1.333" height="1.333" transform="translate(6.667 16.333)" fill="#3e4664"/>
    <rect id="Rectangle_2685" data-name="Rectangle 2685" width="1.333" height="1.333" transform="translate(9.333 16.333)" fill="#3e4664"/>
    <rect id="Rectangle_2686" data-name="Rectangle 2686" width="1.333" height="1.333" transform="translate(12 16.333)" fill="#3e4664"/>
    <rect id="Rectangle_2687" data-name="Rectangle 2687" width="1.333" height="1.333" transform="translate(16.667 9.667)" fill="#3e4664"/>
    <rect id="Rectangle_2688" data-name="Rectangle 2688" width="1.333" height="1.333" transform="translate(19.333 9.667)" fill="#3e4664"/>
    <rect id="Rectangle_2689" data-name="Rectangle 2689" width="1.333" height="1.333" transform="translate(16.667 13)" fill="#3e4664"/>
    <rect id="Rectangle_2690" data-name="Rectangle 2690" width="1.333" height="1.333" transform="translate(19.333 13)" fill="#3e4664"/>
    <rect id="Rectangle_2691" data-name="Rectangle 2691" width="1.333" height="1.333" transform="translate(16.667 16.333)" fill="#3e4664"/>
    <rect id="Rectangle_2692" data-name="Rectangle 2692" width="1.333" height="1.333" transform="translate(19.333 16.333)" fill="#3e4664"/>
  </g>
</svg>
