<svg xmlns="http://www.w3.org/2000/svg" width="17.067" height="16" viewBox="0 0 17.067 16">
  <g id="calendar-line" transform="translate(-2 -2)">
    <path id="Path_36601" data-name="Path 36601" d="M18.133,6H16.4V7.067H18V18.8H3.067V7.067h1.6V6H2.933A.949.949,0,0,0,2,6.965V18.9a.949.949,0,0,0,.933.965h15.2a.949.949,0,0,0,.933-.965V6.965A.949.949,0,0,0,18.133,6Z" transform="translate(0 -1.867)" fill="#00d95e"/>
    <rect id="Rectangle_2708" data-name="Rectangle 2708" width="1.067" height="1.067" transform="translate(5.2 8.4)" fill="#00d95e"/>
    <rect id="Rectangle_2709" data-name="Rectangle 2709" width="1.067" height="1.067" transform="translate(8.4 8.4)" fill="#00d95e"/>
    <rect id="Rectangle_2710" data-name="Rectangle 2710" width="1.067" height="1.067" transform="translate(11.6 8.4)" fill="#00d95e"/>
    <rect id="Rectangle_2711" data-name="Rectangle 2711" width="1.067" height="1.067" transform="translate(14.8 8.4)" fill="#00d95e"/>
    <rect id="Rectangle_2712" data-name="Rectangle 2712" width="1.067" height="1.067" transform="translate(5.2 11.067)" fill="#00d95e"/>
    <rect id="Rectangle_2713" data-name="Rectangle 2713" width="1.067" height="1.067" transform="translate(8.4 11.067)" fill="#00d95e"/>
    <rect id="Rectangle_2714" data-name="Rectangle 2714" width="1.067" height="1.067" transform="translate(11.6 11.067)" fill="#00d95e"/>
    <rect id="Rectangle_2715" data-name="Rectangle 2715" width="1.067" height="1.067" transform="translate(14.8 11.067)" fill="#00d95e"/>
    <rect id="Rectangle_2716" data-name="Rectangle 2716" width="1.067" height="1.067" transform="translate(5.2 13.733)" fill="#00d95e"/>
    <rect id="Rectangle_2717" data-name="Rectangle 2717" width="1.067" height="1.067" transform="translate(8.4 13.733)" fill="#00d95e"/>
    <rect id="Rectangle_2718" data-name="Rectangle 2718" width="1.067" height="1.067" transform="translate(11.6 13.733)" fill="#00d95e"/>
    <rect id="Rectangle_2719" data-name="Rectangle 2719" width="1.067" height="1.067" transform="translate(14.8 13.733)" fill="#00d95e"/>
    <path id="Path_36602" data-name="Path 36602" d="M9.533,6.267a.533.533,0,0,0,.533-.533v-3.2A.533.533,0,0,0,9,2.533v3.2A.533.533,0,0,0,9.533,6.267Z" transform="translate(-3.267)" fill="#00d95e"/>
    <path id="Path_36603" data-name="Path 36603" d="M25.533,6.267a.533.533,0,0,0,.533-.533v-3.2a.533.533,0,0,0-1.067,0v3.2A.533.533,0,0,0,25.533,6.267Z" transform="translate(-10.733)" fill="#00d95e"/>
    <rect id="Rectangle_2720" data-name="Rectangle 2720" width="5.333" height="1.067" transform="translate(7.867 4.133)" fill="#00d95e"/>
  </g>
</svg>
