<svg xmlns="http://www.w3.org/2000/svg" width="50" height="50" viewBox="0 0 50 50">
  <g id="Group_27543" data-name="Group 27543" transform="translate(-473 -244)">
    <g id="Rectangle_2556" data-name="Rectangle 2556" transform="translate(473 244)" fill="#fff" stroke="#626cb2" stroke-width="1">
      <rect width="50" height="50" rx="12" stroke="none"/>
      <rect x="0.5" y="0.5" width="49" height="49" rx="11.5" fill="none"/>
    </g>
    <g id="car-solid" transform="translate(483 254)">
      <path id="Path_36052" data-name="Path 36052" d="M22.725,12.8a18.633,18.633,0,0,0-6.017-6.15,8.033,8.033,0,0,0-7.5-.583A7.167,7.167,0,0,0,5.192,11.4c-.067.408-.125.833-.175,1.167H4.183A2.158,2.158,0,0,0,2,14.725V21.85a.717.717,0,0,0,.717.717H4.158v-.325A4.808,4.808,0,0,1,10.583,17.7l-.833.833A3.8,3.8,0,0,0,6.133,19.85a2.5,2.5,0,0,0-.525.775,3.75,3.75,0,1,0,7.075,1.942H17.25v-.325A4.808,4.808,0,0,1,23.667,17.7l-.833.833a3.8,3.8,0,0,0-3.617,1.317,2.5,2.5,0,0,0-.525.775,3.75,3.75,0,1,0,7.083,1.942H27.95a.717.717,0,0,0,.717-.717V20.367A7.825,7.825,0,0,0,22.725,12.8Zm-12.392-.233H7a5.627,5.627,0,0,1,.133-.892,5.433,5.433,0,0,1,3.225-4.167h0ZM8.967,24.534A2.083,2.083,0,1,1,11.05,22.45,2.083,2.083,0,0,1,8.967,24.534Zm7.2-7.8h-2.5V15.067h2.5Zm-5-4.167V7.125a6.8,6.8,0,0,1,4.5.958,15.958,15.958,0,0,1,4.667,4.483ZM22.05,24.534a2.083,2.083,0,1,1,2.083-2.083A2.083,2.083,0,0,1,22.05,24.534Z" transform="translate(-0.333 -0.9)" fill="#4d66f0"/>
      <rect id="Rectangle_2560" data-name="Rectangle 2560" width="30" height="30" transform="translate(0 1)" fill="rgba(0,0,0,0)"/>
    </g>
  </g>
</svg>
