<svg xmlns="http://www.w3.org/2000/svg" xmlns:xlink="http://www.w3.org/1999/xlink" width="220" height="48.993" viewBox="0 0 220 48.993">
  <defs>
    <linearGradient id="linear-gradient" x2="1" gradientUnits="objectBoundingBox">
      <stop offset="0" stop-color="#007de8"/>
      <stop offset="1" stop-color="#a1c3db"/>
    </linearGradient>
  </defs>
  <g id="companylogo" transform="translate(-40 -125.503)">
    <g id="_75d8dab8-1c81-4378-8432-33e12b036322" data-name="75d8dab8-1c81-4378-8432-33e12b036322" transform="translate(99.724 123.65)">
      <path id="Path_38135" data-name="Path 38135" d="M.771,8.769V7.389h0q.934.041,2.05.041H5.481q1.319,0,2.781-.041h0v1.38H7.287a2.9,2.9,0,0,0-.873.1h0a1.139,1.139,0,0,0-.447.244h0a.609.609,0,0,0-.183.386h0q-.02.223-.02.447h0V23.709h6.313a.565.565,0,0,0,.507-.3h0a2.42,2.42,0,0,0,.264-.893h0a12.418,12.418,0,0,0,.1-1.421h0V19.182h1.6v6.11H.771v-1.36h.71a3.969,3.969,0,0,0,1.015-.1h0A1.066,1.066,0,0,0,3,23.546H3a.7.7,0,0,0,.183-.406h0a2.856,2.856,0,0,0,.041-.507h0V10.109h0V9.885h0V9.662h0a1.774,1.774,0,0,0-.041-.386h0a.526.526,0,0,0-.223-.264h0a1.4,1.4,0,0,0-.528-.183h0a5.792,5.792,0,0,0-.954-.061H.771Zm15.082-1.34H30.711v4.527H29.149v-.67h0a8.353,8.353,0,0,0-.081-1.34h0a2.024,2.024,0,0,0-.183-.67h0a.408.408,0,0,0-.3-.244h0a2.1,2.1,0,0,0-.447-.041H20.765v6.414h4.79a1.261,1.261,0,0,0,.244-.02h0a.241.241,0,0,0,.162-.162h0a1.888,1.888,0,0,0,.122-.426h0q.041-.3.081-.893h1.116V18.37H26.165a7.464,7.464,0,0,0-.1-.873h0a1.334,1.334,0,0,0-.122-.467h0a.294.294,0,0,0-.2-.162h0a.721.721,0,0,0-.264-.041H20.765v6.922h7.49a.808.808,0,0,0,.507-.142h0a.715.715,0,0,0,.284-.487h0a4.4,4.4,0,0,0,.122-.995h0q.02-.65.02-1.664h1.563v4.831h-15v-1.36h1.583a1.106,1.106,0,0,0,.528-.1h0a.62.62,0,0,0,.264-.264h0a1.042,1.042,0,0,0,.1-.365h0v-.426h0V10.088h0V9.52h0a1.042,1.042,0,0,0-.081-.426h0a.518.518,0,0,0-.264-.244h0a1.414,1.414,0,0,0-.548-.081H15.853ZM32.62,7.389H33.8q.3,0,.609.02H36.6q.365-.02.731-.02h.65l9.236,15.3h.041V9.764h0a1.414,1.414,0,0,0-.081-.548h0a.69.69,0,0,0-.284-.3h0a1.379,1.379,0,0,0-.528-.122h0q-.345-.02-.853-.02h-.731V7.389h0q1.1,0,1.847.02h0q.751.02,1.36.02h1.908q.71-.02,1.583-.041h0v1.38H50.6a4.259,4.259,0,0,0-.832.061h0a.986.986,0,0,0-.447.183h0a.454.454,0,0,0-.162.3h0a3.914,3.914,0,0,0-.02.426h0v.3h0q0,.284-.02.832h0V12.2h0v1.664h0v7.531h0q0,2.05.02,4.039h-2.7L36.9,9.7h-.041V22.876h0a1.655,1.655,0,0,0,.081.589h0a.582.582,0,0,0,.264.325h0a1.8,1.8,0,0,0,.548.1h0a7.383,7.383,0,0,0,.873.041h.751v1.36H37.938q-.365,0-.771-.02H35.177q-.487.02-.934.02H32.538v-1.36h.893a5.1,5.1,0,0,0,.893-.061h0a.883.883,0,0,0,.467-.2h0a.551.551,0,0,0,.162-.345h0q.02-.223.02-.548h0V9.906h0a4.125,4.125,0,0,0-.041-.65h0a.527.527,0,0,0-.223-.325h0a.867.867,0,0,0-.467-.142h0q-.284-.02-.771-.02H32.6v-.3h0a3.306,3.306,0,0,1,.02-.365h0V7.713h0Zm20.075,0H59.86q5.541,0,8.363,2.172h0q2.8,2.152,2.8,6.6h0a11.379,11.379,0,0,1-.65,4.019h0a6.861,6.861,0,0,1-1.989,2.842h0a8.974,8.974,0,0,1-3.43,1.705h0a18.8,18.8,0,0,1-4.933.568H52.695v-1.36h.913a3.112,3.112,0,0,0,.893-.1h0a.878.878,0,0,0,.447-.244h0a.551.551,0,0,0,.183-.386h0q.02-.244.02-.568h0v-.548h0V20.643h0v-2.05h0V16.259h0V9.926h0a1.627,1.627,0,0,0-.1-.65h0a.7.7,0,0,0-.365-.345h0a2.178,2.178,0,0,0-.751-.142h0q-.487-.041-1.238-.041h0Zm4.993,1.522V23.749H60.53a11.9,11.9,0,0,0,3.329-.426h0a6.094,6.094,0,0,0,2.436-1.34h0a5.7,5.7,0,0,0,1.5-2.355h0A10.243,10.243,0,0,0,68.3,16.2h0a9.341,9.341,0,0,0-.507-3.227h0A5.681,5.681,0,0,0,66.315,10.7h0a6.44,6.44,0,0,0-2.436-1.34h0a11.392,11.392,0,0,0-3.329-.447H57.688Zm28.5-1.441v4.77H84.563a2.329,2.329,0,0,1-.02-.284h0a2.007,2.007,0,0,1-.02-.284h0a2.729,2.729,0,0,0-.345-1.3h0a2.72,2.72,0,0,0-.893-.995h0a4.351,4.351,0,0,0-1.36-.629h0a6.5,6.5,0,0,0-1.766-.223h0a5.068,5.068,0,0,0-1.563.223h0a3.692,3.692,0,0,0-1.2.609h0a2.487,2.487,0,0,0-.731.913h0a2.634,2.634,0,0,0-.264,1.157h0a2.4,2.4,0,0,0,.264,1.157h0a2.848,2.848,0,0,0,.71.853h0a4.833,4.833,0,0,0,1.1.67h0q.629.284,1.36.548h0l1.563.507h0q.812.264,1.644.568h0a12.322,12.322,0,0,1,1.583.751h0a5.212,5.212,0,0,1,1.218.995h0a4.047,4.047,0,0,1,.812,1.3h0a4.627,4.627,0,0,1,.284,1.685h0a4.829,4.829,0,0,1-.426,2.03h0a4.818,4.818,0,0,1-1.2,1.644h0a5.326,5.326,0,0,1-1.867,1.1h0a6.8,6.8,0,0,1-2.416.406h0a8.912,8.912,0,0,1-3.227-.528h0a5.016,5.016,0,0,1-2.091-1.441h0v1.624H73.886V19.629h1.664a5.9,5.9,0,0,0,.264,1.827h0a3.578,3.578,0,0,0,.832,1.4h0a3.608,3.608,0,0,0,1.461.893h0a6.386,6.386,0,0,0,2.172.325h0a5.374,5.374,0,0,0,1.664-.244h0a3.681,3.681,0,0,0,1.319-.67h0a2.943,2.943,0,0,0,.853-1.056h0a3.044,3.044,0,0,0,.3-1.38h0a2.383,2.383,0,0,0-.548-1.624h0a4.372,4.372,0,0,0-1.421-1.076h0a12.964,12.964,0,0,0-2.03-.792h0q-1.116-.365-2.294-.812h0a13.292,13.292,0,0,1-1.807-.832h0a5.161,5.161,0,0,1-1.279-1.015h0a3.651,3.651,0,0,1-.792-1.238h0a4.351,4.351,0,0,1-.264-1.563h0a4.429,4.429,0,0,1,.386-1.847h0a4.2,4.2,0,0,1,1.116-1.5h0A5.666,5.666,0,0,1,77.3,7.429h0a7.232,7.232,0,0,1,2.375-.365h0q.69,0,1.319.061h0a8.817,8.817,0,0,1,1.218.244h0a5.993,5.993,0,0,1,1.137.487h0a5.173,5.173,0,0,1,1.116.771h0V7.47h1.725Zm2.72,5.278V7.389h0l.325.02h2.01q.629.02,1.238.02h7.328q.467,0,1.1-.02h2.558q.629-.02,1.1-.02h0v5.359h-1.482V9.885h0a2.212,2.212,0,0,0-.041-.467h0a.418.418,0,0,0-.244-.284h0a2.841,2.841,0,0,0-.67-.122h0q-.467-.041-1.3-.041h-2.8V23.12h0a3.162,3.162,0,0,0,.02.386h0a.363.363,0,0,0,.2.244h0a1.626,1.626,0,0,0,.507.122h0a6.123,6.123,0,0,0,.995.061h.771v1.36h-2.5q-.487,0-1.076-.02h-.913q-.345.02-.771.02H92.987v-1.36h.771a4.924,4.924,0,0,0,1.015-.081h0a1.4,1.4,0,0,0,.507-.2h0a.5.5,0,0,0,.183-.325h0a2.967,2.967,0,0,0,.02-.365h0V8.972h-3a9,9,0,0,0-1.2.061h0a1.94,1.94,0,0,0-.65.142h0a.368.368,0,0,0-.244.223h0a1.27,1.27,0,0,0-.041.345h0v.69h0v.792h0q.02.406.02.792h0v.731H88.907Zm22.9-5.359h3.207l.244.629h0q.244.629.629,1.644h0q.386,1.035.893,2.355h0q.507,1.3,1.015,2.679h0q.528,1.38,1.035,2.7h0l.913,2.375h0q.406,1.035.65,1.705h0q.244.65.264.69h0q.244.67.406,1.015h0a1.484,1.484,0,0,0,.386.528h0a1.273,1.273,0,0,0,.65.183h0q.406.041,1.157.041h0v1.36h-1.543q-.751-.02-1.563-.02h-2.679q-.487.02-1.116.02h0v-.345h0q-.02-.223-.02-.447h0v-.528h0q.65,0,1.056-.02h0a3.961,3.961,0,0,0,.629-.041h0a.822.822,0,0,0,.325-.1h0a.3.3,0,0,0,.081-.223h0a1.3,1.3,0,0,1-.041-.183h0a1.141,1.141,0,0,0-.041-.264h0l-1.482-4.4h-7.247a2.211,2.211,0,0,0-.122.345h0q-.122.325-.284.812h0q-.162.487-.365,1.035h0q-.183.548-.365,1.035h0q-.183.467-.284.792h0l-.1.345h0a1.532,1.532,0,0,0-.142.507h0a.311.311,0,0,0,.284.325h0a7.689,7.689,0,0,0,.954.041h.995v1.319h-1.543q-.771-.02-1.563-.02h-2.436q-.467.02-1.015.02h0v-1.36h0q.69-.02,1.1-.041h0a2.175,2.175,0,0,0,.609-.1h0a.757.757,0,0,0,.345-.3h0a2.867,2.867,0,0,0,.264-.568h0a3.357,3.357,0,0,1,.162-.447h0q.162-.406.426-1.076h0q.244-.67.589-1.543h0q.325-.893.71-1.867h0q.386-.995.771-2.03h0q.406-1.015.771-2.01h0q.386-.995.71-1.867h0l.609-1.543h0q.244-.67.406-1.076h0q.142-.406.162-.447h0Zm1.441,1.319-3.106,8.627h6.211Zm20.7,15.325h0a12.509,12.509,0,0,0,2.517-.223h0a4.894,4.894,0,0,0,1.827-.792h0a3.342,3.342,0,0,0,1.1-1.441h0A6.1,6.1,0,0,0,139.8,19.3h0l1.6.284-.142,3.593h0a8.533,8.533,0,0,1-1.746,1.2h0a11.665,11.665,0,0,1-1.888.751h0a11.011,11.011,0,0,1-1.969.386h0a16.188,16.188,0,0,1-1.969.122h0a10.72,10.72,0,0,1-3.938-.67h0a7.832,7.832,0,0,1-2.862-1.888h0a8.091,8.091,0,0,1-1.725-2.923h0a11.51,11.51,0,0,1-.589-3.776h0a10.419,10.419,0,0,1,.67-3.836h0A8.553,8.553,0,0,1,127.109,9.6h0a8.484,8.484,0,0,1,2.9-1.888h0a10.305,10.305,0,0,1,3.735-.65h0a8.632,8.632,0,0,1,2.964.507h0a7.26,7.26,0,0,1,2.416,1.4h0l.142-1.38h1.746v4.973l-1.624-.02h0a3.966,3.966,0,0,0-.507-1.685h0a3.5,3.5,0,0,0-1.116-1.238h0a4.931,4.931,0,0,0-1.664-.731h0a8.076,8.076,0,0,0-2.152-.264h0a6.606,6.606,0,0,0-2.74.548h0a6,6,0,0,0-2.111,1.543h0a7.038,7.038,0,0,0-1.319,2.416h0a9.787,9.787,0,0,0-.487,3.187h0a10.04,10.04,0,0,0,.487,3.227h0a7.038,7.038,0,0,0,1.319,2.416h0a6,6,0,0,0,2.111,1.543h0A6.826,6.826,0,0,0,133.949,24.033Zm13.681-8.261,6.942-6.191h0q.487-.467.487-.609h0q0-.162-.284-.183h0q-.264-.02-.731-.02h-.71V7.389h0q.467.041,1.076.041h2.4l3.085-.041v1.38H159.3q-.264-.02-.467-.02h0a2.459,2.459,0,0,0-.589.061h0a1.6,1.6,0,0,0-.548.2h0a3.514,3.514,0,0,0-.65.447h0q-.386.3-.995.832h0l-5.887,5.217,7.287,7.632h0a2.8,2.8,0,0,0,.528.487h0a1.327,1.327,0,0,0,.528.223h0a3.349,3.349,0,0,0,.69.061h0q.406.02,1.076.02h0v1.36h-1.705q-.934-.02-1.989-.02h-.974q-.507.02-.974.02h-1.644v-1.36h1.482a4.788,4.788,0,0,0,.528-.02h0q.183-.02.183-.122h0a.439.439,0,0,0-.1-.223h0q-.122-.122-.345-.386h0l-6.171-6.536-.934.771v5.6h0a3.917,3.917,0,0,0,.02.426h0a.42.42,0,0,0,.183.284h0a1.271,1.271,0,0,0,.507.142h0a5.955,5.955,0,0,0,.974.061h.69v1.36h-1.664q-.913-.02-1.969-.02h0q-.954,0-1.928.02h-1.685v-1.36h.67a4.5,4.5,0,0,0,.974-.081h0a1.188,1.188,0,0,0,.487-.2h0a.512.512,0,0,0,.2-.3h0a2.97,2.97,0,0,0,.02-.365h0V9.8h0a2.523,2.523,0,0,0-.041-.487h0a.43.43,0,0,0-.183-.3h0a1.212,1.212,0,0,0-.507-.183h0a5.791,5.791,0,0,0-.954-.061h-.67V7.389h0q.71.041,1.38.041h0q.67.02,1.34.02h.406q.2-.02.406-.02h.995q.386,0,.853-.02h.853q.406-.02.69-.02h.365v1.38h-.731a4.206,4.206,0,0,0-.954.081h0a1.186,1.186,0,0,0-.507.223h0a.43.43,0,0,0-.183.3h0a1.775,1.775,0,0,0-.041.386h0Z"/>
    </g>
    <g id="_76ab98ff-554f-4737-97c6-0811a2aa251e" data-name="76ab98ff-554f-4737-97c6-0811a2aa251e" transform="translate(39.249 125.503)">
      <path id="Path_38136" data-name="Path 38136" d="M33.079,18.06a1.166,1.166,0,1,1-1.166-1.166,1.166,1.166,0,0,1,1.166,1.166Z" fill="url(#linear-gradient)"/>
      <path id="Path_38137" data-name="Path 38137" d="M48.206,47.685C48.144,26.4,41.536,8.825,32.15,2.515a26.89,26.89,0,0,0-4.422.1c-.016,0-.031.014-.045.016C22.323,3.26,16.952,7.9,17.619,14.306A11.374,11.374,0,0,0,30.3,24.152a1.019,1.019,0,0,1,.214,2.027,14.361,14.361,0,0,1-1.476.08,12.88,12.88,0,0,1-12.957-11.74C15.406,8.068,19.1,2.141,27.265.794V.786c0-.147.672-.225,1.192-.274A14.515,14.515,0,0,0,24.66,0C11.32,0,.751,21.073.751,47.973a.923.923,0,0,0,.9,1.021H11.863a1.022,1.022,0,0,0,1.021-1.021c0-3.513,2.219-6.373,4.948-6.373s4.948,2.86,4.948,6.373A1.022,1.022,0,0,0,23.8,48.994h8.245a1.024,1.024,0,0,0,1.021-1.021c0-12.479,2.1-17.407,4.6-21.1,2.98,3.86,4.432,10.785,4.432,21.1a1.024,1.024,0,0,0,1.021,1.021h4.107a1.024,1.024,0,0,0,.98-1.309ZM31.913,21.265a3.207,3.207,0,1,1,3.217-3.207,3.213,3.213,0,0,1-3.217,3.207Z" fill="url(#linear-gradient)"/>
    </g>
    <g id="_724fb1b5-be12-4237-bde6-d19bf2456cf9" data-name="724fb1b5-be12-4237-bde6-d19bf2456cf9" transform="translate(100.155 155.416)">
      <path id="Path_38138" data-name="Path 38138" d="M8.793,4.019,5.019,13.844H4.136L.34,4.019h.808l2.9,7.6.521,1.521.521-1.521,2.913-7.6ZM24.03,13.844,22.786,10.76h-4.7l-1.223,3.084h-.787l3.934-9.825h.872l3.934,9.825ZM18.374,10.08H22.52L20.809,5.795l-.351-1.042h-.021l-.351,1.01ZM37,3.87h0a3.639,3.639,0,0,1,3.711,2.169h0l-.638.521h0A2.9,2.9,0,0,0,38.97,5.029h0a3.548,3.548,0,0,0-1.946-.478h0a3.826,3.826,0,0,0-1.51.276h0a2.195,2.195,0,0,0-.968.723h0a1.73,1.73,0,0,0-.34,1.042h0a1.487,1.487,0,0,0,.287.936h0a2.125,2.125,0,0,0,.957.638h0a11.116,11.116,0,0,0,1.871.468h0a6.341,6.341,0,0,1,2.722.957h0a2.043,2.043,0,0,1,.808,1.723h0a2.261,2.261,0,0,1-.468,1.4h0a2.9,2.9,0,0,1-1.3.936h0a5.125,5.125,0,0,1-1.935.34h0a5.115,5.115,0,0,1-2.605-.617h0a3.176,3.176,0,0,1-1.457-1.733h0l.659-.51h0a2.663,2.663,0,0,0,1.2,1.616h0a4.089,4.089,0,0,0,2.222.564h0a3.785,3.785,0,0,0,2.084-.521h0a1.62,1.62,0,0,0,.819-1.435h0a1.431,1.431,0,0,0-.67-1.244h0a5.894,5.894,0,0,0-2.3-.744h0a10.567,10.567,0,0,1-2.19-.585h0a2.567,2.567,0,0,1-1.148-.851h0a2.15,2.15,0,0,1-.351-1.265h0a2.418,2.418,0,0,1,.436-1.393h0A3.008,3.008,0,0,1,35.11,4.253h0A4.379,4.379,0,0,1,37,3.87Zm17.523,0h0a4.557,4.557,0,0,1,2.4.617h0A4.075,4.075,0,0,1,58.5,6.242h0a6.094,6.094,0,0,1,.553,2.69h0a6.094,6.094,0,0,1-.553,2.69h0a4.075,4.075,0,0,1-1.574,1.754h0a4.557,4.557,0,0,1-2.4.617h0a4.557,4.557,0,0,1-2.4-.617h0a4.075,4.075,0,0,1-1.574-1.754h0a6.2,6.2,0,0,1-.542-2.69h0a6.2,6.2,0,0,1,.542-2.69h0a4.075,4.075,0,0,1,1.574-1.754h0a4.557,4.557,0,0,1,2.4-.617Zm0,.681h0a3.639,3.639,0,0,0-1.988.532h0A3.4,3.4,0,0,0,51.251,6.6h0a5.5,5.5,0,0,0-.457,2.329h0a5.5,5.5,0,0,0,.457,2.329h0a3.4,3.4,0,0,0,1.287,1.521h0a3.639,3.639,0,0,0,1.988.532h0a3.693,3.693,0,0,0,2-.532h0a3.38,3.38,0,0,0,1.3-1.521h0a5.5,5.5,0,0,0,.457-2.329h0A5.5,5.5,0,0,0,57.822,6.6h0a3.38,3.38,0,0,0-1.3-1.521h0a3.693,3.693,0,0,0-2-.532ZM72.867,3.87h0a4.557,4.557,0,0,1,2.4.617h0a4.075,4.075,0,0,1,1.574,1.754h0a6.094,6.094,0,0,1,.553,2.69h0a6.094,6.094,0,0,1-.553,2.69h0a4.075,4.075,0,0,1-1.574,1.754h0a4.557,4.557,0,0,1-2.4.617h0a4.557,4.557,0,0,1-2.4-.617h0a4.075,4.075,0,0,1-1.574-1.754h0a6.094,6.094,0,0,1-.553-2.69h0a6.094,6.094,0,0,1,.553-2.69h0a4.075,4.075,0,0,1,1.574-1.754h0a4.557,4.557,0,0,1,2.4-.617Zm0,.681h0a3.639,3.639,0,0,0-1.988.532h0a3.469,3.469,0,0,0-1.3,1.521h0a5.616,5.616,0,0,0-.447,2.329h0a5.616,5.616,0,0,0,.447,2.329h0a3.469,3.469,0,0,0,1.3,1.521h0a3.639,3.639,0,0,0,1.988.532h0a3.693,3.693,0,0,0,2-.532h0a3.469,3.469,0,0,0,1.3-1.521h0a5.5,5.5,0,0,0,.457-2.329h0A5.5,5.5,0,0,0,76.163,6.6h0a3.469,3.469,0,0,0-1.3-1.521h0a3.693,3.693,0,0,0-2-.532Zm15.184,8.613h5.891v.681H87.307V4.019h.744Zm22.595.681h-.872l-2.818-4.253h-2.945v4.253h-.744V4.019h3.647a3.482,3.482,0,0,1,2.339.744h0a2.542,2.542,0,0,1,.872,2.042h0a2.565,2.565,0,0,1-.627,1.776h0a2.866,2.866,0,0,1-1.712.914h0ZM104.011,4.7V8.889h2.882a2.747,2.747,0,0,0,1.829-.542h0a1.908,1.908,0,0,0,.627-1.542h0a1.973,1.973,0,0,0-.627-1.563h0a2.747,2.747,0,0,0-1.829-.542h-2.882Zm22.9,9.144-1.233-3.084h-4.7l-1.223,3.084h-.787L122.9,4.019h.883l3.934,9.825Zm-5.657-3.764h4.157L123.7,5.795l-.362-1.042h-.011l-.362,1.01Zm20.681-6.061V10.6h0a3.545,3.545,0,0,1-.819,2.488h0a2.954,2.954,0,0,1-2.307.9h0a2.963,2.963,0,0,1-2.095-.691h0a2.443,2.443,0,0,1-.744-1.882h0a4.16,4.16,0,0,1,.053-.7h0l.7-.159h0a5.66,5.66,0,0,0-.043.681h0a1.852,1.852,0,0,0,2.116,2.073h0a2.166,2.166,0,0,0,1.818-.734h0a3.433,3.433,0,0,0,.574-2.148h0V4.019Zm17.119,9.825-1.233-3.084h-4.71L151.9,13.844h-.8l3.934-9.825h.883l3.924,9.825ZM153.4,10.08h4.157l-1.712-4.285-.362-1.042h-.011l-.362,1.01Z"/>
    </g>
  </g>
</svg>
