<svg id="Group_28124" data-name="Group 28124" xmlns="http://www.w3.org/2000/svg" width="31.858" height="20" viewBox="0 0 31.858 20">
  <path id="Path_36733" data-name="Path 36733" d="M40.8,46.029a.213.213,0,0,1-.142-.035.528.528,0,0,1-.389-.637l2.265-8.5a.528.528,0,1,1,1.027.248L41.3,45.6A.491.491,0,0,1,40.8,46.029Z" transform="translate(-27.776 -33.002)" fill="#fff6f6"/>
  <path id="Path_36734" data-name="Path 36734" d="M48.447,54.714A1.9,1.9,0,0,1,46.5,52.873V51.741A1.922,1.922,0,0,1,48.447,49.9a1.9,1.9,0,0,1,1.947,1.841v1.133A1.9,1.9,0,0,1,48.447,54.714Zm0-3.717a.836.836,0,0,0-.885.779v1.133a.892.892,0,0,0,1.77,0V51.776A.836.836,0,0,0,48.447,51Z" transform="translate(-31.81 -41.688)" fill="#fff6f6"/>
  <path id="Path_36735" data-name="Path 36735" d="M34.447,41.214A1.9,1.9,0,0,1,32.5,39.373V38.241A1.922,1.922,0,0,1,34.447,36.4a1.9,1.9,0,0,1,1.947,1.841v1.133A1.9,1.9,0,0,1,34.447,41.214Zm0-3.717a.836.836,0,0,0-.885.779v1.133a.892.892,0,0,0,1.77,0V38.276A.836.836,0,0,0,34.447,37.5Z" transform="translate(-22.765 -32.966)" fill="#fff6f6"/>
  <path id="Path_36736" data-name="Path 36736" d="M42.788,53.16H15.531a.531.531,0,1,1,0-1.062H42.257V37.231a.531.531,0,1,1,1.062,0v15.4A.521.521,0,0,1,42.788,53.16Z" transform="translate(-11.46 -33.16)" fill="#fff6f6"/>
  <path id="Path_36737" data-name="Path 36737" d="M37.788,48.16H10.531a.531.531,0,1,1,0-1.062H37.257V32.231a.531.531,0,1,1,1.062,0v15.4A.521.521,0,0,1,37.788,48.16Z" transform="translate(-8.23 -29.93)" fill="#fff6f6"/>
  <path id="Path_36738" data-name="Path 36738" d="M32.788,43.16H5.531A.544.544,0,0,1,5,42.629v-15.4a.544.544,0,0,1,.531-.531H32.788a.544.544,0,0,1,.531.531v15.4A.521.521,0,0,1,32.788,43.16ZM6.062,42.1H32.257V27.8H6.062Z" transform="translate(-5 -26.7)" fill="#fff6f6"/>
  <g id="Group_28123" data-name="Group 28123" transform="translate(2.832 2.867)">
    <path id="Path_36739" data-name="Path 36739" d="M17.071,40.181A7.113,7.113,0,0,1,19.478,34.8H13.531a.544.544,0,0,0-.531.531v9.735a.544.544,0,0,0,.531.531h5.947A7.246,7.246,0,0,1,17.071,40.181Z" transform="translate(-13 -34.8)" fill="#fff6f6"/>
    <path id="Path_36740" data-name="Path 36740" d="M64.647,34.8H58.7a7.217,7.217,0,0,1,0,10.761h5.947a.544.544,0,0,0,.531-.531V35.3A.514.514,0,0,0,64.647,34.8Z" transform="translate(-42.523 -34.8)" fill="#fff6f6"/>
  </g>
</svg>
