<svg xmlns="http://www.w3.org/2000/svg" width="78.429" height="69" viewBox="0 0 78.429 69">
  <path id="Path_36074" data-name="Path 36074" d="M72.714,13.429H55.507l-2.5-6.411A4.714,4.714,0,0,0,48.624,4H30.8A4.714,4.714,0,0,0,26.4,7.017l-2.475,6.411H6.714A4.714,4.714,0,0,0,2,18.143V65.286A4.714,4.714,0,0,0,6.714,70h66a4.714,4.714,0,0,0,4.714-4.714V18.143A4.714,4.714,0,0,0,72.714,13.429ZM11.829,26.7a1.886,1.886,0,0,1,0-3.771h5.657a1.886,1.886,0,1,1,0,3.771ZM39.714,60.571A21.214,21.214,0,1,1,60.929,39.357,21.214,21.214,0,0,1,39.714,60.571Z" transform="translate(-0.5 -2.5)" fill="none" stroke="#d4d4d5" stroke-width="3"/>
</svg>
