<svg xmlns="http://www.w3.org/2000/svg" width="30" height="20" viewBox="0 0 30 20">
  <g id="noun_loan_70637" transform="translate(-0.171 -27.756)">
    <g id="Group_27785" data-name="Group 27785" transform="translate(0.171 27.756)">
      <g id="Group_27784" data-name="Group 27784" transform="translate(0 0)">
        <path id="Path_36086" data-name="Path 36086" d="M29.808,36.228a2.012,2.012,0,0,0-1.95-.488c-.361.073-5.643,2.157-5.643,2.157a3.273,3.273,0,0,1-.5,2.957,3.3,3.3,0,0,1-2.772.895,26.551,26.551,0,0,1-3.561-.456c-.331-.055-1.249-.218-1.249-.218a3.481,3.481,0,0,1,1.522-.439,22.531,22.531,0,0,1,2.45,0c.543.042,1.323.132,1.65.148a1.707,1.707,0,0,0,1.853-1.716c.019-1.437-.589-1.915-2.474-2.125-1.211-.135-2.513-.243-3.42-.4-1.748-.3-3-.955-3.645-1.036a2.642,2.642,0,0,0-2.668.858C6.116,40.012.171,42.293.171,42.3c.9,3.971,5.849,5.458,5.849,5.458A7.983,7.983,0,0,1,12.454,44.8a43.716,43.716,0,0,1,6.778.479,1.763,1.763,0,0,0,1.153-.388,56.967,56.967,0,0,1,8.587-6.136c.938-.472,1.213-1.035,1.2-1.467A1.44,1.44,0,0,0,29.808,36.228Zm-10.666-.015h3.167a.781.781,0,0,0,0-1.533H19.142a.781.781,0,0,0,0,1.533Zm0-2.307h3.167a.78.78,0,0,0,0-1.533H19.142a.78.78,0,0,0,0,1.533Zm0-2.308h3.167a.78.78,0,0,0,0-1.533H19.142a.78.78,0,0,0,0,1.533Zm-5.557,3.077h3.167a.78.78,0,0,0,0-1.533H13.585a.78.78,0,0,0,0,1.533Zm0-2.308h3.167a.781.781,0,0,0,0-1.533H13.585a.781.781,0,0,0,0,1.533Zm5.557-3.077h3.167a.781.781,0,0,0,0-1.533H19.142a.781.781,0,0,0,0,1.533Z" transform="translate(-0.171 -27.756)" fill="#fff6f6" fill-rule="evenodd"/>
      </g>
    </g>
  </g>
</svg>
