<svg xmlns="http://www.w3.org/2000/svg" width="50" height="50" viewBox="0 0 50 50">
  <g id="Group_27559" data-name="Group 27559" transform="translate(-473 -531)">
    <g id="Rectangle_2556" data-name="Rectangle 2556" transform="translate(473 531)" fill="#fff" stroke="#626cb2" stroke-width="1">
      <rect width="50" height="50" rx="12" stroke="none"/>
      <rect x="0.5" y="0.5" width="49" height="49" rx="11.5" fill="none"/>
    </g>
    <g id="book-solid" transform="translate(483 541)">
      <rect id="Rectangle_2564" data-name="Rectangle 2564" width="15" height="1.292" transform="translate(8.333 4.333)" fill="#4d66f0"/>
      <path id="Path_36059" data-name="Path 36059" d="M25.165,7H9.215a1.575,1.575,0,0,1-1.55-1.667,1.667,1.667,0,0,1,1.55-1.667h15.95a.833.833,0,1,0,0-1.667H9.215A3.333,3.333,0,0,0,6,5.333a3.45,3.45,0,0,0,0,.408.833.833,0,0,0,0,.2V25.333a3.333,3.333,0,0,0,3.217,3.333h15.95A.833.833,0,0,0,26,27.833V7.892A.892.892,0,0,0,25.165,7Z" transform="translate(-0.999 -0.333)" fill="#4d66f0"/>
      <rect id="Rectangle_2565" data-name="Rectangle 2565" width="30" height="30" fill="rgba(0,0,0,0)"/>
    </g>
  </g>
</svg>
