<svg xmlns="http://www.w3.org/2000/svg" width="176" height="56" viewBox="0 0 176 56">
  <g id="Group_28316" data-name="Group 28316" transform="translate(-357 -672)">
    <g id="Rectangle_2774" data-name="Rectangle 2774" transform="translate(357 672)" stroke="#969696" stroke-width="1">
      <rect width="176" height="56" rx="8" stroke="none"/>
      <rect x="0.5" y="0.5" width="175" height="55" rx="7.5" fill="none"/>
    </g>
    <g id="Group_28314" data-name="Group 28314" transform="translate(191 -13)">
      <text id="App_Store" data-name="App Store" transform="translate(220 726)" fill="#fff" font-size="18" font-family="Poppins-SemiBold, Poppins" font-weight="600"><tspan x="0" y="0">App Store</tspan></text>
      <text id="GET_IT_ON" data-name="GET IT ON" transform="translate(220 706)" fill="#fff" font-size="10" font-family="Poppins-Medium, Poppins" font-weight="500"><tspan x="0" y="0">GET IT ON</tspan></text>
    </g>
    <g id="apple" transform="translate(369.514 684)">
      <path id="Path_36760" data-name="Path 36760" d="M22.5,9.4A7.235,7.235,0,0,1,25.96,3.312,7.472,7.472,0,0,0,20.108.138c-2.491-.25-4.862,1.469-6.127,1.469S10.766.176,8.7.216A7.827,7.827,0,0,0,2.08,4.226c-2.821,4.9-.721,12.15,2.03,16.124,1.342,1.94,2.947,4.129,5.051,4.05,2.03-.08,2.794-1.309,5.242-1.309s3.138,1.309,5.285,1.269c2.178-.039,3.563-1.982,4.9-3.93A17.611,17.611,0,0,0,26.8,15.875,7.063,7.063,0,0,1,22.5,9.4h0Z" transform="translate(0.745 7.599)" fill="#fff" fill-rule="evenodd"/>
      <path id="Path_36761" data-name="Path 36761" d="M4.891,5.111A7.048,7.048,0,0,0,6.554,0,7.171,7.171,0,0,0,1.841,2.425a6.691,6.691,0,0,0-1.7,4.949A5.937,5.937,0,0,0,4.891,5.111Z" transform="translate(14.331)" fill="#fff" fill-rule="evenodd"/>
    </g>
  </g>
</svg>
