<svg xmlns="http://www.w3.org/2000/svg" width="158" height="158" viewBox="0 0 158 158">
  <g id="Group_28363" data-name="Group 28363" transform="translate(-717 -77)">
    <rect id="Rectangle_2867" data-name="Rectangle 2867" width="158" height="158" rx="12" transform="translate(717 77)" fill="#dbe3ff"/>
    <text id="Google_Hangouts" data-name="Google
Hangouts" transform="translate(796 193)" fill="#3e4664" font-size="18" font-family="Lato-Regular, Lato"><tspan x="-28.26" y="0">Google</tspan><tspan x="-38.083" y="22">Hangouts</tspan></text>
    <g id="Group_28359" data-name="Group 28359" transform="translate(-361 -615)">
      <g id="Group_28330" data-name="Group 28330" transform="translate(582 2)">
        <path id="Path_36388" data-name="Path 36388" d="M49.975,38.29c0,.274-.008.867-.025,1.326a26.331,26.331,0,0,1-.264,3.23,10.758,10.758,0,0,1-.905,2.706,9.634,9.634,0,0,1-4.242,4.237,10.782,10.782,0,0,1-2.722.906,26.433,26.433,0,0,1-3.205.259c-.459.016-1.053.025-1.326.025l-24.619,0c-.274,0-.867-.008-1.326-.025a26.343,26.343,0,0,1-3.23-.264,10.761,10.761,0,0,1-2.706-.905,9.634,9.634,0,0,1-4.237-4.242,10.778,10.778,0,0,1-.906-2.722A26.448,26.448,0,0,1,0,39.611c-.016-.459-.025-1.053-.025-1.326l0-24.619c0-.274.008-.867.025-1.326A26.342,26.342,0,0,1,.271,9.11,10.758,10.758,0,0,1,1.177,6.4,9.635,9.635,0,0,1,5.418,2.167,10.783,10.783,0,0,1,8.14,1.261,26.428,26.428,0,0,1,11.346,1C11.8.986,12.4.978,12.671.978l24.619,0c.274,0,.867.008,1.326.025a26.345,26.345,0,0,1,3.23.264,10.758,10.758,0,0,1,2.706.905A9.634,9.634,0,0,1,48.79,6.418,10.779,10.779,0,0,1,49.7,9.139a26.464,26.464,0,0,1,.259,3.205c.016.459.025,1.053.025,1.326l0,24.619Z" transform="translate(550.021 727.022)" fill="#109d58"/>
      </g>
      <path id="google-hangouts" d="M26.4,11.524a11.481,11.481,0,0,0-2.933-5.851,11.345,11.345,0,0,0-2.19-1.833,11.46,11.46,0,0,0-4.915-1.768A5.606,5.606,0,0,1,15.715,2H14.183c-.017.039-.052.025-.08.027-.394.035-.787.08-1.176.153A11.412,11.412,0,0,0,5.938,6.372a11.284,11.284,0,0,0-2.483,6.356A11.6,11.6,0,0,0,3.7,16.142a11,11,0,0,0,.843,2.417c.033.066.066.132.1.2A11.566,11.566,0,0,0,14.834,25.14c.135,0,.172.035.171.173-.006,1.179,0,2.359,0,3.538,0,.046,0,.091.006.148.038-.015.062-.024.085-.035a24.285,24.285,0,0,0,6.062-4q.541-.492,1.038-1.029c.142-.153.283-.309.426-.462.22-.235.41-.5.618-.746.24-.286.455-.59.667-.9a14.9,14.9,0,0,0,1.24-2.125c.178-.376.348-.756.5-1.144a.13.13,0,0,0,.015-.022,13.874,13.874,0,0,0,.811-3.293c.049-.393.08-.789.1-1.184a10.99,10.99,0,0,0-.166-2.536ZM14,15.33a3.381,3.381,0,0,1-1.134,2.534c-.038.036-.076.073-.113.109a3.624,3.624,0,0,1-1.261.649,5.13,5.13,0,0,1-.6.115.285.285,0,0,1-.317-.205l0-1.307c.008-.128-.044-.266.059-.379a.359.359,0,0,1,.187-.114,2.4,2.4,0,0,0,.667-.227,1.528,1.528,0,0,0,.726-.988c.016-.068.032-.136.048-.2l-2.756,0a.881.881,0,0,1-.235-.024.558.558,0,0,1-.414-.52q0-2.084,0-4.167a.631.631,0,0,1,.187-.589.522.522,0,0,1,.346-.138h4.052a.562.562,0,0,1,.539.712.524.524,0,0,1,.022.207c0,1.514.009,3.028,0,4.542Zm7.159.007a3.452,3.452,0,0,1-2.1,3.143c-.032.013-.062.031-.092.046l-.052.014-.029.017a6.2,6.2,0,0,1-.795.175.291.291,0,0,1-.364-.293c0-.145,0-.29,0-.435l.008-.779c0-.057,0-.114,0-.171,0-.2.077-.284.325-.34a1.78,1.78,0,0,0,.855-.4,1.706,1.706,0,0,0,.51-1l-2.546,0c-.092,0-.185,0-.277,0A.566.566,0,0,1,16,14.714q0-2.058,0-4.116l0-.04a.586.586,0,0,1,.275-.61.526.526,0,0,1,.287-.078h4.026a.562.562,0,0,1,.539.712.529.529,0,0,1,.022.206q0,2.274,0,4.549Z" transform="translate(1141.577 740)" fill="#f6f6f6"/>
    </g>
  </g>
</svg>
