<svg xmlns="http://www.w3.org/2000/svg" width="30" height="30" viewBox="0 0 30 30">
  <g id="help-line" transform="translate(-2 -2)">
    <path id="Path_36744" data-name="Path 36744" d="M17,2A15,15,0,1,0,32,17,15,15,0,0,0,17,2Zm0,28.125A13.125,13.125,0,1,1,30.125,17,13.125,13.125,0,0,1,17,30.125Z" fill="#fff6f6"/>
    <path id="Path_36745" data-name="Path 36745" d="M17.913,8.92a6.919,6.919,0,0,0-5.362,2.409.937.937,0,0,0-.3.666.863.863,0,0,0,.891.863,1.013,1.013,0,0,0,.666-.272,5.344,5.344,0,0,1,4.059-1.875,3.271,3.271,0,0,1,3.591,3.2v.047c0,2.072-1.65,3.225-4.256,3.422a.75.75,0,0,0-.712.863s0,2.175,0,2.578a.937.937,0,0,0,.938.844h.1a.937.937,0,0,0,.844-.937V18.792c2.813-.394,5.091-1.875,5.091-4.95v-.047C23.434,10.982,21.241,8.92,17.913,8.92Z" transform="translate(-0.641 -0.432)" fill="#fff6f6"/>
    <circle id="Ellipse_291" data-name="Ellipse 291" cx="1.172" cy="1.172" r="1.172" transform="translate(15.622 23.516)" fill="#fff6f6"/>
  </g>
</svg>
