<svg id="Group_27515" data-name="Group 27515" xmlns="http://www.w3.org/2000/svg" width="50" height="50" viewBox="0 0 50 50">
  <g id="Rectangle_2556" data-name="Rectangle 2556" fill="#fff" stroke="#626cb2" stroke-width="1">
    <rect width="50" height="50" rx="12" stroke="none"/>
    <rect x="0.5" y="0.5" width="49" height="49" rx="11.5" fill="none"/>
  </g>
  <g id="home-solid_3_" data-name="home-solid (3)" transform="translate(10 10)">
    <path id="Path_36050" data-name="Path 36050" d="M27.843,16.168a.833.833,0,0,1-.592-.242L15.343,4.01,3.435,15.927A.833.833,0,0,1,2.26,14.752l12.5-12.5a.833.833,0,0,1,1.175,0l12.5,12.5a.833.833,0,0,1-.592,1.417Z" transform="translate(-0.343 -0.335)" fill="#4d66f0"/>
    <path id="Path_36051" data-name="Path 36051" d="M16,7.79,6,17.823V27.965a1.667,1.667,0,0,0,1.667,1.667H13.5V21.3h5v8.333h5.833A1.667,1.667,0,0,0,26,27.965v-10.2Z" transform="translate(-1 -1.298)" fill="#4d66f0"/>
    <rect id="Rectangle_2559" data-name="Rectangle 2559" width="30" height="30" fill="rgba(0,0,0,0)"/>
  </g>
</svg>
