<svg xmlns="http://www.w3.org/2000/svg" width="19.163" height="18.064" viewBox="0 0 19.163 18.064">
  <path id="Path_1" data-name="Path 1" d="M17.139,17.661H22.21c-.426-5.619-2.845-9.11-5.948-11.174L17.675,3.4a.645.645,0,0,0-.587-.9H8.242a.645.645,0,0,0-.587.9L8.43,5.081h6.529l-.581,1.29H13.184a16.064,16.064,0,0,1,.8,3.026,15.8,15.8,0,0,1,.206,1.935l-1.019.716a14.543,14.543,0,0,0-.206-2.49,14.026,14.026,0,0,0-.916-3.187H11.4A18.207,18.207,0,0,0,9.8,8.758a15.426,15.426,0,0,0-.961,2.232L7.959,10.4a14.7,14.7,0,0,1,.948-2.155,19.875,19.875,0,0,1,1.239-1.877H9.017l.052.11C5.649,8.758,3.049,12.758,3.049,19.435a1.065,1.065,0,0,0,1.006,1.129H9.217a1.723,1.723,0,0,1,1.032-2.9,1.723,1.723,0,0,1-.239-.865,1.742,1.742,0,0,1,1.742-1.742h3.871A1.742,1.742,0,0,1,17.365,16.8,1.7,1.7,0,0,1,17.139,17.661Z" transform="translate(-3.047 -2.5)" fill="#fff6f6"/>
</svg>
