<svg xmlns="http://www.w3.org/2000/svg" xmlns:xlink="http://www.w3.org/1999/xlink" width="574.89" height="417.815" viewBox="0 0 574.89 417.815">
  <defs>
    <linearGradient id="linear-gradient" x1="0.5" y1="1" x2="0.5" gradientUnits="objectBoundingBox">
      <stop offset="0" stop-color="gray" stop-opacity="0.251"/>
      <stop offset="0.535" stop-color="gray" stop-opacity="0.122"/>
      <stop offset="1" stop-color="gray" stop-opacity="0.102"/>
    </linearGradient>
  </defs>
  <g id="Group_26023" data-name="Group 26023" transform="translate(-104 -260.005)">
    <path id="Path_36033" data-name="Path 36033" d="M2943.959-3096.813s36.854-101.322,100.864-104.552,97.631,91.63,155.175,91.63,75-91.63,75-91.63" transform="translate(-2685 3496.772)" fill="none" stroke="rgba(67,65,117,0.55)" stroke-width="1" stroke-dasharray="5"/>
    <g id="Group_11" data-name="Group 11" transform="translate(8 44)">
      <ellipse id="Ellipse_108" data-name="Ellipse 108" cx="287.445" cy="34.939" rx="287.445" ry="34.939" transform="translate(96 563.943)" fill="#4d66f0" opacity="0.1"/>
      <path id="Path_35824" data-name="Path 35824" d="M997.486,751.235s14.992-19.077,13.78-38a36.757,36.757,0,0,1,5.785-22.521,61.721,61.721,0,0,1,7.045-8.844" transform="translate(-409.649 -135.228)" fill="none" stroke="#535461" stroke-miterlimit="10" stroke-width="2"/>
      <path id="Path_35825" data-name="Path 35825" d="M1047.568,655.588c-1.057,2.649.675,12.246.675,12.246s7.862-5.769,8.919-8.418a5.164,5.164,0,1,0-9.594-3.828Z" transform="translate(-433.812 -120.883)" fill="#6c63ff"/>
      <path id="Path_35826" data-name="Path 35826" d="M1020.988,675.221c.552,2.8,7.221,9.912,7.221,9.912s3.465-9.115,2.913-11.913a5.165,5.165,0,0,0-10.134,2Z" transform="translate(-421.018 -129.005)" fill="#6c63ff"/>
      <path id="Path_35827" data-name="Path 35827" d="M1001.067,721.971c1.889,2.137,11.238,4.911,11.238,4.911s-1.611-9.617-3.5-11.754a5.165,5.165,0,1,0-7.737,6.843Z" transform="translate(-410.759 -150.539)" fill="#6c63ff"/>
      <path id="Path_35828" data-name="Path 35828" d="M995.706,762.937c1.5,2.426,10.246,6.74,10.246,6.74s.038-9.752-1.463-12.177a5.165,5.165,0,0,0-8.783,5.437Z" transform="translate(-408.408 -170.781)" fill="#6c63ff"/>
      <path id="Path_35829" data-name="Path 35829" d="M1042.735,699.746c-2.637,1.088-12.253-.532-12.253-.532s5.677-7.929,8.314-9.016a5.165,5.165,0,1,1,3.939,9.549Z" transform="translate(-425.678 -139.085)" fill="#6c63ff"/>
      <path id="Path_35830" data-name="Path 35830" d="M1035.966,746.444c-2.842.249-11.533-4.174-11.533-4.174s7.789-5.867,10.631-6.116a5.165,5.165,0,0,1,.9,10.29Z" transform="translate(-422.74 -161.59)" fill="#6c63ff"/>
      <path id="Path_35831" data-name="Path 35831" d="M1021.946,791.318c-2.759.726-12.072-2.165-12.072-2.165s6.685-7.1,9.444-7.824a5.165,5.165,0,0,1,2.628,9.989Z" transform="translate(-415.667 -183.463)" fill="#6c63ff"/>
      <path id="Path_35832" data-name="Path 35832" d="M1047.568,655.588c-1.057,2.649.675,12.246.675,12.246s7.862-5.769,8.919-8.418a5.164,5.164,0,1,0-9.594-3.828Z" transform="translate(-433.812 -120.883)" opacity="0.25"/>
      <path id="Path_35833" data-name="Path 35833" d="M1020.988,675.221c.552,2.8,7.221,9.912,7.221,9.912s3.465-9.115,2.913-11.913a5.165,5.165,0,0,0-10.134,2Z" transform="translate(-421.018 -129.005)" opacity="0.25"/>
      <path id="Path_35834" data-name="Path 35834" d="M1001.067,721.971c1.889,2.137,11.238,4.911,11.238,4.911s-1.611-9.617-3.5-11.754a5.165,5.165,0,1,0-7.737,6.843Z" transform="translate(-410.759 -150.539)" opacity="0.25"/>
      <path id="Path_35835" data-name="Path 35835" d="M995.706,762.937c1.5,2.426,10.246,6.74,10.246,6.74s.038-9.752-1.463-12.177a5.165,5.165,0,0,0-8.783,5.437Z" transform="translate(-408.408 -170.781)" opacity="0.25"/>
      <path id="Path_35836" data-name="Path 35836" d="M1042.735,699.746c-2.637,1.088-12.253-.532-12.253-.532s5.677-7.929,8.314-9.016a5.165,5.165,0,1,1,3.939,9.549Z" transform="translate(-425.678 -139.085)" opacity="0.25"/>
      <path id="Path_35837" data-name="Path 35837" d="M1035.966,746.444c-2.842.249-11.533-4.174-11.533-4.174s7.789-5.867,10.631-6.116a5.165,5.165,0,0,1,.9,10.29Z" transform="translate(-422.74 -161.59)" opacity="0.25"/>
      <path id="Path_35838" data-name="Path 35838" d="M1021.946,791.318c-2.759.726-12.072-2.165-12.072-2.165s6.685-7.1,9.444-7.824a5.165,5.165,0,0,1,2.628,9.989Z" transform="translate(-415.667 -183.463)" opacity="0.25"/>
      <path id="Path_35839" data-name="Path 35839" d="M997.733,765.5s21.436-11.365,28-29.16a36.766,36.766,0,0,1,14.417-18.246,61.779,61.779,0,0,1,10.024-5.231" transform="translate(-409.769 -150.285)" fill="none" stroke="#535461" stroke-miterlimit="10" stroke-width="2"/>
      <path id="Path_35840" data-name="Path 35840" d="M1103.775,689.712c-2.04,1.993-4.345,11.469-4.345,11.469s9.525-2.088,11.565-4.081a5.165,5.165,0,1,0-7.22-7.387Z" transform="translate(-459.172 -138.325)" fill="#6c63ff"/>
      <path id="Path_35841" data-name="Path 35841" d="M1074.224,696.9c-.629,2.782,2.585,11.989,2.585,11.989s6.862-6.93,7.49-9.712a5.165,5.165,0,0,0-10.075-2.277Z" transform="translate(-446.888 -140.574)" fill="#6c63ff"/>
      <path id="Path_35842" data-name="Path 35842" d="M1037.032,731.568c.862,2.719,8.283,9.044,8.283,9.044s2.425-9.445,1.563-12.164a5.165,5.165,0,1,0-9.847,3.121Z" transform="translate(-428.742 -156.105)" fill="#6c63ff"/>
      <path id="Path_35843" data-name="Path 35843" d="M1015.524,766.848c.389,2.826,6.636,10.314,6.636,10.314s3.986-8.9,3.6-11.725a5.165,5.165,0,0,0-10.234,1.411Z" transform="translate(-418.388 -173.659)" fill="#6c63ff"/>
      <path id="Path_35844" data-name="Path 35844" d="M1082.922,730.1c-2.852-.074-10.986-5.452-10.986-5.452s8.4-4.948,11.254-4.874a5.165,5.165,0,0,1-.268,10.326Z" transform="translate(-445.816 -153.642)" fill="#6c63ff"/>
      <path id="Path_35845" data-name="Path 35845" d="M1059.068,770.4c-2.7-.924-8.851-8.489-8.851-8.489s9.5-2.207,12.2-1.283a5.165,5.165,0,1,1-3.345,9.772Z" transform="translate(-435.265 -173.38)" fill="#6c63ff"/>
      <path id="Path_35846" data-name="Path 35846" d="M1027.342,805.6c-2.814-.454-10.157-6.871-10.157-6.871s8.988-3.78,11.8-3.326a5.165,5.165,0,0,1-1.647,10.2Z" transform="translate(-419.219 -190.362)" fill="#6c63ff"/>
      <path id="Path_35847" data-name="Path 35847" d="M434.949,97.48c-28.4-.986-55.456-10.156-81.288-20.188s-51.42-21.147-79.144-26.463c-17.831-3.419-38.223-3.9-52.59,5.657-13.826,9.2-18.293,25.081-20.7,39.816-1.807,11.086-2.869,22.755,2.082,33.133,3.438,7.206,9.542,13.263,13.762,20.164,14.687,24.016,4.306,53.63-11.61,77.08-7.466,11-16.126,21.493-21.887,33.2s-8.427,25.127-3.386,37.071c5,11.839,16.9,20.732,29.8,26.987,26.2,12.7,57.063,16.339,87.164,18.4,66.631,4.558,133.618,2.585,200.426.608,24.724-.732,49.557-1.473,73.879-5.3,13.507-2.123,27.452-5.493,37.257-13.627,12.448-10.327,15.534-27.813,7.193-40.762-13.992-21.72-52.677-27.115-62.456-50.424-5.383-12.83.145-27.122,7.968-39.021,16.782-25.527,44.91-47.921,46.391-77.1,1.018-20.039-12.5-40.109-33.412-49.59-21.915-9.938-52.3-8.688-68.472,7.763C489.283,91.833,460.028,98.351,434.949,97.48Z" transform="translate(-11.324 172.41)" fill="#4d66f0" opacity="0.1"/>
      <ellipse id="Ellipse_109" data-name="Ellipse 109" cx="19.312" cy="20.499" rx="19.312" ry="20.499" transform="translate(355.681 542.212)" fill="#fbd56f"/>
      <ellipse id="Ellipse_110" data-name="Ellipse 110" cx="19.312" cy="20.499" rx="19.312" ry="20.499" transform="translate(355.681 542.212)" opacity="0.1"/>
      <ellipse id="Ellipse_111" data-name="Ellipse 111" cx="19.312" cy="20.043" rx="19.312" ry="20.043" transform="translate(359.014 543.125)" fill="#fbd56f"/>
      <path id="Path_35848" data-name="Path 35848" d="M602.7,747.845l-2.009-1.118a24.328,24.328,0,0,0-.632,6.715,1.392,1.392,0,0,0,1.046,1.2c4.621,1.147,26.647,6.037,41.793-.85a1.389,1.389,0,0,0,.8-1.117,20.807,20.807,0,0,0-.734-5.951C642.407,745.241,602.7,747.845,602.7,747.845Z" transform="translate(-216.556 -166.514)" fill="#fbd56f"/>
      <path id="Path_35849" data-name="Path 35849" d="M602.7,747.845l-2.009-1.118a24.328,24.328,0,0,0-.632,6.715,1.392,1.392,0,0,0,1.046,1.2c4.621,1.147,26.647,6.037,41.793-.85a1.389,1.389,0,0,0,.8-1.117,20.807,20.807,0,0,0-.734-5.951C642.407,745.241,602.7,747.845,602.7,747.845Z" transform="translate(-216.556 -166.514)" opacity="0.1"/>
      <ellipse id="Ellipse_112" data-name="Ellipse 112" cx="21.138" cy="4.765" rx="21.138" ry="4.765" transform="translate(384.139 575.448)" fill="#fbd56f"/>
      <path id="Path_35850" data-name="Path 35850" d="M618.409,734.173l-2.009-1.119a24.339,24.339,0,0,0-.632,6.715,1.393,1.393,0,0,0,1.046,1.2c4.621,1.147,26.647,6.037,41.793-.85a1.39,1.39,0,0,0,.805-1.117,20.825,20.825,0,0,0-.735-5.951C658.112,731.569,618.409,734.173,618.409,734.173Z" transform="translate(-224.185 -159.872)" fill="#fbd56f"/>
      <path id="Path_35851" data-name="Path 35851" d="M618.409,734.173l-2.009-1.119a24.339,24.339,0,0,0-.632,6.715,1.393,1.393,0,0,0,1.046,1.2c4.621,1.147,26.647,6.037,41.793-.85a1.39,1.39,0,0,0,.805-1.117,20.825,20.825,0,0,0-.735-5.951C658.112,731.569,618.409,734.173,618.409,734.173Z" transform="translate(-224.185 -159.872)" opacity="0.1"/>
      <ellipse id="Ellipse_113" data-name="Ellipse 113" cx="21.138" cy="4.765" rx="21.138" ry="4.765" transform="translate(392.215 568.418)" fill="#fbd56f"/>
      <path id="Path_35852" data-name="Path 35852" d="M632.294,716.2l-2.008-1.119a24.328,24.328,0,0,0-.632,6.715A1.392,1.392,0,0,0,630.7,723c4.621,1.148,26.647,6.037,41.793-.849a1.39,1.39,0,0,0,.8-1.117,20.815,20.815,0,0,0-.734-5.951C672,713.6,632.294,716.2,632.294,716.2Z" transform="translate(-230.93 -151.143)" fill="#fbd56f"/>
      <path id="Path_35853" data-name="Path 35853" d="M632.294,716.2l-2.008-1.119a24.328,24.328,0,0,0-.632,6.715A1.392,1.392,0,0,0,630.7,723c4.621,1.148,26.647,6.037,41.793-.849a1.39,1.39,0,0,0,.8-1.117,20.815,20.815,0,0,0-.734-5.951C672,713.6,632.294,716.2,632.294,716.2Z" transform="translate(-230.93 -151.143)" opacity="0.1"/>
      <ellipse id="Ellipse_114" data-name="Ellipse 114" cx="21.138" cy="4.765" rx="21.138" ry="4.765" transform="translate(399.355 559.178)" fill="#fbd56f"/>
      <path id="Path_35854" data-name="Path 35854" d="M616.918,697.5l-2.009-1.118a24.328,24.328,0,0,0-.633,6.715,1.392,1.392,0,0,0,1.046,1.2c4.622,1.147,26.647,6.037,41.793-.85a1.392,1.392,0,0,0,.805-1.117,20.811,20.811,0,0,0-.735-5.951C656.621,694.895,616.918,697.5,616.918,697.5Z" transform="translate(-223.461 -142.056)" fill="#fbd56f"/>
      <path id="Path_35855" data-name="Path 35855" d="M616.918,697.5l-2.009-1.118a24.328,24.328,0,0,0-.633,6.715,1.392,1.392,0,0,0,1.046,1.2c4.622,1.147,26.647,6.037,41.793-.85a1.392,1.392,0,0,0,.805-1.117,20.811,20.811,0,0,0-.735-5.951C656.621,694.895,616.918,697.5,616.918,697.5Z" transform="translate(-223.461 -142.056)" opacity="0.1"/>
      <ellipse id="Ellipse_115" data-name="Ellipse 115" cx="21.138" cy="4.765" rx="21.138" ry="4.765" transform="translate(391.448 549.559)" fill="#fbd56f"/>
      <path id="Path_35856" data-name="Path 35856" d="M651.509,682.488l-2.009-1.119a24.347,24.347,0,0,0-.632,6.715,1.393,1.393,0,0,0,1.046,1.2c4.621,1.147,26.647,6.037,41.792-.85a1.39,1.39,0,0,0,.805-1.117,20.8,20.8,0,0,0-.735-5.951C691.212,679.883,651.509,682.488,651.509,682.488Z" transform="translate(-240.265 -134.764)" fill="#fbd56f"/>
      <path id="Path_35857" data-name="Path 35857" d="M651.509,682.488l-2.009-1.119a24.347,24.347,0,0,0-.632,6.715,1.393,1.393,0,0,0,1.046,1.2c4.621,1.147,26.647,6.037,41.792-.85a1.39,1.39,0,0,0,.805-1.117,20.8,20.8,0,0,0-.735-5.951C691.212,679.883,651.509,682.488,651.509,682.488Z" transform="translate(-240.265 -134.764)" opacity="0.1"/>
      <ellipse id="Ellipse_116" data-name="Ellipse 116" cx="21.138" cy="4.765" rx="21.138" ry="4.765" transform="translate(409.235 541.841)" fill="#fbd56f"/>
      <path id="Path_35858" data-name="Path 35858" d="M628.137,672.4l-2.009-1.119a24.328,24.328,0,0,0-.632,6.715,1.393,1.393,0,0,0,1.046,1.2c4.622,1.148,26.647,6.037,41.793-.85a1.389,1.389,0,0,0,.805-1.117,20.806,20.806,0,0,0-.735-5.951C667.84,669.794,628.137,672.4,628.137,672.4Z" transform="translate(-228.911 -129.863)" fill="#fbd56f"/>
      <path id="Path_35859" data-name="Path 35859" d="M628.137,672.4l-2.009-1.119a24.328,24.328,0,0,0-.632,6.715,1.393,1.393,0,0,0,1.046,1.2c4.622,1.148,26.647,6.037,41.793-.85a1.389,1.389,0,0,0,.805-1.117,20.806,20.806,0,0,0-.735-5.951C667.84,669.794,628.137,672.4,628.137,672.4Z" transform="translate(-228.911 -129.863)" opacity="0.1"/>
      <ellipse id="Ellipse_117" data-name="Ellipse 117" cx="21.138" cy="4.765" rx="21.138" ry="4.765" transform="translate(397.217 536.653)" fill="#fbd56f"/>
      <path id="Path_35860" data-name="Path 35860" d="M643.74,652.92l-2.008-1.119a24.323,24.323,0,0,0-.632,6.715,1.391,1.391,0,0,0,1.046,1.2c4.621,1.148,26.647,6.037,41.793-.85a1.39,1.39,0,0,0,.8-1.117,20.808,20.808,0,0,0-.734-5.951C683.443,650.316,643.74,652.92,643.74,652.92Z" transform="translate(-236.491 -120.401)" fill="#fbd56f"/>
      <path id="Path_35861" data-name="Path 35861" d="M643.74,652.92l-2.008-1.119a24.323,24.323,0,0,0-.632,6.715,1.391,1.391,0,0,0,1.046,1.2c4.621,1.148,26.647,6.037,41.793-.85a1.39,1.39,0,0,0,.8-1.117,20.808,20.808,0,0,0-.734-5.951C683.443,650.316,643.74,652.92,643.74,652.92Z" transform="translate(-236.491 -120.401)" opacity="0.1"/>
      <ellipse id="Ellipse_118" data-name="Ellipse 118" cx="21.138" cy="4.765" rx="21.138" ry="4.765" transform="translate(405.241 526.637)" fill="#fbd56f"/>
      <path id="Path_35862" data-name="Path 35862" d="M651.438,629.8l-2.009-1.119a24.331,24.331,0,0,0-.632,6.715,1.393,1.393,0,0,0,1.046,1.2c4.621,1.147,26.647,6.037,41.793-.85a1.39,1.39,0,0,0,.8-1.117,20.816,20.816,0,0,0-.734-5.951C691.141,627.2,651.438,629.8,651.438,629.8Z" transform="translate(-240.23 -109.169)" fill="#fbd56f"/>
      <path id="Path_35863" data-name="Path 35863" d="M651.438,629.8l-2.009-1.119a24.331,24.331,0,0,0-.632,6.715,1.393,1.393,0,0,0,1.046,1.2c4.621,1.147,26.647,6.037,41.793-.85a1.39,1.39,0,0,0,.8-1.117,20.816,20.816,0,0,0-.734-5.951C691.141,627.2,651.438,629.8,651.438,629.8Z" transform="translate(-240.23 -109.169)" opacity="0.1"/>
      <ellipse id="Ellipse_119" data-name="Ellipse 119" cx="21.138" cy="4.765" rx="21.138" ry="4.765" transform="translate(409.199 514.748)" fill="#fbd56f"/>
      <path id="Path_35864" data-name="Path 35864" d="M720.833,753.207l-2.009-1.118a24.339,24.339,0,0,0-.633,6.716,1.391,1.391,0,0,0,1.046,1.2c4.621,1.148,26.647,6.037,41.793-.849a1.39,1.39,0,0,0,.8-1.117,20.788,20.788,0,0,0-.734-5.951C760.536,750.6,720.833,753.207,720.833,753.207Z" transform="translate(-273.941 -169.119)" fill="#fbd56f"/>
      <path id="Path_35865" data-name="Path 35865" d="M720.833,753.207l-2.009-1.118a24.339,24.339,0,0,0-.633,6.716,1.391,1.391,0,0,0,1.046,1.2c4.621,1.148,26.647,6.037,41.793-.849a1.39,1.39,0,0,0,.8-1.117,20.788,20.788,0,0,0-.734-5.951C760.536,750.6,720.833,753.207,720.833,753.207Z" transform="translate(-273.941 -169.119)" opacity="0.1"/>
      <ellipse id="Ellipse_120" data-name="Ellipse 120" cx="21.138" cy="4.765" rx="21.138" ry="4.765" transform="translate(444.883 578.205)" fill="#fbd56f"/>
      <path id="Path_35866" data-name="Path 35866" d="M734.717,735.238l-2.009-1.119a24.34,24.34,0,0,0-.632,6.716,1.392,1.392,0,0,0,1.046,1.2c4.621,1.147,26.647,6.037,41.793-.85a1.391,1.391,0,0,0,.805-1.117,20.819,20.819,0,0,0-.734-5.951C774.421,732.634,734.717,735.238,734.717,735.238Z" transform="translate(-280.686 -160.389)" fill="#fbd56f"/>
      <path id="Path_35867" data-name="Path 35867" d="M734.717,735.238l-2.009-1.119a24.34,24.34,0,0,0-.632,6.716,1.392,1.392,0,0,0,1.046,1.2c4.621,1.147,26.647,6.037,41.793-.85a1.391,1.391,0,0,0,.805-1.117,20.819,20.819,0,0,0-.734-5.951C774.421,732.634,734.717,735.238,734.717,735.238Z" transform="translate(-280.686 -160.389)" opacity="0.1"/>
      <ellipse id="Ellipse_121" data-name="Ellipse 121" cx="21.138" cy="4.765" rx="21.138" ry="4.765" transform="translate(452.022 568.965)" fill="#fbd56f"/>
      <path id="Path_35868" data-name="Path 35868" d="M719.341,716.533l-2.009-1.119a24.347,24.347,0,0,0-.633,6.715,1.393,1.393,0,0,0,1.046,1.2c4.621,1.148,26.647,6.037,41.792-.849a1.391,1.391,0,0,0,.806-1.117,20.8,20.8,0,0,0-.735-5.951C759.044,713.929,719.341,716.533,719.341,716.533Z" transform="translate(-273.216 -151.303)" fill="#fbd56f"/>
      <path id="Path_35869" data-name="Path 35869" d="M719.341,716.533l-2.009-1.119a24.347,24.347,0,0,0-.633,6.715,1.393,1.393,0,0,0,1.046,1.2c4.621,1.148,26.647,6.037,41.792-.849a1.391,1.391,0,0,0,.806-1.117,20.8,20.8,0,0,0-.735-5.951C759.044,713.929,719.341,716.533,719.341,716.533Z" transform="translate(-273.216 -151.303)" opacity="0.1"/>
      <ellipse id="Ellipse_122" data-name="Ellipse 122" cx="21.138" cy="4.765" rx="21.138" ry="4.765" transform="translate(444.116 559.347)" fill="#fbd56f"/>
      <path id="Path_35870" data-name="Path 35870" d="M753.932,701.521l-2.009-1.119a24.346,24.346,0,0,0-.633,6.716,1.393,1.393,0,0,0,1.046,1.2c4.621,1.147,26.647,6.037,41.793-.85a1.39,1.39,0,0,0,.805-1.117,20.81,20.81,0,0,0-.734-5.951C793.635,698.917,753.932,701.521,753.932,701.521Z" transform="translate(-290.02 -144.01)" fill="#fbd56f"/>
      <path id="Path_35871" data-name="Path 35871" d="M753.932,701.521l-2.009-1.119a24.346,24.346,0,0,0-.633,6.716,1.393,1.393,0,0,0,1.046,1.2c4.621,1.147,26.647,6.037,41.793-.85a1.39,1.39,0,0,0,.805-1.117,20.81,20.81,0,0,0-.734-5.951C793.635,698.917,753.932,701.521,753.932,701.521Z" transform="translate(-290.02 -144.01)" opacity="0.1"/>
      <ellipse id="Ellipse_123" data-name="Ellipse 123" cx="21.138" cy="4.765" rx="21.138" ry="4.765" transform="translate(461.903 551.628)" fill="#fbd56f"/>
      <path id="Path_35872" data-name="Path 35872" d="M730.561,691.433l-2.009-1.119a24.329,24.329,0,0,0-.632,6.715,1.392,1.392,0,0,0,1.046,1.2c4.621,1.148,26.647,6.037,41.793-.849a1.39,1.39,0,0,0,.8-1.117,20.8,20.8,0,0,0-.734-5.951C770.264,688.828,730.561,691.433,730.561,691.433Z" transform="translate(-278.667 -139.109)" fill="#fbd56f"/>
      <path id="Path_35873" data-name="Path 35873" d="M730.561,691.433l-2.009-1.119a24.329,24.329,0,0,0-.632,6.715,1.392,1.392,0,0,0,1.046,1.2c4.621,1.148,26.647,6.037,41.793-.849a1.39,1.39,0,0,0,.8-1.117,20.8,20.8,0,0,0-.734-5.951C770.264,688.828,730.561,691.433,730.561,691.433Z" transform="translate(-278.667 -139.109)" opacity="0.1"/>
      <ellipse id="Ellipse_124" data-name="Ellipse 124" cx="21.138" cy="4.765" rx="21.138" ry="4.765" transform="translate(449.884 546.44)" fill="#fbd56f"/>
      <path id="Path_35874" data-name="Path 35874" d="M746.164,671.954l-2.009-1.119a24.334,24.334,0,0,0-.632,6.715,1.391,1.391,0,0,0,1.046,1.2c4.621,1.148,26.647,6.037,41.793-.85a1.389,1.389,0,0,0,.8-1.117,20.806,20.806,0,0,0-.734-5.951C785.867,669.349,746.164,671.954,746.164,671.954Z" transform="translate(-286.247 -129.647)" fill="#fbd56f"/>
      <path id="Path_35875" data-name="Path 35875" d="M746.164,671.954l-2.009-1.119a24.334,24.334,0,0,0-.632,6.715,1.391,1.391,0,0,0,1.046,1.2c4.621,1.148,26.647,6.037,41.793-.85a1.389,1.389,0,0,0,.8-1.117,20.806,20.806,0,0,0-.734-5.951C785.867,669.349,746.164,671.954,746.164,671.954Z" transform="translate(-286.247 -129.647)" opacity="0.1"/>
      <ellipse id="Ellipse_125" data-name="Ellipse 125" cx="21.138" cy="4.765" rx="21.138" ry="4.765" transform="translate(457.908 536.424)" fill="#fbd56f"/>
      <path id="Path_35876" data-name="Path 35876" d="M753.861,648.834l-2.009-1.119a24.327,24.327,0,0,0-.633,6.715,1.392,1.392,0,0,0,1.046,1.2c4.621,1.148,26.647,6.037,41.793-.849a1.391,1.391,0,0,0,.805-1.117,20.8,20.8,0,0,0-.735-5.951C793.564,646.229,753.861,648.834,753.861,648.834Z" transform="translate(-289.986 -118.416)" fill="#fbd56f"/>
      <path id="Path_35877" data-name="Path 35877" d="M753.861,648.834l-2.009-1.119a24.327,24.327,0,0,0-.633,6.715,1.392,1.392,0,0,0,1.046,1.2c4.621,1.148,26.647,6.037,41.793-.849a1.391,1.391,0,0,0,.805-1.117,20.8,20.8,0,0,0-.735-5.951C793.564,646.229,753.861,648.834,753.861,648.834Z" transform="translate(-289.986 -118.416)" opacity="0.1"/>
      <ellipse id="Ellipse_126" data-name="Ellipse 126" cx="21.138" cy="4.765" rx="21.138" ry="4.765" transform="translate(461.867 524.536)" fill="#fbd56f"/>
      <path id="Path_35878" data-name="Path 35878" d="M875.738,574.775c-2.943-.1-3.048-1.244-6.831-3.215-2.135-1.112-5.378-4.341-7.8-6.939q-.291-.313-.562-.61c.639-.014,1-.02,1-.02s-.946-8.3-.1-10.266.21-13.688.21-13.688.526-8.918-.421-10.992.315-15.347.315-15.347.841-7.881,1.051-23.954-9.248-16.591-9.248-16.591-1.261-.1-3.175-.28l-.574-.055c1.24-2.6,1.963-4.539,1.963-4.539s-1.576-15.036-2-17.628-2.942-13.273-2.942-13.273-1.787-4.563-2.838-7.777-4.2-6.948-4.2-6.948-5.674-11.2-7.251-12.858c-.731-.769-1.757-1.74-2.646-2.559l-.463-.424a18.756,18.756,0,0,0,.376-3.55S823.72,397.454,823.3,396s-5.989-6.844-5.989-6.844-3.153-5.807-6.726-5.911a29.143,29.143,0,0,0-5.061.153c.734-2.716,1.6-5.561,2.381-8,.087-.272.172-.537.256-.8a18,18,0,0,0,6.455-7.808c.075-.169.142-.339.209-.509.038,0,.076.007.113.007a2.819,2.819,0,0,0,.442-.04c1.176-.2,2.172-1.53,1.629-2.578a.384.384,0,0,0,.343.188c.392-.013.871-.58.962-1.079.016-.087.025-.174.038-.261.017-.108.035-.216.047-.325s.02-.2.028-.307.017-.211.023-.318.008-.2.01-.3,0-.228,0-.343c0-.091,0-.183-.007-.274-.006-.139-.018-.278-.031-.416-.005-.057-.006-.114-.013-.171v.008a9.3,9.3,0,0,0-.338-1.672c-.581-1.927-1.8-3.839-1.33-5.8.005-.021.015-.04.02-.061v0c.391-1.519,1.705-2.622,2.509-3.978.077-.13.144-.263.211-.4.012-.025.027-.048.038-.073.048-.1.089-.2.132-.307.027-.066.057-.132.082-.2.034-.09.062-.182.092-.274s.055-.167.079-.251.041-.164.061-.246c.023-.1.047-.2.066-.3.014-.072.024-.144.036-.216.018-.113.034-.227.046-.341.007-.062.011-.124.016-.186.01-.127.017-.255.02-.383,0-.051,0-.1,0-.154q0-.21-.011-.419c0-.042,0-.084-.008-.126-.01-.149-.026-.3-.046-.446,0-.021,0-.043-.006-.065v.006a7.475,7.475,0,0,0-1.505-3.574,9.211,9.211,0,0,0-7.564-3.272,12.665,12.665,0,0,1-2.378.044,7.852,7.852,0,0,1-3.487-1.841l-8.8-6.78a10.864,10.864,0,0,0-3.327-1.978,3.716,3.716,0,0,0-3.656.659c-1.648,1.626-.6,4.425-1.262,6.631a6.441,6.441,0,0,1-4.328,3.85c-1.91.645-3.953.787-5.916,1.254a3.264,3.264,0,0,0-1.583.727,3.061,3.061,0,0,0-.688,2.2,11.882,11.882,0,0,0,1.366,5.608c.371.7.821,1.416,1.215,2.137.033.06.064.119.1.179.044.083.088.166.13.249q.1.2.2.405c.026.059.051.117.076.176q.062.144.117.289c.024.061.047.123.068.184.04.113.075.227.107.341a3.8,3.8,0,0,1,.057,2.068,7.676,7.676,0,0,1-1.94,2.844,5.533,5.533,0,0,0-1.3,2.4l0,.02a1.93,1.93,0,0,0-.024.634c0,.026.007.053.012.078a1.14,1.14,0,0,0,.039.139,1.022,1.022,0,0,0,.041.1.861.861,0,0,0,.055.107.831.831,0,0,0,.134.158c.024.019.048.038.074.055a.885.885,0,0,0,.135.083c.029.014.058.028.09.04a1.26,1.26,0,0,0,.215.059c.021,0,.038.01.06.013a1.956,1.956,0,0,0,.338.014c.033,0,.068-.005.1-.008a3.181,3.181,0,0,0,.323-.041c.039-.007.078-.013.119-.022.155-.032.317-.071.5-.127a11.114,11.114,0,0,0,1.717-.679c0,.063,0,.125,0,.189,0,.109,0,.223.01.332a17.471,17.471,0,0,0,1.135,5.948,17.965,17.965,0,0,0,5.48,7.572q-.046.269-.1.539c-.506,2.487-1.566,4.982-2.219,4.789a8.919,8.919,0,0,0-1.948-.214c-.2-.006-.391-.009-.573-.01h0a7.785,7.785,0,0,0-1.786,0,1.936,1.936,0,0,1-.782-.108,10.66,10.66,0,0,0-5.25-.294c-3.634.745-9.161,2.107-10.677,3.737-2.312,2.489-5.674,4.874-9.458,15.243,0,0-1.891,6.326-3.363,7.155a9.771,9.771,0,0,1,1-.449,2.664,2.664,0,0,1-.788.864,11.6,11.6,0,0,1,1.655-.69c-1.149,6.756.552,26.082.552,26.082s-1.366,3.332.421,5.3a9.989,9.989,0,0,1,1.934,4.289l-.259.4v0c-.946,1.466-2.211,3.378-3.041,4.432-1.471,1.866-1.051,7.777-1.051,7.777s-.315,2.8-1.366,3.837-.84,4.874-.84,4.874l-2.733,10.059s-2.522,2.281-2.522,3.318-2,3.941-2,3.941-3.048,4.977,0,4.251a9.561,9.561,0,0,0,3.077-1.547v.075q-.006.274-.011.556c-.086,5.422.5,13.049,4.5,13.049,6.2,0,22.173,7.362,22.173,7.362,3.258,2.489,7.671,1.659,7.671,1.659s-7.776,7.777-7.566,10.992-4.414,8.5-4.414,8.5L752.262,551.34a21.391,21.391,0,0,0,1.024,5.717c-.068.059-.138.116-.2.177-5.492,5.017-5.969,14.949-5.969,14.949l-1.261,5.081,19.125,8.4s24.8.519,29.109-.622,3.363-5.911-2.312-6.844-7.041-3.422-8.932-4.562c-1.276-.769-5.807-5.743-8.619-8.9l-.124-.14.652-3.617c1.261-.622,3.153-6.844,3.153-6.844s0-2.489,1.261-3.215,3.888-8.192,3.888-8.192,5.675-9.436,5.359-10.681,4.1-7.57,4.1-7.57,7.461-7.259,7.146-8.555,5.99-7.933,5.99-7.933a21.042,21.042,0,0,0,5.58-6.425c.568-.091,1.177-.189,1.82-.3,8.251-1.352,21.963-3.8,23.495-4.478,2.1-.933,1.682,3.215.841,6.74s-1.471,20.428-.525,22.606.525,5.7.525,5.7l-1.261,18.977.841,4.044s-2.838,2.281-1.682,3.629.105,7.155.105,7.155c.1-.037.217-.073.349-.108-.1.228-.2.462-.284.708-1.629,4.643-.7,12.259-.7,12.259v6.014s29.109.518,35.519.518,15.238-3.111,15.763-5.6S878.679,574.879,875.738,574.775ZM792.947,466.822l-1.907.161A15.8,15.8,0,0,1,792.947,466.822Zm11.625-79.594c.267-1.2.591-2.49.948-3.813Zm3.6,82.5a7.716,7.716,0,0,1-5.662.006l-.013-.006s.1-7.259.946-10.266,2-8.5,2-8.5a111.339,111.339,0,0,1,1.892-10.992c.946-3.422,4.624-22.5,6.516-23.747s2.942.933,2.942.933.283-.006.756-.058q.133.3.3.635c2.242,4.531,8.821,13.837,8.821,13.837a15.152,15.152,0,0,1,4.834,4.77c1.786,3.007,2.312,10.059,2.312,10.059s3.993,15.658,5.885,17.836c.946,1.089.525,1.738-.13,2.113a9.308,9.308,0,0,0-3.316,3.063c-.269.427-.554.9-.844,1.4-.723-.168-1.37-.341-1.91-.523-5.149-1.73-22.488-1.8-25.326-.554Z" transform="translate(-284.453 37.358)" fill="url(#linear-gradient)"/>
      <path id="Path_35879" data-name="Path 35879" d="M922.9,800.183v5.964s28.484.514,34.756.514,14.91-3.085,15.424-5.552-7.2-4.525-10.077-4.628-2.982-1.234-6.684-3.187c-2.09-1.1-5.263-4.3-7.628-6.881-1.824-1.988-3.169-3.607-3.169-3.607s-15.321-.308-19.743,2.159a5.351,5.351,0,0,0-2.2,3.063C921.99,792.631,922.9,800.183,922.9,800.183Z" transform="translate(-373.291 -184.256)" fill="#434175"/>
      <path id="Path_35880" data-name="Path 35880" d="M924.472,788.027c3.212-1.117,22.02-1.551,25.111-1.615-1.824-1.988-3.169-3.607-3.169-3.607s-15.322-.308-19.744,2.159A5.356,5.356,0,0,0,924.472,788.027Z" transform="translate(-374.18 -184.256)" opacity="0.1"/>
      <path id="Path_35881" data-name="Path 35881" d="M763.771,604.154l1.661,1c.194.115.4.243.623.376.677.409,1.489.9,2.416,1.456,12.924,7.788,48.177,28.9,50.107,28.732.506-.043,2.026-.271,4.123-.613.555-.091,1.152-.187,1.781-.294,8.074-1.341,21.491-3.765,22.99-4.44,2.057-.925,1.645,3.188.823,6.684s-1.439,20.257-.514,22.417.514,5.656.514,5.656l-1.234,18.817.823,4.011s-2.776,2.262-1.645,3.6.1,7.1.1,7.1c3.29-1.234,25.6-1.645,25.6-1.645s-.925-8.226-.1-10.18.206-13.573.206-13.573.514-8.843-.412-10.9.309-15.219.309-15.219.823-7.815,1.029-23.753-9.049-16.453-9.049-16.453-1.234-.1-3.108-.278a137.89,137.89,0,0,1-13.853-1.911,23.112,23.112,0,0,1-2.474-.656c-5.038-1.715-22.005-1.783-24.782-.549a7.454,7.454,0,0,1-5.54.006l-.012-.006-2.159-3.5L791.372,601.8l-2.186.187-20.3,1.731-1.4.119Z" transform="translate(-296.113 -95.478)" fill="#4d66f0"/>
      <path id="Path_35882" data-name="Path 35882" d="M921.646,624.37c5.991,2.92,11.708-7.433,14.373-13.275a137.979,137.979,0,0,1-13.853-1.911C919.483,613.688,915.9,621.571,921.646,624.37Z" transform="translate(-371.315 -99.92)" opacity="0.1"/>
      <path id="Path_35883" data-name="Path 35883" d="M889.553,493.134a6.282,6.282,0,0,0,.726,2.011c2.194,4.494,8.631,13.721,8.631,13.721a14.9,14.9,0,0,1,4.73,4.73c1.748,2.982,2.262,9.974,2.262,9.974s3.908,15.527,5.759,17.687c.925,1.079.514,1.723-.128,2.1a9.157,9.157,0,0,0-3.245,3.038c-2.7,4.335-7,12.934-.946,15.885,8.226,4.01,15.938-17.008,15.938-17.008s-1.542-14.91-1.954-17.481-2.879-13.162-2.879-13.162-1.748-4.525-2.777-7.713a26.079,26.079,0,0,0-4.113-6.889s-5.552-11.105-7.095-12.751c-.716-.763-1.72-1.725-2.59-2.538-1.006-.94-1.832-1.678-1.832-1.678S889.45,490.667,889.553,493.134Z" transform="translate(-357.216 -38.649)" fill="#ee8e9e"/>
      <path id="Path_35884" data-name="Path 35884" d="M753.971,792.735l18.715,8.329s24.267.514,28.483-.617,3.291-5.861-2.262-6.786-6.89-3.393-8.74-4.525c-1.248-.763-5.682-5.694-8.434-8.82-1.324-1.506-2.26-2.594-2.26-2.594s-3.6-9.562-13.574-7.4a10.218,10.218,0,0,0-4.853,2.554c-5.374,4.975-5.841,14.824-5.841,14.824Z" transform="translate(-291.353 -178.043)" fill="#434175"/>
      <path id="Path_35885" data-name="Path 35885" d="M768.213,605.146c.677.409,1.489.9,2.416,1.456,12.923,7.788,48.178,28.9,50.107,28.732.506-.043,2.026-.271,4.123-.613.555-.091,1.152-.187,1.781-.294.025-.039.047-.078.07-.117a23.62,23.62,0,0,0,2.355-5.762c2.159-8.226-8.535-14.5-8.535-14.5l-2.263-1.758c-2.57-4.329-21.08-8.422-21.08-8.422l-2.386-1.6-1.273-.856-.335-.224-2.9-1.946-14.5,1.028-4.306,2.768-.454.292-1.6,1.028Z" transform="translate(-298.271 -95.09)" opacity="0.1"/>
      <path id="Path_35886" data-name="Path 35886" d="M767.73,772.873c3.936,13.614,20.38,9.168,20.38,9.168l.307-1.725c-1.325-1.506-2.26-2.594-2.26-2.594s-3.6-9.563-13.573-7.4A10.219,10.219,0,0,0,767.73,772.873Z" transform="translate(-298.037 -178.043)" opacity="0.1"/>
      <path id="Path_35887" data-name="Path 35887" d="M755.2,628.525c6.067,0,21.7,7.3,21.7,7.3,3.188,2.468,7.507,1.645,7.507,1.645s-7.609,7.712-7.4,10.9-4.319,8.432-4.319,8.432L758.7,684.464c1.028,19.64,21.183,14.19,21.183,14.19l.823-4.627c1.234-.617,3.085-6.787,3.085-6.787s0-2.468,1.234-3.187,3.8-8.123,3.8-8.123,5.553-9.357,5.244-10.591,4.01-7.506,4.01-7.506,7.3-7.2,6.993-8.483,5.861-7.867,5.861-7.867a20.766,20.766,0,0,0,5.46-6.371,23.63,23.63,0,0,0,2.355-5.763c1.74-6.624-4.858-11.984-7.492-13.816-.638-.444-1.043-.683-1.043-.683l-2.262-1.758c-1.168-1.97-5.635-3.889-10.157-5.4-3.262-1.088-6.554-1.962-8.658-2.486-1.392-.346-2.265-.539-2.265-.539l-2.386-1.6-.839-.563-.769-.516-2.9-1.945-6.452.457-8.047.572-4.306,2.768-2.052,1.32-8.037,5.166s-.212,1.978-.28,4.633c0,.206-.008.414-.013.627C750.714,620.961,751.292,628.525,755.2,628.525Z" transform="translate(-289.808 -95.478)" fill="#4d66f0"/>
      <path id="Path_35888" data-name="Path 35888" d="M819.562,422.025l2.159,7.712s3.8,13.265,4.216,14.19,10.385,10.283,10.8,10.489,5.843,3.29,5.843,3.29.43-16.967.019-21.9a14.061,14.061,0,0,1,.267-3.233,121.516,121.516,0,0,1,3.691-13.909c1.152-3.661,2.108-6.406,2.108-6.406s-24.062-1.028-23.239,1.337a8.451,8.451,0,0,1-.091,3.889c-.5,2.466-1.532,4.94-2.172,4.749a8.623,8.623,0,0,0-1.906-.212C820.367,421.992,819.562,422.025,819.562,422.025Z" transform="translate(-323.216 -4.147)" fill="#ee8e9e"/>
      <path id="Path_35889" data-name="Path 35889" d="M830.785,417.482a17.8,17.8,0,0,0,21.222,1.181c1.152-3.661,2.108-6.406,2.108-6.406s-24.062-1.028-23.239,1.337A8.447,8.447,0,0,1,830.785,417.482Z" transform="translate(-328.667 -4.147)" opacity="0.1"/>
      <path id="Path_35890" data-name="Path 35890" d="M853.946,378.071a17.713,17.713,0,0,1-.89,5.553,14.552,14.552,0,0,1-.514,1.363,17.791,17.791,0,0,1-33.054-.689,17.542,17.542,0,0,1-1.111-5.9c-.01-.108-.01-.221-.01-.329a17.789,17.789,0,0,1,35.579,0Z" transform="translate(-322.635 20.994)" fill="#ee8e9e"/>
      <path id="Path_35891" data-name="Path 35891" d="M819.562,431.448l2.159,7.712s3.8,13.265,4.216,14.191,10.385,10.283,10.8,10.488,5.843,3.291,5.843,3.291.43-16.967.019-21.9a14.06,14.06,0,0,1,.267-3.233l-1.4,5.7.1,11.414.822.617L840.54,462.5v-2.056s-6.581-6.376-7.609-9.049-4.73-7.515-4.73-7.515-4.216-7.087-4.319-8.321c-.08-.962-1.851-3.188-2.626-4.119C820.367,431.416,819.562,431.448,819.562,431.448Z" transform="translate(-323.216 -13.57)" opacity="0.1"/>
      <path id="Path_35892" data-name="Path 35892" d="M889.553,493.134a6.282,6.282,0,0,0,.726,2.011c2.248-.23,9.909-1.66,11.595-10.41-1.006-.94-1.832-1.678-1.832-1.678S889.45,490.666,889.553,493.134Z" transform="translate(-357.216 -38.649)" opacity="0.1"/>
      <path id="Path_35893" data-name="Path 35893" d="M750.8,615.585c2.075-1.468,4.049-3.471,5.228-4.027a22.718,22.718,0,0,0,4.422-3.5s.679-.461,1.719-1.072c1.908-1.119,5.036-2.739,7.432-2.939,2.147-.179,9.279-.635,14.89-.985,4.059-.255,7.321-.455,7.321-.455s6.684-2.365,9.563-.823a30.215,30.215,0,0,0,6.478,2.365s0-.224.012-.611l-.012-.006-2.159-3.5-22.812,1.946-2.9-1.946-14.5,1.028-4.306,2.768-3.714.317,1.662,1-8.037,5.167S750.85,612.621,750.8,615.585Z" transform="translate(-289.814 -95.478)" opacity="0.1"/>
      <path id="Path_35894" data-name="Path 35894" d="M743.72,534.023a9.321,9.321,0,0,0,3.011-1.534v0c2.071-1.466,4.039-3.463,5.215-4.017a22.7,22.7,0,0,0,4.422-3.5s5.45-3.7,9.152-4.01c1.01-.085,3.12-.23,5.655-.4,2.6-.173,5.633-.366,8.4-.537,1.592-.1,3.091-.2,4.358-.273l3.8-.234s6.684-2.365,9.563-.823a30.208,30.208,0,0,0,6.478,2.365s.1-7.2.925-10.18,1.954-8.432,1.954-8.432.926-7.507,1.851-10.9,4.525-22.314,6.375-23.548,2.879.925,2.879.925,12.339-.206,12.545-13.779c0,0-5.758-5.758-6.17-7.2s-5.861-6.787-5.861-6.787-3.085-5.758-6.581-5.861a28.134,28.134,0,0,0-4.952.152l-2.966,12.084.1,11.414.823.617-1.851,2.776v-2.057s-6.581-6.375-7.609-9.049-4.73-7.515-4.73-7.515-4.216-7.087-4.319-8.321-2.982-4.541-2.982-4.541a7.506,7.506,0,0,0-1.748,0,1.866,1.866,0,0,1-.765-.107,10.3,10.3,0,0,0-5.137-.292c-3.556.738-8.965,2.089-10.447,3.706-2.262,2.468-5.553,4.833-9.255,15.116l19.949,7.2-1.707,3.245-15.877,30.174s-.526.858-1.24,1.978v0c-.925,1.454-2.163,3.35-2.976,4.395-1.439,1.851-1.028,7.712-1.028,7.712s-.308,2.777-1.337,3.8-.823,4.833-.823,4.833l-2.674,9.975s-2.468,2.262-2.468,3.29-1.954,3.908-1.954,3.908S740.738,534.743,743.72,534.023Z" transform="translate(-285.729 -13.008)" fill="#434175"/>
      <path id="Path_35895" data-name="Path 35895" d="M941.78,646.435s-6.478,2.159-8.226,5.244S941.78,646.435,941.78,646.435Z" transform="translate(-378.491 -118.016)" opacity="0.1"/>
      <path id="Path_35896" data-name="Path 35896" d="M935.455,633.237c-.206.309-8.873,9.006-8.329,11.106S935.455,633.237,935.455,633.237Z" transform="translate(-375.457 -111.604)" opacity="0.1"/>
      <path id="Path_35897" data-name="Path 35897" d="M840.809,645.235s-9.666,4.558-10.488,6.546S840.809,645.235,840.809,645.235Z" transform="translate(-328.422 -117.433)" opacity="0.1"/>
      <path id="Path_35898" data-name="Path 35898" d="M840.107,656.634s-8.723,3.7-9.914,4.628S840.107,656.634,840.107,656.634Z" transform="translate(-328.337 -122.97)" opacity="0.1"/>
      <path id="Path_35899" data-name="Path 35899" d="M835.76,671.487s-3.863,2.879-5.993.617S835.76,671.487,835.76,671.487Z" transform="translate(-328 -129.905)" opacity="0.1"/>
      <path id="Path_35900" data-name="Path 35900" d="M854.046,526.051c-.208.309-13.061,23.445-16.455,25.193S854.046,526.051,854.046,526.051Z" transform="translate(-331.785 -59.535)" opacity="0.1"/>
      <path id="Path_35901" data-name="Path 35901" d="M854.8,543.049c0,.514-12.545,27.353-14.6,27.661S854.8,543.049,854.8,543.049Z" transform="translate(-333.154 -67.793)" opacity="0.1"/>
      <path id="Path_35902" data-name="Path 35902" d="M767.681,576.644s-6.059,12.938-8.432,13.676S767.681,576.644,767.681,576.644Z" transform="translate(-293.751 -84.112)" opacity="0.1"/>
      <path id="Path_35903" data-name="Path 35903" d="M770.589,565.446s-2.089,4.524-3.358,4.524S770.589,565.446,770.589,565.446Z" transform="translate(-297.687 -78.673)" opacity="0.1"/>
      <path id="Path_35904" data-name="Path 35904" d="M853.946,378.071a17.716,17.716,0,0,1-.89,5.553q-.223.694-.514,1.363a5.229,5.229,0,0,1-2.494-1.1,6.174,6.174,0,0,1-1.866-2,24.984,24.984,0,0,1-.91-2.6,6.041,6.041,0,0,0-4.88-3.7c.591,1.008-.35,2.391-1.507,2.571a3.679,3.679,0,0,1-3.08-1.373c-.8-.859-1.373-1.9-2.165-2.761a3.678,3.678,0,0,0-3.08-1.373,7.047,7.047,0,0,0-2.674,1.517c-.853.581-2.052.972-2.879.35-.463-.344-.689-.931-1.131-1.306-1.136-.951-2.906.031-3.744,1.26-1.291,1.9-2.077,3.054-3.754,3.913-.01-.108-.01-.221-.01-.329a17.789,17.789,0,1,1,35.579,0Z" transform="translate(-322.635 20.994)" opacity="0.1"/>
      <path id="Path_35905" data-name="Path 35905" d="M818.326,359.658c.837-1.23,2.6-2.213,3.744-1.257.442.371.668.958,1.129,1.305.826.623,2.026.232,2.881-.351a7,7,0,0,1,2.672-1.517,3.67,3.67,0,0,1,3.08,1.373c.795.859,1.371,1.9,2.165,2.761a3.669,3.669,0,0,0,3.081,1.371c1.157-.177,2.1-1.562,1.505-2.57a6.042,6.042,0,0,1,4.879,3.7,25.011,25.011,0,0,0,.911,2.6,6.155,6.155,0,0,0,1.869,1.993,4.424,4.424,0,0,0,3.24,1.074c1.152-.2,2.128-1.521,1.593-2.561.368.559,1.159-.22,1.279-.879a9.409,9.409,0,0,0-.238-4.34c-.568-1.911-1.76-3.807-1.3-5.747.364-1.536,1.677-2.639,2.474-4a7.234,7.234,0,0,0-.68-7.88,8.959,8.959,0,0,0-7.4-3.244,12.229,12.229,0,0,1-2.328.043,7.655,7.655,0,0,1-3.412-1.826l-8.613-6.724a10.607,10.607,0,0,0-3.256-1.961,3.6,3.6,0,0,0-3.578.654c-1.613,1.613-.587,4.388-1.235,6.575a6.333,6.333,0,0,1-4.235,3.818c-1.869.64-3.869.78-5.789,1.243a3.173,3.173,0,0,0-1.549.721,3.061,3.061,0,0,0-.673,2.186,11.923,11.923,0,0,0,1.337,5.561c1,1.918,2.579,3.89,2.019,5.978a7.616,7.616,0,0,1-1.9,2.82c-1.628,1.872-2.177,4.638.886,3.672C815.833,363.312,816.661,362.106,818.326,359.658Z" transform="translate(-318.828 35.308)" fill="#19182e"/>
      <g id="Group_8" data-name="Group 8" transform="translate(491.713 380.71)" opacity="0.1">
        <path id="Path_35906" data-name="Path 35906" d="M852.5,388.255c-.12.659-.911,1.438-1.279.879.536,1.04-.44,2.361-1.593,2.561a4.425,4.425,0,0,1-3.24-1.074,6.155,6.155,0,0,1-1.869-1.993,25.091,25.091,0,0,1-.911-2.6,6.042,6.042,0,0,0-4.879-3.7c.595,1.008-.349,2.393-1.506,2.57a3.666,3.666,0,0,1-3.08-1.371c-.8-.859-1.371-1.9-2.166-2.761a3.669,3.669,0,0,0-3.08-1.373,7,7,0,0,0-2.671,1.517c-.855.583-2.055.974-2.881.351-.461-.348-.687-.934-1.129-1.305-1.139-.956-2.907.027-3.744,1.257-1.665,2.447-2.492,3.654-5.443,4.584-.968.306-1.574.236-1.9-.058-.647,1.487-.353,2.8,1.9,2.086,2.95-.931,3.778-2.137,5.443-4.584.837-1.23,2.6-2.213,3.744-1.257.443.371.668.958,1.129,1.305.826.623,2.026.232,2.881-.351a7,7,0,0,1,2.671-1.517,3.67,3.67,0,0,1,3.08,1.373c.8.859,1.371,1.9,2.166,2.761a3.666,3.666,0,0,0,3.08,1.371c1.157-.177,2.1-1.562,1.506-2.57a6.042,6.042,0,0,1,4.879,3.7,25.025,25.025,0,0,0,.911,2.6,6.152,6.152,0,0,0,1.869,1.993,4.426,4.426,0,0,0,3.24,1.074c1.153-.2,2.129-1.521,1.593-2.561.368.559,1.159-.22,1.279-.879a9.4,9.4,0,0,0,.092-2.69C852.569,387.814,852.54,388.036,852.5,388.255Z" transform="translate(-810.687 -368.989)"/>
        <path id="Path_35907" data-name="Path 35907" d="M813.882,369.581c.008-.026.02-.051.027-.078.56-2.089-1.022-4.06-2.019-5.978a11.925,11.925,0,0,1-1.278-4.343,5.769,5.769,0,0,0-.059.81,11.92,11.92,0,0,0,1.336,5.561A20.91,20.91,0,0,1,813.882,369.581Z" transform="translate(-810.553 -359.181)"/>
        <path id="Path_35908" data-name="Path 35908" d="M891.253,367.062c-.8,1.363-2.11,2.466-2.474,4a4.467,4.467,0,0,0,.018,1.97c.383-1.506,1.668-2.6,2.455-3.945a6.756,6.756,0,0,0,.792-4.341,6.359,6.359,0,0,1-.792,2.314Z" transform="translate(-848.505 -361.885)"/>
      </g>
      <path id="Path_35909" data-name="Path 35909" d="M770.758,519.721v0a15.75,15.75,0,0,1,.315,1.721s8.123,19.023,9.152,20.154c.317.348,1.509,2.059,3.009,4.261.543.8,1.125,1.657,1.721,2.542,3.109,4.615,6.581,9.855,6.581,9.855l7.609,6.684s16.553,1.324,21.814-4.047c-.637-.444-1.042-.683-1.042-.683l-2.262-1.758c-1.169-1.97-5.635-3.889-10.158-5.4-4.167.031-7.574.368-7.574.368l-1.084-2.855-1.131-2.978-5.752-15.145s-3.71-19.127-4.944-20.052-.925-3.8-.925-3.8,2.262-8.124,1.439-9.255,1.337-9.46,1.337-9.46a8.628,8.628,0,0,0-.987-2.307L772,517.743S771.471,518.6,770.758,519.721Z" transform="translate(-299.508 -40.841)" opacity="0.1"/>
      <path id="Path_35910" data-name="Path 35910" d="M786.251,482.608s-2.159,8.329-1.337,9.46-1.44,9.254-1.44,9.254-.308,2.88.925,3.8,4.944,20.052,4.944,20.052l7.967,20.977s24.931-2.468,22.36,5.347-23.137,6.17-23.137,6.17l-7.609-6.684s-10.283-15.527-11.311-16.658-9.151-20.154-9.151-20.154-.411-3.8-2.159-5.759-.412-5.258-.412-5.258-2.16-24.87.1-27.852S783.886,473.662,786.251,482.608Z" transform="translate(-296.691 -34.189)" fill="#ee8e9e"/>
      <path id="Path_35911" data-name="Path 35911" d="M772.34,459.122l-6.478,3.908s-1.851,6.272-3.29,7.1c0,0,12.956-7.2,22.725,9.357,0,0-.309-2.159,1.028-3.188s1.028-5.45,1.028-5.45a17.772,17.772,0,0,0,.925-2.159C789.2,466.423,784.37,453.467,772.34,459.122Z" transform="translate(-295.53 -26.334)" opacity="0.1"/>
      <path id="Path_35912" data-name="Path 35912" d="M771.94,458.322l-6.478,3.908s-1.851,6.273-3.291,7.1c0,0,12.956-7.2,22.725,9.357,0,0-.308-2.159,1.029-3.188s1.028-5.45,1.028-5.45a17.81,17.81,0,0,0,.926-2.159C788.8,465.623,783.971,452.667,771.94,458.322Z" transform="translate(-295.336 -25.945)" fill="#434175"/>
      <ellipse id="Ellipse_127" data-name="Ellipse 127" cx="19.312" cy="20.499" rx="19.312" ry="20.499" transform="translate(399.551 571.46)" fill="#fbd56f"/>
      <ellipse id="Ellipse_128" data-name="Ellipse 128" cx="19.312" cy="20.499" rx="19.312" ry="20.499" transform="translate(399.551 571.46)" opacity="0.1"/>
      <ellipse id="Ellipse_129" data-name="Ellipse 129" cx="19.312" cy="20.043" rx="19.312" ry="20.043" transform="translate(402.884 572.372)" fill="#fbd56f"/>
      <g id="Group_9" data-name="Group 9" transform="translate(108.428 573.084)">
        <ellipse id="Ellipse_130" data-name="Ellipse 130" cx="23.852" cy="4.032" rx="23.852" ry="4.032" transform="translate(0 13.554)" fill="#6c63ff"/>
        <path id="Path_35913" data-name="Path 35913" d="M129.469,760.857a6.924,6.924,0,0,0,2.274-3.432,3.052,3.052,0,0,0-1.589-3.5c-1.459-.558-3.019.454-4.2,1.475s-2.538,2.187-4.085,1.971a6.218,6.218,0,0,0,1.923-5.82,2.433,2.433,0,0,0-.535-1.182c-.81-.866-2.279-.494-3.249.188-3.085,2.17-3.946,6.36-3.962,10.132a19.168,19.168,0,0,1-.057-4.174,4.283,4.283,0,0,0-1.567-3.692,4.724,4.724,0,0,0-2.39-.562c-1.387-.051-2.931.088-3.878,1.1-1.177,1.26-.871,3.374.152,4.762a15.036,15.036,0,0,0,4.014,3.215,8.9,8.9,0,0,1,2.868,2.736,2.718,2.718,0,0,1,.213.489h8.693A24.223,24.223,0,0,0,129.469,760.857Z" transform="translate(-95.754 -749.868)" fill="#6c63ff"/>
      </g>
      <path id="Path_35923" data-name="Path 35923" d="M349.994,307.369h.016l-.012,0Z" transform="translate(-95.105 46.698)" opacity="0.2"/>
      <path id="Path_35924" data-name="Path 35924" d="M350.319,307.081c.333-.054.991-.146,1.947-.218l-2.131.252q.046-.011.115-.023Z" transform="translate(-95.174 46.944)" opacity="0.2"/>
      <path id="Path_36032" data-name="Path 36032" d="M42.368,22.47A23.013,23.013,0,0,1,39.907,32.88a22.121,22.121,0,0,1-9.926,9.9A231.267,231.267,0,0,0,0,15.927,22.594,22.594,0,0,1,4.957,7.061,21.252,21.252,0,0,1,20.717,0C32.673,0,42.368,10.059,42.368,22.47Z" transform="matrix(0.755, -0.656, 0.656, 0.755, 235.093, 333.122)" fill="#fad46f"/>
      <ellipse id="Ellipse_131" data-name="Ellipse 131" cx="8.417" cy="10.712" rx="8.417" ry="10.712" transform="translate(372.243 503.386)" fill="#6c63ff"/>
      <g id="coin-bag-solid" transform="translate(137.1 343.416)">
        <path id="Path_1" data-name="Path 1" d="M194.667,208.654h68.952c-5.79-76.409-38.687-123.868-80.883-151.94l19.212-41.933A8.772,8.772,0,0,0,193.965,2.5H73.694a8.773,8.773,0,0,0-7.983,12.282L76.238,37.59h88.778l-7.9,17.545H140.891a218.424,218.424,0,0,1,10.878,41.143,214.857,214.857,0,0,1,2.807,26.317l-13.861,9.738a197.729,197.729,0,0,0-2.807-33.862,190.718,190.718,0,0,0-12.457-43.336h-8.773A247.569,247.569,0,0,0,94.923,87.594a209.754,209.754,0,0,0-13.071,30.353l-12.018-7.983a199.83,199.83,0,0,1,12.9-29.3A270.242,270.242,0,0,1,99.573,55.135H84.221l.7,1.491C38.428,87.594,3.075,141.983,3.075,232.779A14.475,14.475,0,0,0,16.76,248.131H86.94a23.423,23.423,0,0,1,14.036-39.476A23.423,23.423,0,0,1,97.73,196.9a23.686,23.686,0,0,1,23.686-23.686h52.635A23.686,23.686,0,0,1,197.737,196.9,23.07,23.07,0,0,1,194.667,208.654Z" transform="translate(-3.047 -2.5)" fill="#00d95e"/>
        <path id="Path_2" data-name="Path 2" d="M83.78,36.273A8.773,8.773,0,0,0,75.008,27.5H22.373a8.773,8.773,0,1,0,0,17.545H75.008A8.773,8.773,0,0,0,83.78,36.273Z" transform="translate(78.978 191.813)" fill="#fad46f"/>
        <path id="Path_3" data-name="Path 3" d="M76.948,23.5H24.313a8.773,8.773,0,0,0,0,17.545H76.948a8.773,8.773,0,1,0,0-17.545Z" transform="translate(94.057 160.723)" fill="#fad46f"/>
        <path id="Path_4" data-name="Path 4" d="M76.408,31.5H23.772a8.773,8.773,0,0,0,0,17.545H76.408a8.773,8.773,0,1,0,0-17.545Z" transform="translate(89.86 222.904)" fill="#fad46f"/>
        <path id="Path_5" data-name="Path 5" d="M94.88,31.5H33.473a8.773,8.773,0,1,0,0,17.545H94.88a8.773,8.773,0,0,0,0-17.545Z" transform="translate(165.253 222.904)" fill="#fad46f"/>
      </g>
    </g>
    <g id="users-solid_1_" data-name="users-solid (1)" transform="translate(558 254)">
      <path id="Path_36034" data-name="Path 36034" d="M18.3,16.145H16.7A15.909,15.909,0,0,0,4.9,20.769l-.44.514V36.476h7.487V27.852l1.009-1.138.459-.532a20.185,20.185,0,0,1,8.643-5.248A12.092,12.092,0,0,1,18.3,16.145Z" transform="translate(0 8.457)" fill="#8e8e98"/>
      <path id="Path_36035" data-name="Path 36035" d="M39.289,20.739a15.909,15.909,0,0,0-11.8-4.624,19.21,19.21,0,0,0-2,.11,12.092,12.092,0,0,1-3.67,4.5,20.019,20.019,0,0,1,9.175,5.5l.459.514.991,1.138v8.643h7.23V21.253Z" transform="translate(14.495 8.432)" fill="#8e8e98"/>
      <path id="Path_36036" data-name="Path 36036" d="M14.517,20.987h.569A11.835,11.835,0,0,1,20.793,9.445,7.5,7.5,0,1,0,14.517,21.06Z" transform="translate(2.127 0.037)" fill="#8e8e98"/>
      <path id="Path_36037" data-name="Path 36037" d="M26.9,19.648a12,12,0,0,1,0,1.266,7.506,7.506,0,0,0,1.064.092h.349A7.5,7.5,0,1,0,21.47,9.665,11.982,11.982,0,0,1,26.9,19.648Z" transform="translate(14.203 0)" fill="#8e8e98"/>
      <circle id="Ellipse_157" data-name="Ellipse 157" cx="8.202" cy="8.202" r="8.202" transform="translate(20.865 11.464)" fill="#8e8e98"/>
      <path id="Path_36038" data-name="Path 36038" d="M24.255,20.307a17.781,17.781,0,0,0-13.047,4.954l-.459.514V37.391a2.881,2.881,0,0,0,2.936,2.826H34.77a2.881,2.881,0,0,0,2.936-2.826V25.812l-.44-.55A17.579,17.579,0,0,0,24.255,20.307Z" transform="translate(5.252 11.928)" fill="#8e8e98"/>
    </g>
  </g>
</svg>
