<svg xmlns="http://www.w3.org/2000/svg" width="158" height="158" viewBox="0 0 158 158">
  <g id="Group_28360" data-name="Group 28360" transform="translate(-37 -77)">
    <rect id="Rectangle_2864" data-name="Rectangle 2864" width="158" height="158" rx="12" transform="translate(37 77)" fill="#dbe3ff"/>
    <g id="Group_28336" data-name="Group 28336" transform="translate(-363 -615)">
      <g id="Layer_2" data-name="Layer 2" transform="translate(454 730)">
        <g id="Layer_1" data-name="Layer 1">
          <rect id="Rectangle_2694" data-name="Rectangle 2694" width="50" height="50" rx="10" fill="#3692fb"/>
          <path id="Facebook_Messenger" data-name="Facebook Messenger" d="M20.3,6.444A13.336,13.336,0,0,0,6.44,19.278a12.487,12.487,0,0,0,5.2,9.993v4.884l4.693-2.6a14.669,14.669,0,0,0,3.949.537A13.336,13.336,0,0,0,34.133,19.26,13.336,13.336,0,0,0,20.3,6.444Zm1.368,17.319L18.2,20.005l-6.928,3.758,7.534-8.036,3.585,3.758,6.754-3.758Z" transform="translate(4.713 4.709)" fill="#fff"/>
        </g>
      </g>
      <text id="Messenger" transform="translate(436 808)" fill="#3e4664" font-size="18" font-family="Lato-Regular, Lato"><tspan x="0" y="0">Messenger</tspan></text>
    </g>
  </g>
</svg>
