<svg xmlns="http://www.w3.org/2000/svg" width="32" height="32" viewBox="0 0 32 32">
  <g id="Group_27739" data-name="Group 27739" transform="translate(-1160 -2684)">
    <g id="Rectangle_2618" data-name="Rectangle 2618" transform="translate(1160 2684)" fill="#fff" stroke="#d4d4d5" stroke-width="1">
      <rect width="32" height="32" rx="4" stroke="none"/>
      <rect x="0.5" y="0.5" width="31" height="31" rx="3.5" fill="none"/>
    </g>
    <g id="plus-line_2_" data-name="plus-line (2)" transform="translate(1162 2686)">
      <path id="Path_36082" data-name="Path 36082" d="M22.307,13.308H14.692V5.692a.692.692,0,0,0-1.385,0v7.615H5.692A.692.692,0,0,0,5,14a.63.63,0,0,0,.692.651h7.615v7.657a.692.692,0,0,0,1.385,0V14.692h7.615a.692.692,0,0,0,0-1.385Z" transform="translate(0 0)" fill="#d4d4d5"/>
    </g>
  </g>
</svg>
