<svg id="undraw_Group_chat_unwm" xmlns="http://www.w3.org/2000/svg" xmlns:xlink="http://www.w3.org/1999/xlink" width="634.684" height="429.805" viewBox="0 0 634.684 429.805">
  <defs>
    <linearGradient id="linear-gradient" x1="0.5" y1="1" x2="0.5" gradientUnits="objectBoundingBox">
      <stop offset="0" stop-color="gray" stop-opacity="0.251"/>
      <stop offset="0.535" stop-color="gray" stop-opacity="0.122"/>
      <stop offset="1" stop-color="gray" stop-opacity="0.102"/>
    </linearGradient>
    <linearGradient id="linear-gradient-2" x1="0.5" y1="1" x2="0.5" y2="0" xlink:href="#linear-gradient"/>
    <linearGradient id="linear-gradient-3" x1="-4.618" y1="1" x2="-4.618" y2="0" xlink:href="#linear-gradient"/>
  </defs>
  <path id="Path_36391" data-name="Path 36391" d="M662.684,318.585c0-39.442-16.68-74.278-42.159-95.225q.526-5.978.533-12.125c0-64.039-43.96-115.953-98.187-115.953a86.327,86.327,0,0,0-47.661,14.562c-38.388-29.4-88.5-47.2-143.326-47.2-89.207,0-165.938,47.118-199.98,114.686-1.892-.128-3.8-.2-5.716-.2C71.96,177.13,28,229.044,28,293.083a130.79,130.79,0,0,0,16.157,63.734h0A104.325,104.325,0,0,0,148.482,461.141h417.8a81.912,81.912,0,0,0,81.91-81.909v0A131.342,131.342,0,0,0,662.684,318.585Z" transform="translate(-28 -62.644)" fill="#6c63ff" opacity="0.1"/>
  <path id="Path_36392" data-name="Path 36392" d="M668.623,725.307s-6.819-4.5-13.577-1.3c0,0,2.082,4.01,10.636,3.628Z" transform="translate(-307.165 -356.576)" fill="#00d95e"/>
  <path id="Path_36393" data-name="Path 36393" d="M677.4,727.7s2.074,7.9-3.125,13.276c0,0-3.131-3.259-.025-11.237Z" transform="translate(-315.102 -358.733)" fill="#00d95e"/>
  <path id="Path_36394" data-name="Path 36394" d="M683.775,710.065s-.5-6.72-15.676-4.49c0,0-.071,4.335,5.256,6.39S681.118,712.287,683.775,710.065Z" transform="translate(-312.976 -348.679)" fill="#00d95e"/>
  <path id="Path_36395" data-name="Path 36395" d="M694.482,713.95s6.415,2.063.695,16.291c0,0-4.231-.946-4.981-6.606S691.7,716.013,694.482,713.95Z" transform="translate(-322.749 -352.61)" fill="#00d95e"/>
  <path id="Path_36396" data-name="Path 36396" d="M701.756,688.742s.868-11.057-14.636-9.922c0,0-1.1,10.007,11.9,12.58Z" transform="translate(-321.434 -336.933)" fill="#00d95e"/>
  <path id="Path_36397" data-name="Path 36397" d="M717.847,666.655s-2.126-12.529-17.625-8.795c0,0-.058,10.833,15.094,11.782Z" transform="translate(-327.278 -327.329)" fill="#00d95e"/>
  <path id="Path_36398" data-name="Path 36398" d="M730.305,643.594s-3.559-12.232-18.915-8.552c0,0,3.654,10.977,17.9,10.806Z" transform="translate(-332.25 -317.172)" fill="#00d95e"/>
  <path id="Path_36399" data-name="Path 36399" d="M743.62,620.612s-3.479-12.669-18.3-8.864c0,0,4.947,12.034,17.327,11.02Z" transform="translate(-338.451 -306.791)" fill="#00d95e"/>
  <path id="Path_36400" data-name="Path 36400" d="M753.332,596.639s-2.675-15.492-16.5-12.064c0,0,4.016,14.092,15.482,14.318Z" transform="translate(-343.576 -294.791)" fill="#00d95e"/>
  <path id="Path_36401" data-name="Path 36401" d="M760.528,571.094s-3.209-15.615-17.184-11.074c0,0,5.486,14.756,16.209,13.23Z" transform="translate(-346.476 -283.71)" fill="#00d95e"/>
  <path id="Path_36402" data-name="Path 36402" d="M766.347,544.182s-5.1-15.613-15.912-15.191c0,0,5.213,16.492,15.008,18.324Z" transform="translate(-349.633 -270.261)" fill="#00d95e"/>
  <path id="Path_36403" data-name="Path 36403" d="M770.649,518.72s-5.548-18.8-14.349-17.346c0,0,3.841,14.366,14.036,20.274Z" transform="translate(-352.244 -257.934)" fill="#00d95e"/>
  <path id="Path_36404" data-name="Path 36404" d="M772.749,491.353s-5.2-15.663-13.888-16.286c0,0,3.538,15.41,13.7,20.356Z" transform="translate(-353.384 -246.257)" fill="#00d95e"/>
  <path id="Path_36405" data-name="Path 36405" d="M775.978,465.227s-6.485-15.68-12.228-16.033c0,0,2.817,15.438,11.654,18.607Z" transform="translate(-355.561 -234.738)" fill="#00d95e"/>
  <path id="Path_36406" data-name="Path 36406" d="M779.286,438.775s-3.987-17.029-9.722-18.442c0,0,.785,13.929,9.146,19.716Z" transform="translate(-358.149 -221.89)" fill="#00d95e"/>
  <path id="Path_36407" data-name="Path 36407" d="M783.883,408.937s-4.193-13.571-8.836-15.641c0,0,.918,16,7.76,18.961Z" transform="translate(-360.59 -209.853)" fill="#00d95e"/>
  <path id="Path_36408" data-name="Path 36408" d="M791.411,381.206l.846-23.933s-8.666,18.062-1.484,28.155Z" transform="translate(-366.323 -193.815)" fill="#00d95e"/>
  <path id="Path_36409" data-name="Path 36409" d="M803.569,342.736s6.249-17.477,7.751-18.451c0,0-12.259,11.337-11.062,25.924Z" transform="translate(-371.778 -179.129)" fill="#00d95e"/>
  <path id="Path_36410" data-name="Path 36410" d="M712.265,696.595s11-1.439,10.667,14.1c0,0-9.937,1.618-13.18-11.232Z" transform="translate(-331.52 -344.868)" fill="#00d95e"/>
  <path id="Path_36411" data-name="Path 36411" d="M730.911,673.516s12.708-.042,11.672,15.866c0,0-10.664,1.905-14.184-12.863Z" transform="translate(-339.822 -334.608)" fill="#00d95e"/>
  <path id="Path_36412" data-name="Path 36412" d="M744.891,652.04s11.534-5.409,18.915,8.552c0,0-10.655,4.508-19.934-6.3Z" transform="translate(-346.711 -324.588)" fill="#00d95e"/>
  <path id="Path_36413" data-name="Path 36413" d="M757.988,627.539s11.809-5.756,18.745,7.884c0,0-12.3,4.235-19.719-5.728Z" transform="translate(-352.561 -313.602)" fill="#00d95e"/>
  <path id="Path_36414" data-name="Path 36414" d="M765.881,603.477s11.368-10.859,20.44.123c0,0-11.613,8.936-20.962,2.295Z" transform="translate(-356.277 -301.294)" fill="#00d95e"/>
  <path id="Path_36415" data-name="Path 36415" d="M772.83,576.133s11.438-11.1,20.437.511c0,0-12.837,9.114-20.844,1.819Z" transform="translate(-359.422 -289.121)" fill="#00d95e"/>
  <path id="Path_36416" data-name="Path 36416" d="M777.013,546.576s8.811-13.861,19.182-10.77c0,0-9.141,14.684-19.084,14.029Z" transform="translate(-361.465 -273.099)" fill="#00d95e"/>
  <path id="Path_36417" data-name="Path 36417" d="M781.509,520.677s8.886-17.469,17.273-14.436c0,0-6.4,13.424-17.5,17.372Z" transform="translate(-363.366 -259.979)" fill="#00d95e"/>
  <path id="Path_36418" data-name="Path 36418" d="M782.086,493.016s9.128-13.75,17.676-12.071c0,0-7.458,13.941-18.558,16.049Z" transform="translate(-363.331 -248.811)" fill="#00d95e"/>
  <path id="Path_36419" data-name="Path 36419" d="M784.049,465.052s7.072-15.424,12.823-15.561c0,0-3.4,15.321-12.348,18.154Z" transform="translate(-364.598 -234.871)" fill="#00d95e"/>
  <path id="Path_36420" data-name="Path 36420" d="M786.579,440.408s7.861-15.623,13.768-15.655c0,0-4.023,13.359-13.506,17.028Z" transform="translate(-365.724 -223.858)" fill="#00d95e"/>
  <path id="Path_36421" data-name="Path 36421" d="M788.709,411.665s5.881-12.929,10.749-14.394c0,0-2.941,15.756-10.1,17.823Z" transform="translate(-366.673 -211.623)" fill="#00d95e"/>
  <path id="Path_36422" data-name="Path 36422" d="M793.93,383.534l13.142-20.02s-3.367,19.749-15.061,23.834Z" transform="translate(-368.143 -196.593)" fill="#00d95e"/>
  <path id="Path_36423" data-name="Path 36423" d="M806.621,350.617s15.274-10.545,15.827-12.247c0,0-7.792,14.768-22.194,17.374Z" transform="translate(-371.812 -185.399)" fill="#00d95e"/>
  <path id="Path_36424" data-name="Path 36424" d="M813.039,338.384s17.537-16.859,22.015-16.842c0,0-14.463.662-22.435,15.943Z" transform="translate(-377.317 -177.908)" fill="#00d95e"/>
  <path id="Path_36425" data-name="Path 36425" d="M789.015,392.857l.64.082c3.3-25.8,8.1-41.041,13.529-42.926l-.212-.61C797.217,351.4,792.391,366.427,789.015,392.857Z" transform="translate(-366.809 -190.311)" fill="#444053"/>
  <path id="Path_36426" data-name="Path 36426" d="M780.282,487.869l.965.081c.2-2.409.359-4.874.465-7.328.92-21.351,2.347-40.955,4.224-55.653l-.559-.691c-1.881,14.725-3.711,34.924-4.632,56.3C780.64,483.021,780.484,485.473,780.282,487.869Z" transform="translate(-362.921 -223.646)" fill="#444053"/>
  <path id="Path_36427" data-name="Path 36427" d="M646.64,654.206c.17-.074,17.162-7.661,34.8-25.762a139.984,139.984,0,0,0,25.438-36.036c8.153-16.6,13.123-37.01,14.791-56.832l-1.006.473c-3.744,44.491-24,74.91-40.108,91.454-17.465,17.939-34.266,25.449-34.434,25.523Z" transform="translate(-303.192 -273.196)" fill="#444053"/>
  <path id="Path_36428" data-name="Path 36428" d="M407.915,354.647V564.238c0,6.234-6.012,11.3-13.436,11.3H110.11c-7.424,0-13.436-5.068-13.436-11.3V354.647c0-6.245,6.012-12.609,13.436-12.609H394.479C401.9,342.038,407.915,348.4,407.915,354.647Z" transform="translate(-58.575 -187.032)" fill="#fff"/>
  <path id="Path_36429" data-name="Path 36429" d="M407.915,355.473v32.948H96.675V355.473a13.431,13.431,0,0,1,13.436-13.436H394.479A13.432,13.432,0,0,1,407.915,355.473Z" transform="translate(-58.574 -187.032)" fill="#6c63ff" opacity="0.2"/>
  <circle id="Ellipse_207" data-name="Ellipse 207" cx="8.984" cy="8.984" r="8.984" transform="translate(46.185 169.213)" fill="#fff"/>
  <circle id="Ellipse_208" data-name="Ellipse 208" cx="8.984" cy="8.984" r="8.984" transform="translate(72.324 169.213)" fill="#fff"/>
  <circle id="Ellipse_209" data-name="Ellipse 209" cx="8.984" cy="8.984" r="8.984" transform="translate(98.463 169.213)" fill="#fff"/>
  <path id="Path_36430" data-name="Path 36430" d="M154.81,681.827s-8.687,2.1-12.126,6.032a11.694,11.694,0,0,1-4.624,2.938v-5.943c1.986-3.337,3.991-7.049,3.991-7.049.09-.183.814-2.742.814-2.742,1.629-1.279-.091-5.758-.091-5.758s1-2.833.452-3.381-.09-2.011.362-2.65a3.311,3.311,0,0,0,.362-2.011c0-.548-.724-1.371-1.9-1.828s.09-1.188.814-1.371.9-1.919.09-2.833.091-1.462.543-2.468-1.448-.823-1.448-.823v-9.229h0s-.543-3.016-1.086-8.318-2.625-5.848-2.625-5.848a23.676,23.676,0,0,1-3.258-1.28,22.311,22.311,0,0,0-3.44-1.278,17.639,17.639,0,0,1-4.433-.614,13.589,13.589,0,0,0-3.027-.655c-.111-.052-.217-.107-.326-.162a11.847,11.847,0,0,1-5.492-5.818c-.056-.126-.107-.25-.157-.373a12.924,12.924,0,0,0,1.447-1.919l.009-.016c0,.093,0,.187,0,.28,0,.039,0,.078,0,.118,0,.225,0,.451-.009.675v.018c1.445-2.55,5.631-3.133,6.029-6.043a3.051,3.051,0,0,0,.026-.4v-.018c0-.1,0-.2-.012-.294-.054-.813-.332-1.622-.386-2.443a4.761,4.761,0,0,1,.012-.7v.013c.187-2.261,1.892-4.226,2.673-6.423a7.868,7.868,0,0,0,.407-1.828l0-.017q.029-.283.038-.567c0-.047,0-.094,0-.141q0-.2,0-.395a8.551,8.551,0,0,0-2.825-6.176c-1.443-1.254-3.349-2.042-4.348-3.678-.466-.764-.7-1.661-1.2-2.4a6.021,6.021,0,0,0-4.376-2.151,25.489,25.489,0,0,1-4.964-.656c-1.127-.37-2.15-1.025-3.29-1.355a6.3,6.3,0,0,0-6.762,2.438,11.986,11.986,0,0,1-1.8,2.609c-1.658,1.4-4.471.793-5.924,2.41a4.292,4.292,0,0,0-.793,3.335l0,.043q.012.144.026.288c0,.045.009.089.014.134s.011.1.016.143c.051.443.115.884.171,1.31.008.065.015.13.023.2.016.132.031.264.044.4.01.1.018.193.025.29q.015.179.026.36c.006.094.012.188.017.282a19.505,19.505,0,0,1-2.075,9.747c-1.369,2.688-3.405,5.162-3.76,8.163a8.655,8.655,0,0,0-.039,1.481c0,.058,0,.116.008.174.006.089.016.178.024.266s.019.2.031.306c.007.058.016.116.024.174.019.135.038.27.061.405,0,.029.01.058.016.086.36,2.046,1.174,4.064,1.608,6.117a16.942,16.942,0,0,1,.324,2.311v.016q.026.37.035.741c.009.335,0,.67-.007,1a15.766,15.766,0,0,1-2.109.648c-1.268.184-4.979,3.474-4.707,4.3s-1.661,6.588-1.716,6.758l0,0h0L77.192,659.8s-1.612,1.554-1.108,2.559a4.431,4.431,0,0,1-.1,2.742s-2.724,1.188-2.119,1.919.329,2.1-.088,3.016-1.1,2.559,0,2.833.188,3.838.188,3.838,3.819-.438,3.539,1.828c-.09.724,2.671,2.708,3.824,3.5v10.919a33.463,33.463,0,0,1-4.525-1.535c-2.353-1.1-15.565-3.2-18.46,3.107s3.982,14.714,5.7,15.628a11.775,11.775,0,0,1,1.991,1.919c.362.64,2.443.823,2.443.823a15.345,15.345,0,0,1,2.715,1.554c.4.4,3.708,1.455,7.631,2.272h0s-3.167,7.292,2,6.69,7.684-3.144,11.327-3.144c1.456,0,4.16-.2,6.882-.447a18.155,18.155,0,0,1,2.023.477,25.892,25.892,0,0,0,4.706,1.005s4.072,2.193,6.244,1.645a1.424,1.424,0,0,0,.493-.264l.05-.01a2.9,2.9,0,0,0,1.308-1.121,38.986,38.986,0,0,1,6.977,1.123c2.252.87,18.349-.334,18.349-.334s10.4.2,13.381,1.106,1.921-9.2-3.577-10.338a22.427,22.427,0,0,0-4.473-.4,9.809,9.809,0,0,0,1.039-1.263c1.981-.18,3.283-.291,3.283-.291s5.249-2.559,8.235-4.113a18.781,18.781,0,0,0,5.068-4.021s2.624-1.645,3.71-2.285S167.478,698,167.478,698C175.713,679.359,154.81,681.827,154.81,681.827ZM131.244,658.44c0-.308,0-.616,0-.922.29.209.247.536,0,.922Zm.086,6.463c.219.289.432.552.585.748.585.75-.474,1.115-.4,2.373.017.283.041.673.068,1.108h0c-.111-1.8-.2-3.3-.256-4.228Z" transform="translate(-41.197 -293.703)" fill="url(#linear-gradient)"/>
  <path id="Path_36431" data-name="Path 36431" d="M84.227,780.913a53.493,53.493,0,0,1-7.42-2.263c-2.353-1.086-15.565-3.167-18.46,3.077s3.982,14.569,5.7,15.474,18.46-11.493,18.46-11.493l13.212,5.565,2.534-8.642Z" transform="translate(-41.197 -380.87)" fill="#65617d"/>
  <rect id="Rectangle_2695" data-name="Rectangle 2695" width="57.485" height="19.999" rx="9.999" transform="translate(48.616 401.762)" fill="#65617d"/>
  <path id="Path_36432" data-name="Path 36432" d="M173.114,796.807a10,10,0,0,1-10,10H125.628a10,10,0,1,1,0-20h37.488a10,10,0,0,1,10,10Z" transform="translate(-67.013 -385.047)" opacity="0.1"/>
  <path id="Path_36433" data-name="Path 36433" d="M132.228,805.885a47.786,47.786,0,0,1-10.466,1.414c-4.7-.066-26.708,9.075-26.708,9.075s-3.167,7.22,2,6.624,7.684-3.114,11.327-3.114,15.1-1.259,15.1-1.259l11.029-8.148Z" transform="translate(-57.425 -393.54)" fill="#fbbebe"/>
  <path id="Path_36434" data-name="Path 36434" d="M147.549,662.346l-10.34,2.039-.671.133s-8.174-2.172-8.446-2.354-7.691-10.18-7.691-10.18a14.971,14.971,0,0,0,6.7-1.659c.106-.06.209-.125.312-.19a6.522,6.522,0,0,0,2.8-3.415c.052-.149.1-.3.141-.464a9.175,9.175,0,0,0-.087-4.452c-1-4.219,1.317-5.381,4.4-5.28,4.458.147,10.528,2.929,10.528,2.929a12.359,12.359,0,0,0,.953,4.126c.049.122.1.244.157.369a11.776,11.776,0,0,0,5.492,5.761c.109.054.214.109.326.16.328.157.676.307,1.037.442C161.033,653.3,147.549,662.346,147.549,662.346Z" transform="translate(-69.138 -318.136)" fill="#fbbebe"/>
  <path id="Path_36435" data-name="Path 36435" d="M154.031,643.948a13.034,13.034,0,0,1-16.1,2.772,8.761,8.761,0,0,0,.054-4.916c-2.443-10.316,14.931-2.351,14.931-2.351A12.521,12.521,0,0,0,154.031,643.948Z" transform="translate(-76.863 -318.137)" opacity="0.1"/>
  <path id="Path_36436" data-name="Path 36436" d="M152.061,622.934a12.962,12.962,0,0,1-1.974,6.9,12.806,12.806,0,0,1-1.447,1.9,12.968,12.968,0,0,1-8.823,4.211c-.261.016-.524.024-.787.024a13.031,13.031,0,1,1,13.031-13.031Z" transform="translate(-71.63 -306.288)" fill="#fbbebe"/>
  <path id="Path_36437" data-name="Path 36437" d="M147.549,672.931l-10.34,2.039-.671.133s-8.174-2.172-8.446-2.354-7.691-10.18-7.691-10.18a14.97,14.97,0,0,0,6.7-1.659c.106-.06.209-.125.312-.19a12.134,12.134,0,0,0,8.82,3.858,12.558,12.558,0,0,0,1.841-.146c1.455-.223,2.921-.366,4.384-.519,2.8-.293,7.088-1.143,9.339-3.619.109.054.214.108.326.16.328.157.676.307,1.037.442C161.033,663.883,147.549,672.931,147.549,672.931Z" transform="translate(-69.138 -328.722)" opacity="0.1"/>
  <path id="Path_36438" data-name="Path 36438" d="M149.419,699.482c.09,1.993,1.539,24.432,1.539,24.432H105.8l.307-14.127.247-11.3.081-3.708.361-12.849-1.306-1.151-7.11-6.271,0,0c.054-.168,1.985-5.888,1.716-6.692s3.44-4.072,4.707-4.254a16,16,0,0,0,2.123-.646c2.134-.749,4.982-1.851,5.3-1.68.442.239,4.884-.174,5.071-.193h.005a12.108,12.108,0,0,0,9.127,4.211,12.541,12.541,0,0,0,1.841-.146c1.455-.223,2.921-.367,4.384-.519,2.943-.307,7.52-1.23,9.665-4a13.727,13.727,0,0,1,3.027.649,17.8,17.8,0,0,0,4.433.608,22.445,22.445,0,0,1,3.44,1.265,23.824,23.824,0,0,0,3.258,1.268s2.082.543,2.625,5.791,1.086,8.237,1.086,8.237l-10.77,9.319S149.33,697.492,149.419,699.482Z" transform="translate(-59.335 -328.85)" fill="#00d95e"/>
  <path id="Path_36439" data-name="Path 36439" d="M69.075,690.1l1.582,2.534,5.929,2.089,4.072-7.429L76.9,684.762l-6.019-2.353L67.446,684.4Z" transform="translate(-30.027 -303.813)" fill="#fbbebe"/>
  <path id="Path_36440" data-name="Path 36440" d="M188.911,772.917s8.416-.633,11.854-4.525,12.126-5.972,12.126-5.972,20.9-2.443,12.669,16.017c0,0-.543,2.081-1.629,2.715s-3.71,2.262-3.71,2.262l-32.119-2.8Z" transform="translate(-99.278 -374.141)" fill="#65617d"/>
  <path id="Path_36441" data-name="Path 36441" d="M192.243,798.839a9.967,9.967,0,0,1-1.664,5.527c-5.4.48-17.369,1.6-19.872,2.3-3.076.853-9.3-.632-9.982-.8l-.062-.014s-1.2-3.64-1.773-5.97c-.258-1.059-.388-1.846-.22-1.9.543-.182,5.522-1.539,5.429-.771s14.931-5.836,14.931-5.836l.461,5.792C181.023,798.923,192.243,796.326,192.243,798.839Z" transform="translate(-86.141 -387.08)" opacity="0.1"/>
  <path id="Path_36442" data-name="Path 36442" d="M208.153,794.218l-.633,2.353a18.741,18.741,0,0,1-5.068,3.982c-2.986,1.538-8.235,4.072-8.235,4.072s-19.275,1.629-22.532,2.534-10.045-.814-10.045-.814-2.534-7.692-1.991-7.873,5.52-1.538,5.429-.769,14.931-5.837,14.931-5.837Z" transform="translate(-86.577 -387.298)" fill="#65617d"/>
  <path id="Path_36443" data-name="Path 36443" d="M150.412,825.672s9.473.662,11.725,1.524,18.349-.331,18.349-.331,10.4.2,13.381,1.095,1.921-9.11-3.577-10.236-13.248.53-13.248.53-8.744-1.126-9.8-1.259-8.047.065-8.047.065Z" transform="translate(-82.499 -398.465)" fill="#fbbebe"/>
  <path id="Path_36444" data-name="Path 36444" d="M83.31,787.658s12.52,1.126,15.964,3.18Z" transform="translate(-52.624 -385.425)" opacity="0.1"/>
  <path id="Path_36445" data-name="Path 36445" d="M213.132,772.853s-9.8,2.385-13.646,5.9Z" transform="translate(-104.347 -378.834)" opacity="0.1"/>
  <path id="Path_36446" data-name="Path 36446" d="M84.623,782.524c.2.066,5.763.8,5.631,1.325S84.623,782.524,84.623,782.524Z" transform="translate(-53.209 -383.139)" opacity="0.1"/>
  <path id="Path_36447" data-name="Path 36447" d="M68.86,803.187l.724,2.715a11.731,11.731,0,0,1,1.991,1.9c.362.634,2.443.815,2.443.815a15.384,15.384,0,0,1,2.715,1.538c.543.543,6.425,2.262,11.945,2.986s15.745,2.081,17.917,2.805a26.121,26.121,0,0,0,4.706,1s4.072,2.172,6.244,1.629,5.882-10.406,5.882-10.406-14.3-3.348-14.75-4.434-14.207-6.15-14.207-6.15l-8.144.193Z" transform="translate(-46.191 -389.842)" opacity="0.1"/>
  <path id="Path_36448" data-name="Path 36448" d="M67.881,799.971l.724,2.715a11.728,11.728,0,0,1,1.991,1.9c.362.633,2.443.814,2.443.814a15.389,15.389,0,0,1,2.715,1.539c.543.543,6.425,2.262,11.945,2.986s15.745,2.081,17.917,2.805a26.088,26.088,0,0,0,4.706,1s4.072,2.172,6.244,1.629,5.882-10.406,5.882-10.406-14.3-3.348-14.75-4.434-20.632-9.321-20.632-9.321l-6.334-1.448Z" transform="translate(-45.755 -386.354)" fill="#65617d"/>
  <path id="Path_36449" data-name="Path 36449" d="M94.3,684.05l-1.582.9-3.053,20.813s-1.612,1.538-1.108,2.534a4.347,4.347,0,0,1-.1,2.715s-2.724,1.176-2.119,1.9.329,2.081-.088,2.986-1.1,2.534,0,2.805.188,3.8.188,3.8,3.819-.434,3.539,1.81c-.113.9,4.32,3.8,4.32,3.8s-5.038-9.14,6.247-7.873l.97-5.153s.97-2.9,0-3.806.218-5.2.218-5.2l.213-18.687Z" transform="translate(-53.671 -339.298)" fill="#00d95e"/>
  <path id="Path_36450" data-name="Path 36450" d="M96.8,732.5c.2.331,6.293,1.007,6.69,2.093S96.8,732.5,96.8,732.5Z" transform="translate(-58.631 -360.866)" opacity="0.1"/>
  <path id="Path_36451" data-name="Path 36451" d="M93.339,740.063s.826-2.583,2.8-2.12S93.339,740.063,93.339,740.063Z" transform="translate(-57.089 -363.267)" opacity="0.1"/>
  <path id="Path_36452" data-name="Path 36452" d="M91.429,746.051s1.457-3.444,3.445-3.179S91.429,746.051,91.429,746.051Z" transform="translate(-56.239 -365.479)" opacity="0.1"/>
  <path id="Path_36453" data-name="Path 36453" d="M196.767,745.065l-.633,3.8s-6.515,11.945-7.692,12.126-7.6-7.963-7.6-7.963l-1.719-7.963,6.769-1.283,3-2.97S196.5,741.536,196.767,745.065Z" transform="translate(-95.28 -364.569)" fill="#fbbebe"/>
  <path id="Path_36454" data-name="Path 36454" d="M197.688,688.33l2.443,1.719v9.14s1.9-.181,1.448.814-1.357,1.538-.543,2.443.633,2.624-.091,2.805-1.991.9-.814,1.357,1.9,1.267,1.9,1.81a3.25,3.25,0,0,1-.362,1.991c-.452.633-.9,2.081-.362,2.624s-.452,3.348-.452,3.348,1.719,4.434.091,5.7c0,0-.724,2.534-.814,2.715,0,0,1.14-8.81-10.244-5.083,0,0-.212-3.357-.289-4.6s.982-1.607.4-2.349-2.049-2.443-1.357-2.9.452-1.267.181-1.9-1.23-.633-.363-1.4,1.379-1.491.871-1.854-1.392-1.542-.689-2.082.724-8.416.724-8.416S192.259,682.629,197.688,688.33Z" transform="translate(-99.279 -340.501)" fill="#00d95e"/>
  <path id="Path_36455" data-name="Path 36455" d="M203.306,717.325s3.479-.944,3.594,0S203.306,717.325,203.306,717.325Z" transform="translate(-106.047 -353.926)" opacity="0.1"/>
  <path id="Path_36456" data-name="Path 36456" d="M196.262,721.85s4.769-1.192,5.366-.265S196.262,721.85,196.262,721.85Z" transform="translate(-102.911 -355.852)" opacity="0.1"/>
  <path id="Path_36457" data-name="Path 36457" d="M194.351,726.619s7.154-.994,7.618.464S194.351,726.619,194.351,726.619Z" transform="translate(-102.061 -358.103)" opacity="0.1"/>
  <path id="Path_36458" data-name="Path 36458" d="M196.262,732.5c.265.066,6.889.53,7.022,1.788S196.262,732.5,196.262,732.5Z" transform="translate(-102.911 -360.866)" opacity="0.1"/>
  <rect id="Rectangle_2696" data-name="Rectangle 2696" width="56.729" height="32.222" rx="10.467" transform="translate(40.134 375.708)" fill="#3f3d56"/>
  <circle id="Ellipse_210" data-name="Ellipse 210" cx="2.092" cy="2.092" r="2.092" transform="translate(66.406 389.727)" fill="#e7effd"/>
  <path id="Path_36459" data-name="Path 36459" d="M117.466,704.252s5.437,4.156,9.641.989C127.107,705.241,120,705.888,117.466,704.252Z" transform="translate(-67.831 -348.292)" opacity="0.1"/>
  <path id="Path_36460" data-name="Path 36460" d="M167.093,706.265s5.437,4.156,9.641.989C176.734,707.254,169.627,707.9,167.093,706.265Z" transform="translate(-89.925 -349.188)" opacity="0.1"/>
  <path id="Path_36461" data-name="Path 36461" d="M142.766,622.933a12.962,12.962,0,0,1-1.974,6.9,19.857,19.857,0,0,0-2.937-10.289c-1.808-2.777-7.3-7.645-11.082-6.29a2.682,2.682,0,0,0-1.651,1.775c-.375,1.422.722,2.015,1.425,3.146a9.634,9.634,0,0,1,1.317,6.5,9.182,9.182,0,0,1-.19.9c-.595,2.232-1.957,4.786-.551,6.619.98,1.276,3.087,1.716,3.372,3.3a1.93,1.93,0,0,1,.027.448c-.065,1.064-.975,2-1.371,3.051a5.01,5.01,0,0,0,.28,3.695c.63,1.615,1.632,3.25,1.873,4.954a9.792,9.792,0,0,1-.9,4.895,21.936,21.936,0,0,0-1.493,4.607c-.437,3.008.665,6.486-1.227,8.864a1.323,1.323,0,0,1-.828.559c-1.214.128-1.007-2.052-1.982-2.785a8.528,8.528,0,0,1-.258,3.774,2.906,2.906,0,0,1-2.913,1.993l-.432-2.845a8.2,8.2,0,0,1-3.013,1.887,21.963,21.963,0,0,1,3.144-8.516c-3.187,1.534-5.044,4.857-6.7,7.979-1.034,1.952-2.1,4.086-1.743,6.266.147.888.529,1.732.614,2.628a2.185,2.185,0,0,1-1.075,2.28,1.943,1.943,0,0,1-2.1-.651c-.03-.035-.06-.071-.09-.109a2.107,2.107,0,0,1-.144-.2,3.166,3.166,0,0,1-.242-.429,8.324,8.324,0,0,1-.51-1.664l-.057-.245c-.842-3.7-1.6-7.514-.985-11.255a21.147,21.147,0,0,0,.595-4.143,7.664,7.664,0,0,0-.472-2.31c-.738-2.069-2.161-3.972-2.973-6.056a.346.346,0,0,1-.019-.046c-.426-1.1-.635-2.484.152-3.369a6.856,6.856,0,0,1,1.512-1.023c1.575-1.026,2.28-2.973,2.568-4.829a16.277,16.277,0,0,0,.2-2.541c2.134-.749,4.982-1.852,5.3-1.681.442.239,4.884-.174,5.071-.193a6.636,6.636,0,0,0,3.108-3.605c.052-.149.1-.3.141-.464a13.032,13.032,0,1,1,19.218-11.473Z" transform="translate(-62.335 -306.286)" opacity="0.1"/>
  <path id="Path_36462" data-name="Path 36462" d="M127.674,613.361c-.6,2.232-1.957,4.786-.55,6.619.98,1.277,3.086,1.715,3.37,3.3.224,1.254-.892,2.307-1.343,3.5-1.075,2.843,1.726,5.638,2.152,8.647.462,3.264-1.917,6.24-2.391,9.5-.437,3.007.665,6.484-1.228,8.862a1.313,1.313,0,0,1-.828.56c-1.213.129-1.007-2.051-1.983-2.784a8.485,8.485,0,0,1-.257,3.773,2.9,2.9,0,0,1-2.912,1.992l-.432-2.846a8.237,8.237,0,0,1-3.014,1.888,21.977,21.977,0,0,1,3.144-8.516c-3.186,1.535-5.043,4.856-6.7,7.979-1.036,1.951-2.1,4.085-1.743,6.264.147.889.529,1.732.613,2.629a2.183,2.183,0,0,1-1.076,2.28,1.975,1.975,0,0,1-2.188-.758,5.72,5.72,0,0,1-.9-2.3c-.865-3.777-1.674-7.677-1.042-11.5a21.07,21.07,0,0,0,.593-4.142c-.109-3.055-2.364-5.56-3.465-8.412-.426-1.105-.634-2.484.152-3.37a6.909,6.909,0,0,1,1.514-1.023c1.574-1.026,2.28-2.972,2.569-4.829a16.735,16.735,0,0,0-.171-6.045c-.636-2.976-2.093-5.881-1.732-8.9.355-2.972,2.391-5.422,3.76-8.083a19.135,19.135,0,0,0,1.939-11.177c-.236-1.785-.647-3.851.563-5.184,1.453-1.6,4.266-1,5.924-2.386a11.869,11.869,0,0,0,1.8-2.583,6.329,6.329,0,0,1,6.762-2.414c1.139.327,2.163.975,3.29,1.342a25.729,25.729,0,0,0,4.964.65,6.043,6.043,0,0,1,4.376,2.13c.508.729.737,1.617,1.2,2.373,1,1.62,2.905,2.4,4.348,3.642a8.44,8.44,0,0,1,2.376,9.015c-.861,2.4-2.854,4.519-2.685,7.062a15.521,15.521,0,0,1,.37,3.106c-.4,2.882-4.585,3.458-6.029,5.984a20.7,20.7,0,0,0-2.94-11.879c-1.809-2.778-7.3-7.645-11.081-6.291a2.684,2.684,0,0,0-1.651,1.776c-.374,1.422.722,2.014,1.425,3.147A9.568,9.568,0,0,1,127.674,613.361Z" transform="translate(-62.335 -294.616)" fill="#3f3d56"/>
  <g id="Group_27871" data-name="Group 27871" transform="translate(42.796 298.871)" opacity="0.2">
    <path id="Path_36463" data-name="Path 36463" d="M112.057,653.866a16.725,16.725,0,0,0-.361-3.875c-.54-2.531-1.671-5.009-1.777-7.552-.145,2.83,1.179,5.567,1.777,8.367A16.7,16.7,0,0,1,112.057,653.866Z" transform="translate(-107.263 -619.643)"/>
    <path id="Path_36464" data-name="Path 36464" d="M126.945,699.11c.22-.4.449-.8.694-1.193-3.186,1.535-5.043,4.856-6.7,7.979-.959,1.807-1.944,3.77-1.8,5.781a13.023,13.023,0,0,1,1.8-4.967C122.471,703.822,124.178,700.767,126.945,699.11Z" transform="translate(-111.366 -644.342)"/>
    <path id="Path_36465" data-name="Path 36465" d="M115.988,721.8a1.92,1.92,0,0,1-1.059,1.588,1.974,1.974,0,0,1-2.188-.758,5.722,5.722,0,0,1-.9-2.3,40.922,40.922,0,0,1-1.26-8.216,37.586,37.586,0,0,0,1.26,9.031,5.722,5.722,0,0,0,.9,2.3,1.975,1.975,0,0,0,2.188.758,2.184,2.184,0,0,0,1.076-2.28C116,721.884,115.993,721.843,115.988,721.8Z" transform="translate(-107.562 -650.665)"/>
    <path id="Path_36466" data-name="Path 36466" d="M145.133,632.268a9.054,9.054,0,0,1-.293,1.924c-.441,1.655-1.3,3.486-1.146,5.07a27.155,27.155,0,0,1,1.146-4.255A9.176,9.176,0,0,0,145.133,632.268Z" transform="translate(-122.296 -615.115)"/>
    <path id="Path_36467" data-name="Path 36467" d="M120.235,606.423a18.791,18.791,0,0,0-.156-2.888c-.093-.705-.212-1.454-.25-2.184a16.33,16.33,0,0,0,.25,3A18.7,18.7,0,0,1,120.235,606.423Z" transform="translate(-111.679 -601.351)"/>
    <path id="Path_36468" data-name="Path 36468" d="M149.583,655.031c0-.022-.012-.042-.017-.064a21.135,21.135,0,0,1-1.326,2.748,3.885,3.885,0,0,0-.222,1.771,3.735,3.735,0,0,1,.222-.957C148.691,657.338,149.808,656.285,149.583,655.031Z" transform="translate(-124.22 -625.221)"/>
    <path id="Path_36469" data-name="Path 36469" d="M108.973,690.865c-.109-3.056-2.364-5.56-3.465-8.412a5.65,5.65,0,0,1-.354-1.391,4.689,4.689,0,0,0,.354,2.206c1.082,2.8,3.276,5.275,3.453,8.261C108.974,691.308,108.981,691.087,108.973,690.865Z" transform="translate(-105.139 -636.838)"/>
    <path id="Path_36470" data-name="Path 36470" d="M153.848,619.624c-1.809-2.778-7.3-7.645-11.081-6.291a2.683,2.683,0,0,0-1.651,1.776,1.924,1.924,0,0,0-.028.952c.009-.046.016-.09.028-.137a2.683,2.683,0,0,1,1.651-1.776c3.778-1.354,9.272,3.513,11.081,6.291a20.1,20.1,0,0,1,2.945,10.7A20.518,20.518,0,0,0,153.848,619.624Z" transform="translate(-121.123 -606.581)"/>
    <path id="Path_36471" data-name="Path 36471" d="M175.454,635.454c-.4,2.876-4.566,3.456-6.019,5.968q0,.416-.01.831c1.445-2.525,5.631-3.1,6.029-5.984a3.539,3.539,0,0,0,0-.853C175.455,635.428,175.455,635.441,175.454,635.454Z" transform="translate(-133.759 -616.516)"/>
    <path id="Path_36472" data-name="Path 36472" d="M182.3,615.323c-.861,2.4-2.854,4.519-2.685,7.062,0,.037.009.075.012.112.187-2.239,1.892-4.185,2.673-6.359a7.98,7.98,0,0,0,.443-3.1A7.84,7.84,0,0,1,182.3,615.323Z" transform="translate(-138.293 -606.554)"/>
    <path id="Path_36473" data-name="Path 36473" d="M143.538,705.371a1.314,1.314,0,0,1-.828.56c-1.213.129-1.007-2.051-1.983-2.784.024.289.047.58.063.872.9.78.734,2.852,1.919,2.726a1.315,1.315,0,0,0,.828-.56c1.08-1.356,1.185-3.07,1.157-4.851A6.4,6.4,0,0,1,143.538,705.371Z" transform="translate(-120.983 -645.864)"/>
    <path id="Path_36474" data-name="Path 36474" d="M135.162,709.99a2.9,2.9,0,0,1-2.912,1.992l-.432-2.846a8.234,8.234,0,0,1-2.863,1.829c-.055.29-.108.581-.151.873a8.235,8.235,0,0,0,3.014-1.887l.432,2.846a2.9,2.9,0,0,0,2.912-1.992,6.417,6.417,0,0,0,.335-2.575A5.477,5.477,0,0,1,135.162,709.99Z" transform="translate(-115.675 -648.934)"/>
    <path id="Path_36475" data-name="Path 36475" d="M147.912,686.031a14.569,14.569,0,0,0-.11,2.306,11.91,11.91,0,0,1,.11-1.492c.452-3.11,2.632-5.959,2.436-9.046C150.172,680.578,148.324,683.2,147.912,686.031Z" transform="translate(-124.13 -635.386)"/>
  </g>
  <path id="Path_36476" data-name="Path 36476" d="M651.8,263.819v54.472c0,2.875-2.773,5.213-6.2,5.213H514.448c-3.424,0-6.2-2.338-6.2-5.213V263.819a6.243,6.243,0,0,1,6.2-5.815H645.6A6.243,6.243,0,0,1,651.8,263.819Z" transform="translate(-241.811 -149.62)" fill="#fff"/>
  <path id="Path_36477" data-name="Path 36477" d="M651.8,264.2v15.2H508.251V264.2a6.2,6.2,0,0,1,6.2-6.2H645.6A6.2,6.2,0,0,1,651.8,264.2Z" transform="translate(-241.811 -149.62)" fill="#6c63ff" opacity="0.2"/>
  <circle id="Ellipse_211" data-name="Ellipse 211" cx="4.144" cy="4.144" r="4.144" transform="translate(270.169 114.937)" fill="#fff"/>
  <circle id="Ellipse_212" data-name="Ellipse 212" cx="4.144" cy="4.144" r="4.144" transform="translate(282.225 114.937)" fill="#fff"/>
  <circle id="Ellipse_213" data-name="Ellipse 213" cx="4.144" cy="4.144" r="4.144" transform="translate(294.281 114.937)" fill="#fff"/>
  <circle id="Ellipse_214" data-name="Ellipse 214" cx="16.2" cy="16.2" r="16.2" transform="translate(365.518 135.281)" fill="#6c63ff"/>
  <rect id="Rectangle_2697" data-name="Rectangle 2697" width="68.317" height="2.411" transform="translate(347.158 142.991) rotate(180)" fill="#6c63ff"/>
  <rect id="Rectangle_2698" data-name="Rectangle 2698" width="68.317" height="2.411" transform="translate(347.158 148.868) rotate(180)" fill="#6c63ff" opacity="0.2"/>
  <rect id="Rectangle_2699" data-name="Rectangle 2699" width="68.317" height="2.411" transform="translate(347.158 154.745) rotate(180)" fill="#6c63ff" opacity="0.2"/>
  <rect id="Rectangle_2700" data-name="Rectangle 2700" width="68.317" height="2.411" transform="translate(347.158 160.622) rotate(180)" fill="#6c63ff" opacity="0.2"/>
  <path id="Path_36478" data-name="Path 36478" d="M666.177,514.146s-4.814-1.105-7.964,2.137c0,0,2.028,1.83,6.791-.2Z" transform="translate(-308.575 -263.575)" fill="#6c63ff"/>
  <path id="Path_36479" data-name="Path 36479" d="M672.428,514.218s2.847,4.036,1.039,8.18c0,0-2.462-1.183-2.392-6.359Z" transform="translate(-314.301 -263.688)" fill="#6c63ff"/>
  <path id="Path_36480" data-name="Path 36480" d="M671.415,502.079s-1.707-3.7-9.827.774c0,0,.877,2.47,4.328,2.506S670.38,503.9,671.415,502.079Z" transform="translate(-310.077 -257.644)" fill="#6c63ff"/>
  <path id="Path_36481" data-name="Path 36481" d="M679.215,502.83s4.069-.189,3.84,9.079c0,0-2.6.36-4.219-2.687S678.076,504.586,679.215,502.83Z" transform="translate(-317.358 -258.618)" fill="#6c63ff"/>
  <path id="Path_36482" data-name="Path 36482" d="M677.034,486.784s-1.848-6.445-10.388-2.522c0,0,1.494,5.9,9.4,4.607Z" transform="translate(-312.329 -249.787)" fill="#6c63ff"/>
  <path id="Path_36483" data-name="Path 36483" d="M681.566,470.477s-3.855-6.645-11.842-1.251c0,0,2.259,6.147,11.041,3.478Z" transform="translate(-313.7 -242.717)" fill="#6c63ff"/>
  <path id="Path_36484" data-name="Path 36484" d="M683.742,454.731s-4.6-6.174-12.521-.841c0,0,4.392,5.443,12.421,2.333Z" transform="translate(-314.366 -235.863)" fill="#6c63ff"/>
  <path id="Path_36485" data-name="Path 36485" d="M686.424,438.977s-4.651-6.438-12.24-1.148c0,0,5.347,5.768,12.144,2.575Z" transform="translate(-315.685 -228.75)" fill="#6c63ff"/>
  <path id="Path_36486" data-name="Path 36486" d="M686.814,423.683s-4.793-8.207-11.9-3.34c0,0,5.256,7.131,11.8,4.833Z" transform="translate(-316.012 -221.207)" fill="#6c63ff"/>
  <path id="Path_36487" data-name="Path 36487" d="M685.541,407.541s-5.121-8.164-12.075-2.636c0,0,6.229,7.2,11.979,4.063Z" transform="translate(-315.366 -214.166)" fill="#6c63ff"/>
  <path id="Path_36488" data-name="Path 36488" d="M683,391.832s-6.19-7.763-12.225-5.236c0,0,6.442,8.237,12.376,7.2Z" transform="translate(-314.169 -206.645)" fill="#6c63ff"/>
  <path id="Path_36489" data-name="Path 36489" d="M680.064,376.557s-7.119-9.471-11.8-6.788c0,0,5.215,7.323,12.238,8.512Z" transform="translate(-313.052 -199.165)" fill="#6c63ff"/>
  <path id="Path_36490" data-name="Path 36490" d="M675.45,360.811s-6.259-7.77-11.311-6.284c0,0,5.264,7.978,12.063,8.63Z" transform="translate(-311.213 -192.508)" fill="#6c63ff"/>
  <path id="Path_36491" data-name="Path 36491" d="M671.751,345.408s-6.99-7.508-10.317-6.493c0,0,4.862,8.147,10.537,8.072Z" transform="translate(-310.009 -185.6)" fill="#6c63ff"/>
  <path id="Path_36492" data-name="Path 36492" d="M668.028,329.793s-5.861-8.8-9.408-8.387c0,0,3.392,7.722,9.351,9.23Z" transform="translate(-308.756 -177.84)" fill="#6c63ff"/>
  <path id="Path_36493" data-name="Path 36493" d="M664.318,311.933s-5.246-6.8-8.314-6.988c0,0,3.905,8.868,8.406,9.1Z" transform="translate(-307.592 -170.518)" fill="#6c63ff"/>
  <path id="Path_36494" data-name="Path 36494" d="M664.624,293.9l-4.584-13.733s-1.086,12.062,5.116,16.259Z" transform="translate(-309.356 -159.487)" fill="#6c63ff"/>
  <path id="Path_36495" data-name="Path 36495" d="M664.7,268.385s-.159-11.22.486-12.089c0,0-4.544,9.014-.78,17.022Z" transform="translate(-310.668 -148.86)" fill="#6c63ff"/>
  <path id="Path_36496" data-name="Path 36496" d="M685.115,489.147s5.923-3.142,9.025,5.73c0,0-5.285,3.019-9.841-3.572Z" transform="translate(-320.189 -252.285)" fill="#6c63ff"/>
  <path id="Path_36497" data-name="Path 36497" d="M690.809,472.252s7.188-2.713,9.967,6.516c0,0-5.636,3.335-10.754-4.283Z" transform="translate(-322.736 -244.839)" fill="#6c63ff"/>
  <path id="Path_36498" data-name="Path 36498" d="M694.23,456.374s5.388-5.5,12.521.841c0,0-5.08,4.807-12.621.651Z" transform="translate(-324.565 -236.949)" fill="#6c63ff"/>
  <path id="Path_36499" data-name="Path 36499" d="M696.475,439.652s5.47-5.759,12.283.5c0,0-6.071,5-12.379.928Z" transform="translate(-325.567 -229.414)" fill="#6c63ff"/>
  <path id="Path_36500" data-name="Path 36500" d="M696.335,423.617s4.14-8.555,11.6-4.255c0,0-4.686,7.517-11.385,5.735Z" transform="translate(-325.547 -220.919)" fill="#6c63ff"/>
  <path id="Path_36501" data-name="Path 36501" d="M694.431,406.72s4.128-8.709,11.682-4.034c0,0-5.342,7.877-11.419,5.441Z" transform="translate(-324.699 -213.419)" fill="#6c63ff"/>
  <path id="Path_36502" data-name="Path 36502" d="M691.454,388.281s2.057-9.714,8.584-10.158c0,0-2.07,10.25-7.839,11.983Z" transform="translate(-323.374 -203.098)" fill="#6c63ff"/>
  <path id="Path_36503" data-name="Path 36503" d="M689.23,372.9s1.336-11.773,6.728-11.83c0,0-.783,8.956-6.235,13.541Z" transform="translate(-322.384 -195.507)" fill="#6c63ff"/>
  <path id="Path_36504" data-name="Path 36504" d="M683.564,356.843s2.26-9.718,7.456-10.576c0,0-1.274,9.473-7.114,13.015Z" transform="translate(-319.861 -188.915)" fill="#6c63ff"/>
  <path id="Path_36505" data-name="Path 36505" d="M678.927,341.5s.742-10.231,3.97-11.525c0,0,1.317,9.4-3.152,12.893Z" transform="translate(-317.797 -181.661)" fill="#6c63ff"/>
  <path id="Path_36506" data-name="Path 36506" d="M675.161,326.847s1.146-10.511,4.485-11.778c0,0,.548,8.416-4.046,12.5Z" transform="translate(-316.12 -175.025)" fill="#6c63ff"/>
  <path id="Path_36507" data-name="Path 36507" d="M670.072,310.633s.595-8.566,3.042-10.426c0,0,1.668,9.545-1.95,12.231Z" transform="translate(-313.855 -168.409)" fill="#6c63ff"/>
  <path id="Path_36508" data-name="Path 36508" d="M668.679,292.865l3.207-14.118s2.272,11.9-3.486,16.684Z" transform="translate(-313.11 -158.854)" fill="#6c63ff"/>
  <path id="Path_36509" data-name="Path 36509" d="M667.8,270.326s6.419-9.2,6.372-10.285c0,0-1.288,10.012-8.893,14.535Z" transform="translate(-311.723 -150.527)" fill="#6c63ff"/>
  <path id="Path_36510" data-name="Path 36510" d="M668.608,262s6.365-13.258,8.9-14.2a17.309,17.309,0,0,0-9.332,13.776Z" transform="translate(-313.012 -145.079)" fill="#6c63ff"/>
  <path id="Path_36511" data-name="Path 36511" d="M668.686,299.371l.38-.089c-3.592-15.306-4.1-24.956-1.421-27.172l-.249-.3C664.56,274.159,665.006,283.689,668.686,299.371Z" transform="translate(-311.843 -155.766)" fill="#444053"/>
  <path id="Path_36512" data-name="Path 36512" d="M681.294,356.53l.564-.158c-.4-1.407-.828-2.836-1.287-4.249-4-12.286-7.336-23.69-9.383-32.411l-.463-.273c2.05,8.737,5.287,20.563,9.289,32.865C680.471,353.709,680.9,355.131,681.294,356.53Z" transform="translate(-314.145 -176.971)" fill="#444053"/>
  <path id="Path_36513" data-name="Path 36513" d="M658.431,467.043c.08-.078,8.1-7.97,14.256-21.952a84.636,84.636,0,0,0,6.781-25.791c1.1-11.127-.4-23.736-3.648-35.314l-.47.481c7.293,25.988,2.258,47.5-3.363,60.278-6.095,13.855-14.021,21.662-14.1,21.739Z" transform="translate(-308.43 -205.708)" fill="#444053"/>
  <path id="Path_36514" data-name="Path 36514" d="M992.649,680.159,977.3,657.9s-.287-5.51-1.291-6.8-.215-4.151-.215-4.151,1.076-1.574.143-1.718-.143-3.65-.143-3.65L975.719,636s.861-5.367.143-6.656a2.111,2.111,0,0,1,.072-2.29s.861-3.077,0-3.865-.646-5.582-.43-9.375S974,607.877,974,607.3s-5.667-6.155-5.667-6.656-3.587-2.576-5.739-3.149-3.228-1-3.156-1.288-3.372-1.431-3.372-1.431-3.013-.215-4.161-1.718c-1.132-1.482-4.658-1.938-4.757-1.951-.022-.1-.046-.2-.066-.3s-.044-.216-.065-.323c.271-.454.522-.922.75-1.4q.1-.216.2-.437a6.1,6.1,0,0,0,3.53-1.094,4.805,4.805,0,0,0,1.719-3.432,7.536,7.536,0,0,0-.839-3.814c-.63-1.289-1.553-2.624-1.233-4.022.138-.6.5-1.134.685-1.725a4.541,4.541,0,0,0-.515-3.39c-.544-1.04-1.3-1.953-1.9-2.96a11.6,11.6,0,0,1-1.514-4.187,6.5,6.5,0,0,0-.56-2.279,4.223,4.223,0,0,0-1.258-1.271,12.571,12.571,0,0,0-7.711-2.338c-1.953.068-3.9.594-5.839.355a21.362,21.362,0,0,1-3.409-.892c-2.406-.711-5.182-1.005-7.277.373-2.133,1.4-2.929,4.085-4.349,6.2-1.256,1.874-3.094,3.444-4.051,5.43.011-.038.021-.077.032-.115a6.53,6.53,0,0,0-.535,1.446,10.294,10.294,0,0,0,.318,4.746,3.3,3.3,0,0,0,1.159,2.119,6.751,6.751,0,0,0,2.508.492c-.033.136-.067.272-.1.409a16.386,16.386,0,0,0,11.374,19.114c0,.146.006.292,0,.434a11.2,11.2,0,0,1-.075,1.23h0s-7.212-1.482-9.149-.48-5.739,1.789-6.313,2.362-2.009.143-3.3,3.507-1.435,6.8-3.085,8.373-2.511,2.648-2.583,3.793.215,1.431-.43,1.789-1.578,1.861-1.291,2.433a2.038,2.038,0,0,1-.789,2.147,2.392,2.392,0,0,0-1,2.147s-.43,1.575-1.435,1.932-1.65,2.719-1.65,2.719l-3.254,3.74-6.445-7.13a2.721,2.721,0,0,0-3.837-.2l-3.165,2.848a6.249,6.249,0,0,0-3.168,1.885,8.242,8.242,0,0,0-1.642,2.443l-1.734,1.56a4.4,4.4,0,0,0-.444,4.863l4.131,4.568.025.038a7.278,7.278,0,0,0-4,1.627c-6.168,5.438-6.241,10.449-5.307,12.738s8.751,11.094,8.751,11.094a34.93,34.93,0,0,0,11.1,9.045l-.009.009-.05.05c-.13.137-.258.288-.385.449-.035.045-.071.089-.105.136s-.067.093-.1.14-.079.113-.118.172-.061.093-.091.141c-.042.066-.083.135-.124.2-.026.045-.053.09-.079.137-.05.09-.1.183-.146.278-.016.031-.032.06-.047.092q-.092.188-.178.391c-.02.047-.039.1-.058.145-.038.093-.075.187-.111.285-.022.06-.044.122-.065.184q-.048.137-.092.28c-.021.067-.042.133-.062.2-.03.1-.058.208-.085.314-.017.065-.034.128-.05.194q-.06.249-.112.513c-.013.066-.024.136-.036.2-.022.121-.043.243-.062.369-.013.084-.024.172-.036.258-.016.117-.031.236-.044.357-.01.09-.019.18-.028.272-.012.133-.022.269-.032.407-.006.084-.012.166-.017.251-.012.225-.021.455-.025.692-.144,8.373.346,9.591.346,9.591a4.647,4.647,0,0,0,3.807,2.858,4.976,4.976,0,0,0,1.227-.067c3.73-.644,12.483-2.147,15.567-1.574,1.855.344,5.288-.165,7.733-.627q.336-.063.645-.124l.446,1.423,1.42-.388c.459.266.867.5,1.2.7l.76.437c1.417,4.8,7.163,3.163,7.163,3.163l1.365.788,13.845.356a27.891,27.891,0,0,0,4.9,2.353,4.367,4.367,0,0,0,.7.152,31.8,31.8,0,0,0,3.859.073c1.061-.028,1.881-.073,1.881-.073s-.141-3.759-.342-7.967a113.133,113.133,0,0,0,12.824-1.05c7.392-1.3,10.478-8.023,11.614-11.615a33.815,33.815,0,0,1,.725,4.458,32.262,32.262,0,0,0,1.148,3.865,13.091,13.091,0,0,0,1.578,2.863c5.452-1.861,2.152-4.652,1-5.869s.789-2.218.789-2.218,1.507-1,1.363-1.932-.215-1.932,4.663-1.861S992.649,680.159,992.649,680.159Zm-75.748-45.7c.063.41.742,4.818,1.358,5.978a7.892,7.892,0,0,1,.161,2.357c-2.89-.23-5.9-.353-5.9-.353a.69.69,0,0,1,.154.367c-.147-.032-.3-.066-.454-.1-.214-.05-.436-.1-.66-.162l5.327-8.1Zm-10.55,16.784,5,.792.419.066a16.582,16.582,0,0,0-.259,2.363c.015.074.113.165.273.267a6.546,6.546,0,0,0-.1,1.184c.079.4,2.42,1.251,5.1,1.961-.036.145-.073.282-.11.411h0c-2.369-1.247-6.1-1.829-6.532-2.755s-13.128-5.363-13.128-5.363-.464-.246-1.265-.632l3.346.632.918-.093a50.069,50.069,0,0,0,6.327,1.166Z" transform="translate(-401.894 -282.737)" fill="url(#linear-gradient-2)"/>
  <path id="Path_36515" data-name="Path 36515" d="M990.864,763.028s-1.991,12.016-12.087,13.793-43.8,1.422-43.8,1.422-19.268-2.773-26.236-19.054-11.447-22.752-5.475-23.036,38.18,10.878,40.029,11.02S992.645,722.43,990.864,763.028Z" transform="translate(-416.436 -362.492)" fill="#65617d"/>
  <path id="Path_36516" data-name="Path 36516" d="M990.864,763.028s-1.991,12.016-12.087,13.793-43.8,1.422-43.8,1.422-19.268-2.773-26.236-19.054-11.447-22.752-5.475-23.036,38.18,10.878,40.029,11.02S992.645,722.43,990.864,763.028Z" transform="translate(-416.436 -362.492)" opacity="0.05"/>
  <path id="Path_36517" data-name="Path 36517" d="M900.191,794.086a4.609,4.609,0,0,0,3.773,2.839,4.917,4.917,0,0,0,1.216-.066c3.7-.64,12.371-2.133,15.428-1.564,1.838.341,5.24-.164,7.664-.623,1.61-.3,2.788-.587,2.788-.587s-2.843-9.455-3.2-9.741-12.8-7.749-12.8-7.749l-9.852-.708-.03,0a5.189,5.189,0,0,0-3.34,1.963c-1.041,1.258-1.932,3.325-1.992,6.71C899.7,792.877,900.191,794.086,900.191,794.086Z" transform="translate(-416.141 -380.184)" fill="#3f3d56"/>
  <path id="Path_36518" data-name="Path 36518" d="M900.192,794.086a4.609,4.609,0,0,0,3.773,2.839,40.637,40.637,0,0,1-2.677-3.906l.053-6.9a12.149,12.149,0,0,1,3.869-10.236l-.03,0s-5.19.354-5.333,8.673S900.192,794.086,900.192,794.086Z" transform="translate(-416.141 -380.184)" opacity="0.05"/>
  <path id="Path_36519" data-name="Path 36519" d="M972.924,764.207l9.172-7.18,14.434-14.22s-1.559-.075-3.912-.177c-.584.373-2.225,1.547-2.284,2.971-.07,1.738-3.9.121-5.891,1.115S972.711,760.178,971,760.1s-3.057-.866-3.769.344c-.015.028-.034.053-.051.079Z" transform="translate(-446.131 -365.378)" opacity="0.1"/>
  <path id="Path_36520" data-name="Path 36520" d="M903.46,777.847q.489.237.994.454c6.969,2.986,15.571,9.242,16.211,10.381.39.691,5.377,3.72,9.227,5.99,1.611-.3,2.788-.587,2.788-.587s-2.843-9.456-3.2-9.741-12.8-7.749-12.8-7.749l-9.852-.708-.03,0A5.189,5.189,0,0,0,903.46,777.847Z" transform="translate(-417.76 -380.184)" opacity="0.1"/>
  <path id="Path_36521" data-name="Path 36521" d="M868.254,731.161c.924,2.276,8.672,11.021,8.672,11.021s4.906,6.4,11.875,9.385,15.571,9.242,16.21,10.381c.412.732,5.964,4.076,9.878,6.373.3.177.595.35.876.512.766.446,1.434.834,1.941,1.126.64.371,1.026.591,1.026.591s2.38-1.911,4.752-3.835c2.34-1.9,4.669-3.807,4.706-3.914.07-.213.994-2.632.781-2.773-.111-.075-.6-1.058-1.5-2.2a10.06,10.06,0,0,0-3.622-2.993,10.3,10.3,0,0,1-4.692-4.893s-.312-.226-.783-.525a9.5,9.5,0,0,0-3.2-1.425c-1.565-.2-4.479-3.4-4.479-3.4a8.754,8.754,0,0,1-2.773-2.914c-.747-1.559-11.774-9.133-12.8-9.833l26.732,17.168,6.4,4.11,9.172-7.179,14.434-14.221s-1.941-.094-4.763-.215c-7.015-.3-19.474-.778-21.046-.424a12,12,0,0,1-3.912.256,13.719,13.719,0,0,1-5.9-1.079c-2.348-1.239-6.047-1.817-6.473-2.737s-13.011-5.328-13.011-5.328-17.134-9.1-23.249-3.7S867.328,728.887,868.254,731.161Z" transform="translate(-401.894 -353.875)" fill="#65617d"/>
  <path id="Path_36522" data-name="Path 36522" d="M968.176,631.7l2.2,7.323,2.843,16.494,10.452.712,3.027-5.019,3.018-5.006s1.881-6.665,3.234-13.113c1.2-5.706,1.977-11.241.676-11.842-1.154-.533-1.913-2.455-2.406-4.52-.062-.256-.119-.516-.171-.774a40.341,40.341,0,0,1-.693-5.3s-21.9-1.137-18.843,7.892a14.368,14.368,0,0,1,.825,4.8,11.114,11.114,0,0,1-.075,1.222A10.235,10.235,0,0,1,968.176,631.7Z" transform="translate(-446.573 -306.603)" fill="#ee8e9e"/>
  <path id="Path_36523" data-name="Path 36523" d="M959.972,641.7l.783,12.442,1.777,10.594,1.992,4.906L966.3,696.48s17.143,1.982,21.313-.036a1.823,1.823,0,0,0,.755-.589c5.036-7.6,3.385-29.629,3.385-29.629l1.92-14.221-1.28-7.38L989.3,644.3l-2.38-.254s-.537.661-1.314,1.687c-2.107,2.784-5.985,8.257-5.725,10.541.354,3.129-.427,6.329-1.636,6.826s-2.2,1.352-2.417.5a3.851,3.851,0,0,1-.213-2.276c.213-1.209-.926-4.906-.926-4.906s-1.919-4.336-1.777-6.186-.213-3.982-.783-4.479-1.35-1-.71-3.27-2.8-6.7-2.8-6.7Z" transform="translate(-442.92 -317.806)" fill="#e3e8f4"/>
  <path id="Path_36524" data-name="Path 36524" d="M1000.766,666.369l.712,21.259s1.615.894,4.106,2.276a1.825,1.825,0,0,0,.755-.589c5.036-7.6,3.385-29.629,3.385-29.629l1.92-14.22-1.28-7.38-3.093-.328c1.2-5.706,1.977-11.241.676-11.842-1.154-.533-1.913-2.455-2.406-4.52h0l-2.216,15.042s.186,1.354.252,2.754a7.87,7.87,0,0,1-.179,2.649,8.828,8.828,0,0,0-.143,3.556c-1.282,2.259-1.922,6.442-2.235,10.481C1000.6,661.25,1000.766,666.369,1000.766,666.369Z" transform="translate(-461.068 -311.404)" opacity="0.1"/>
  <path id="Path_36525" data-name="Path 36525" d="M1005.922,620.784s3.582.445,4.72,1.938,4.124,1.706,4.124,1.706,3.413,1.138,3.342,1.422,1,.711,3.128,1.28,5.688,2.631,5.688,3.128,5.617,6.043,5.617,6.612,1.707,2.7,1.493,6.47-.427,8.532.427,9.314,0,3.839,0,3.839a2.1,2.1,0,0,0-.071,2.275c.711,1.28-.142,6.612-.142,6.612l.071,5.546s-.782,3.484.142,3.626-.142,1.706-.142,1.706-.782,2.844.213,4.124,1.28,6.754,1.28,6.754l15.215,22.112s.213,4.053-4.621,3.982-4.764.924-4.621,1.849-1.351,1.92-1.351,1.92-1.92,1-.782,2.2,4.408,3.981-1,5.83a12.989,12.989,0,0,1-1.564-2.844,32.023,32.023,0,0,1-1.137-3.839s-.5-5.4-1.493-6.115-.853-4.124-.853-4.124,1.422-2.773-.569-3.91-30.857-17.135-30.857-17.135l-.711-21.259s-.5-15.713,2.488-20.974a8.848,8.848,0,0,1,.142-3.555c.5-1.28-.071-5.4-.071-5.4Z" transform="translate(-461.382 -311.132)" fill="#4d66f0"/>
  <path id="Path_36526" data-name="Path 36526" d="M955.092,635.5s-7.148-1.473-9.068-.477-5.688,1.777-6.257,2.346-1.991.142-3.271,3.484-1.422,6.754-3.057,8.318-2.489,2.631-2.56,3.768.213,1.422-.427,1.777-1.564,1.849-1.28,2.417,14.789,13.082,14.789,13.082.711,4.764,1.351,5.972-.711,17.846-2.133,18.983,9.6,1.033,9.6,1.033.5-10.915.924-11.484-.284-12.229-.284-12.229-.071-9.954.853-12.584.82-11.376.82-11.376.817-5.248,1.81-6.47S955.092,635.5,955.092,635.5Z" transform="translate(-429.185 -317.317)" opacity="0.1"/>
  <path id="Path_36527" data-name="Path 36527" d="M954.707,635.115s-7.148-1.473-9.068-.477-5.688,1.777-6.257,2.346-1.991.142-3.271,3.484-1.422,6.754-3.057,8.319-2.489,2.631-2.559,3.768.213,1.422-.427,1.777-1.564,1.849-1.28,2.417,14.789,13.082,14.789,13.082.711,4.764,1.351,5.972-.711,17.846-2.133,18.983,9.6,1.033,9.6,1.033.5-10.916.924-11.484-.284-12.229-.284-12.229-.071-9.954.853-12.584.82-11.376.82-11.376.817-5.248,1.81-6.47S954.707,635.115,954.707,635.115Z" transform="translate(-429.014 -317.146)" fill="#4d66f0"/>
  <path id="Path_36528" data-name="Path 36528" d="M973.962,618.549a14.368,14.368,0,0,1,.825,4.8,16.305,16.305,0,0,0,18.71-7.393,40.3,40.3,0,0,1-.693-5.3S970.905,609.52,973.962,618.549Z" transform="translate(-449.018 -306.603)" opacity="0.1"/>
  <path id="Path_36529" data-name="Path 36529" d="M954.72,591.6a16.273,16.273,0,1,0,.354-3.385,16.272,16.272,0,0,0-.354,3.385Z" transform="translate(-440.582 -290.891)" fill="#ee8e9e"/>
  <path id="Path_36530" data-name="Path 36530" d="M924.412,672.592,920.5,673.8a2.028,2.028,0,0,1-.782,2.133,2.379,2.379,0,0,0-1,2.133s-.427,1.564-1.422,1.92-1.635,2.7-1.635,2.7l-3.271,3.768s-1.209,1-1,1.493-1.28.64-1.28.64l.782,12.656,6.754,1.28,4.195-.427,3.413-1.28,2.986-1.777,1.351-3.484,5.972-9.1Z" transform="translate(-420.726 -334.197)" fill="#4d66f0"/>
  <path id="Path_36531" data-name="Path 36531" d="M897.928,696.994s-8.674-12.514-15.144-5.759,2.631,17.7,4.764,17.348,12.3-.924,12.3-.924Z" transform="translate(-407.538 -341.606)" fill="#ee8e9e"/>
  <rect id="Rectangle_2701" data-name="Rectangle 2701" width="45.4" height="35.251" rx="1.544" transform="translate(471.471 329.877) rotate(27.036)" fill="#3f3d56"/>
  <rect id="Rectangle_2702" data-name="Rectangle 2702" width="38.161" height="28.756" transform="translate(473.279 334.37) rotate(27.036)" fill="#6c63ff"/>
  <circle id="Ellipse_215" data-name="Ellipse 215" cx="0.626" cy="0.626" r="0.626" transform="translate(464.795 345.874)" fill="#e6e8ec"/>
  <circle id="Ellipse_216" data-name="Ellipse 216" cx="1.032" cy="1.032" r="1.032" transform="translate(501.181 364.32)" fill="#e6e8ec"/>
  <path id="Path_36532" data-name="Path 36532" d="M901.791,704.426c-.07,9.385,19.34,11.375,19.34,11.375l4.959.787,2.221.352.926-9.172s-1.018-.151-2.289-.448c-1.879-.437-4.313-1.194-4.823-2.255C921.271,703.289,901.861,695.041,901.791,704.426Z" transform="translate(-417.017 -346.407)" fill="#ee8e9e"/>
  <path id="Path_36533" data-name="Path 36533" d="M955.358,588.22a1.93,1.93,0,0,1,1.19.533c.55.582.58,1.615,1.294,1.973a1.443,1.443,0,0,0,.849.1c1.89-.267,2.984-2.4,4.8-2.988a4.823,4.823,0,0,1,3.18.273,2.368,2.368,0,0,1,1.054.676c.608.787.181,1.943.463,2.894.39,1.32,1.967,1.845,3.332,2.018s2.9.269,3.814,1.3a3.457,3.457,0,0,1,.678,2.751,2.163,2.163,0,0,0-.009,1.018c.375,1.066,2.221.909,2.7.066.352-.612.245-1.12,1.075-1.291a3.535,3.535,0,0,1,1.74.3,12.776,12.776,0,0,0,4.5.691,16.284,16.284,0,1,0-30.666-10.313Z" transform="translate(-440.866 -290.893)" opacity="0.1"/>
  <path id="Path_36534" data-name="Path 36534" d="M972.8,591.388a2.185,2.185,0,0,1,.009-1.018,3.458,3.458,0,0,0-.677-2.751c-.912-1.031-2.45-1.128-3.815-1.3s-2.94-.7-3.331-2.016c-.282-.951.145-2.109-.462-2.894a2.347,2.347,0,0,0-1.053-.676,4.831,4.831,0,0,0-3.181-.275c-1.815.587-2.91,2.723-4.8,2.989a1.445,1.445,0,0,1-.849-.1c-.715-.358-.746-1.39-1.295-1.972-.863-.914-2.5-.324-3.559-1a3.281,3.281,0,0,1-1.148-2.105,10.24,10.24,0,0,1-.315-4.715c.619-2.645,2.981-4.458,4.49-6.716,1.407-2.1,2.2-4.77,4.31-6.163,2.077-1.369,4.827-1.077,7.212-.37a21.127,21.127,0,0,0,3.378.886c1.922.237,3.851-.286,5.787-.353a12.437,12.437,0,0,1,7.642,2.323,4.193,4.193,0,0,1,1.247,1.262,6.473,6.473,0,0,1,.555,2.264,11.551,11.551,0,0,0,1.5,4.159c.6,1,1.348,1.907,1.887,2.94a4.521,4.521,0,0,1,.51,3.368c-.183.587-.542,1.114-.678,1.714-.316,1.389.6,2.715,1.222,4a7.5,7.5,0,0,1,.831,3.789,4.778,4.778,0,0,1-1.7,3.41,6.122,6.122,0,0,1-3.6,1.092,12.789,12.789,0,0,1-4.592-.689,3.556,3.556,0,0,0-1.74-.3c-.83.17-.724.678-1.075,1.291C975.017,592.3,973.174,592.453,972.8,591.388Z" transform="translate(-437.66 -283.941)" fill="#3f3d56"/>
  <path id="Path_36535" data-name="Path 36535" d="M971.628,764.945l9.172-7.18,14.434-14.22s-1.941-.094-4.763-.215a3.117,3.117,0,0,0-1.007,1.943c-.071,1.738-3.9.122-5.891,1.115s-11.731,13.461-13.438,13.38-3.056-.866-3.769.344c-.015.028-.034.053-.051.079a2.024,2.024,0,0,1-1.083.644Z" transform="translate(-445.261 -365.69)" opacity="0.1"/>
  <path id="Path_36536" data-name="Path 36536" d="M943.44,760.509l4.609,14.711.723,2.31,2.193-.6,4.84-1.329,21.549-5.919a18.7,18.7,0,0,0,7.756-2.069,23.5,23.5,0,0,1,13.391-2.919c2.849.267,6.016-.963,8.645-5.819,0,0,5.972-17.631-9.1-22.68s-15.793,2.683-15.793,2.683-.077.043-.2.126c-.584.373-2.225,1.546-2.284,2.971-.07,1.738-3.9.122-5.891,1.116s-11.731,13.461-13.438,13.38-3.056-.866-3.769.343c-.015.028-.034.053-.051.079-.527.725-2.11.894-3.157.923-.572.017-.986-.008-.986-.008l-.135.04-1.094.326Z" transform="translate(-435.56 -361.751)" fill="#65617d"/>
  <path id="Path_36537" data-name="Path 36537" d="M945.589,722.448l2.22.352.926-9.172s-1.018-.151-2.289-.448C946.783,714.46,946.02,719.406,945.589,722.448Z" transform="translate(-436.517 -352.267)" opacity="0.1"/>
  <path id="Path_36538" data-name="Path 36538" d="M1003.989,652.462s6.612-1.92,4.977,16.85A52.473,52.473,0,0,1,995.1,699.956s-14.077,6.186-20.405,5.19-10.949-1.209-10.949-1.209a16.072,16.072,0,0,0-6.4-1.706c-3.555-.142-11.021-2.346-11.163-3.057s1.849-11.162,1-11.945c0,0,9.954.408,10.949,1.128s2.417.2,3.484,0,4.337-3.048,10.807-.559c0,0,2.2.213,3.057-.356a3.052,3.052,0,0,1,2.224-.142,6.253,6.253,0,0,0,1.544-.782c.213-.285,1.92,0,1.92,0a.756.756,0,0,0,1.066-.5,4.652,4.652,0,0,1,1-1.564s1.92-10.807,5.546-14.86a2.316,2.316,0,0,0,.782-2.062C989.271,666.4,995.456,650.186,1003.989,652.462Z" transform="translate(-436.779 -325.138)" opacity="0.1"/>
  <path id="Path_36539" data-name="Path 36539" d="M1003.669,649.862s6.612-1.92,4.977,16.85a52.474,52.474,0,0,1-13.865,30.644s-14.078,6.186-20.405,5.19-10.949-1.209-10.949-1.209a16.076,16.076,0,0,0-6.4-1.706c-3.555-.142-11.021-2.346-11.163-3.057s1.849-11.162,1-11.945c0,0,9.954.408,10.949,1.128s2.417.2,3.484,0,4.337-3.048,10.807-.559c0,0,2.2.213,3.057-.355a3.051,3.051,0,0,1,2.224-.142,6.254,6.254,0,0,0,1.544-.782c.213-.284,1.92,0,1.92,0a.756.756,0,0,0,1.067-.5,4.647,4.647,0,0,1,1-1.564s1.92-10.807,5.546-14.86a2.316,2.316,0,0,0,.782-2.062C988.951,663.8,995.141,647.586,1003.669,649.862Z" transform="translate(-436.636 -323.98)" fill="#4d66f0"/>
  <path id="Path_36540" data-name="Path 36540" d="M957.5,776.923l9.392,11.362a.29.29,0,0,0,.06-.066c.071-.213.994-2.632.781-2.773s-1.847-3.7-5.119-5.192A9.721,9.721,0,0,1,958.6,776.6Z" transform="translate(-441.821 -380.501)" opacity="0.1"/>
  <path id="Path_36541" data-name="Path 36541" d="M957.576,802.551c.64.371,1.026.591,1.026.591s2.38-1.911,4.752-3.835c2.34-1.9,4.669-3.807,4.705-3.914.07-.213.994-2.632.781-2.773-.111-.075-.6-1.058-1.5-2.2-6.367-1.783-2.312,2.636-1.773,2.839,0,0-7.749-1.779-8.176,6.663a9.907,9.907,0,0,0,.181,2.628Z" transform="translate(-441.764 -386.467)" opacity="0.1"/>
  <path id="Path_36542" data-name="Path 36542" d="M965.944,806.128l1.352.783,13.721.354a27.611,27.611,0,0,0,4.857,2.338,4.318,4.318,0,0,0,.689.151,31.388,31.388,0,0,0,3.825.073c1.051-.028,1.864-.073,1.864-.073s-.648-17.3-1.139-19.126c-.235-.87-1.385-.678-2.519-.243a16.651,16.651,0,0,0-2.457,1.244s-5.83.565-6.755,1.067-3.553-.288-5.189,0-4.55-1.924-4.55-1.924c-7.964-2.63-3.485,2.276-2.916,2.489,0,0-7.749-1.779-8.176,6.663S965.944,806.128,965.944,806.128Z" transform="translate(-442.28 -386.467)" fill="#3f3d56"/>
  <path id="Path_36543" data-name="Path 36543" d="M1007.635,799.461c.149,3.581,2.941,8.028,4.607,10.381,1.052-.028,1.864-.073,1.864-.073s-.648-17.3-1.139-19.126c-.235-.87-1.384-.678-2.519-.243C1009.072,792.981,1007.519,796.572,1007.635,799.461Z" transform="translate(-464.137 -386.482)" fill="#565387"/>
  <path id="Path_36544" data-name="Path 36544" d="M1007.635,799.461c.149,3.581,2.941,8.028,4.607,10.381,1.052-.028,1.864-.073,1.864-.073s-.648-17.3-1.139-19.126c-.235-.87-1.384-.678-2.519-.243C1009.072,792.981,1007.519,796.572,1007.635,799.461Z" transform="translate(-464.137 -386.482)" opacity="0.1"/>
  <path id="Path_36545" data-name="Path 36545" d="M1003.234,799.936c.945,3.458.934,7.335,2.44,9.682a4.328,4.328,0,0,0,.689.151,31.43,31.43,0,0,0,3.824.073c1.052-.028,1.864-.073,1.864-.073s-.648-17.3-1.139-19.126c-.235-.87-1.384-.678-2.519-.243a16.674,16.674,0,0,0-2.457,1.243S1002.024,795.508,1003.234,799.936Z" transform="translate(-462.077 -386.482)" opacity="0.05"/>
  <path id="Path_36546" data-name="Path 36546" d="M918.089,744.653s6.815,2.215,12.591,10.073Z" transform="translate(-424.273 -366.279)" opacity="0.1"/>
  <g id="Group_27872" data-name="Group 27872" transform="translate(510.475 288.174)" opacity="0.1">
    <path id="Path_36547" data-name="Path 36547" d="M1017.7,590.877c-.013.05-.026.1-.041.151a4.98,4.98,0,0,1-.237.593A4.344,4.344,0,0,1,1017.7,590.877Z" transform="translate(-978.971 -585.991)"/>
    <path id="Path_36548" data-name="Path 36548" d="M948.281,583.507a6.482,6.482,0,0,1,.53-1.437c-.037.122-.074.244-.1.37a10.243,10.243,0,0,0,.315,4.715,3.28,3.28,0,0,0,1.148,2.105c1.058.679,2.7.089,3.559,1,.549.582.58,1.614,1.295,1.972a1.445,1.445,0,0,0,.849.1c1.889-.267,2.984-2.4,4.8-2.99a4.83,4.83,0,0,1,3.181.275,2.348,2.348,0,0,1,1.053.676c.607.785.181,1.943.463,2.894.391,1.32,1.966,1.843,3.331,2.016s2.9.269,3.815,1.3a3.457,3.457,0,0,1,.677,2.751,2.189,2.189,0,0,0-.009,1.018c.377,1.066,2.22.908,2.7.065.352-.613.245-1.121,1.075-1.291a3.555,3.555,0,0,1,1.74.3,12.789,12.789,0,0,0,4.592.689,6.123,6.123,0,0,0,3.6-1.092,4.25,4.25,0,0,0,1.106-1.344,4.548,4.548,0,0,1-1.533,2.411,6.122,6.122,0,0,1-3.6,1.092,12.782,12.782,0,0,1-4.592-.689,3.556,3.556,0,0,0-1.74-.3c-.83.17-.724.678-1.075,1.291-.483.842-2.326,1-2.7-.065a2.189,2.189,0,0,1,.008-1.019,3.458,3.458,0,0,0-.677-2.751c-.912-1.032-2.45-1.128-3.815-1.3s-2.94-.7-3.331-2.016c-.282-.951.144-2.109-.463-2.894a2.345,2.345,0,0,0-1.053-.676,4.829,4.829,0,0,0-3.181-.275c-1.815.587-2.91,2.723-4.8,2.989a1.445,1.445,0,0,1-.849-.1c-.715-.359-.746-1.39-1.295-1.972-.863-.914-2.5-.323-3.559-1a3.281,3.281,0,0,1-1.148-2.105A10.246,10.246,0,0,1,948.281,583.507Z" transform="translate(-948.118 -582.071)"/>
  </g>
  <path id="Path_36549" data-name="Path 36549" d="M1015.317,684.5c-1.3,1.759-2.789,3.385-3.942,5.245a9.976,9.976,0,0,0-1.728,6.207c1.192-1.224,1.739-2.915,2.491-4.449,1.274-2.6,3.178-4.8,4.783-7.191.307-.458,2.271-3.093,1.277-3.219C1017.381,680.986,1015.761,683.9,1015.317,684.5Z" transform="translate(-465.017 -337.979)" opacity="0.1"/>
  <ellipse id="Ellipse_217" data-name="Ellipse 217" cx="67.13" cy="63.246" rx="67.13" ry="63.246" transform="translate(105.688 227.385)" fill="#f1f1f1"/>
  <path id="Path_36550" data-name="Path 36550" d="M385.721,603.912l-55.535-16.557a84.816,84.816,0,0,1-36.9,8.391c-43.44,0-78.781-32.354-78.781-72.123S249.841,451.5,293.281,451.5s78.781,32.354,78.781,72.123c0,20.076-9.217,39.342-25.312,52.969Zm-55.634-17.744.208.062L379.484,600.9l-34.558-24.227.559-.464c16.185-13.44,25.467-32.606,25.467-52.581,0-39.157-34.843-71.014-77.671-71.014s-77.671,31.856-77.671,71.014,34.843,71.014,77.671,71.014a83.675,83.675,0,0,0,36.612-8.373Z" transform="translate(-111.031 -235.766)" fill="#2f2e41"/>
  <circle id="Ellipse_218" data-name="Ellipse 218" cx="6.103" cy="6.103" r="6.103" transform="translate(149.794 285.916)" fill="#6c63ff"/>
  <circle id="Ellipse_219" data-name="Ellipse 219" cx="6.103" cy="6.103" r="6.103" transform="translate(167.548 285.916)" fill="#6c63ff"/>
  <circle id="Ellipse_220" data-name="Ellipse 220" cx="6.103" cy="6.103" r="6.103" transform="translate(185.301 285.916)" fill="#6c63ff"/>
  <path id="Path_36551" data-name="Path 36551" d="M290.682,333.46c3.822,2.561,9.617,1.341,9.617,1.341s8.754-4.146,11.343-4.146,8.877-2.561,8.877-2.561l-.212-1.727-.642-5.2c3.985,3.105,8.413,2.034,10.595,1.807,2.343-.244,14.855-7.682,16.058-8.17a3.182,3.182,0,0,0,1.1-1.107h0a28.177,28.177,0,0,0,2.118-3.87h0c.785-.689,1.356-1.244,1.316-1.364a8.611,8.611,0,0,1,.766-2.048,10.031,10.031,0,0,0,3.8-1.367,3.445,3.445,0,0,0,.525-.532,3.375,3.375,0,0,0,.708-2.151s12.206-12.316,10.6-17.437,3.945-5.243,3.945-5.243,8.508-3.658,9.691-5.853c.73-1.351,7.109-4.314,11.913-6.4l.59-.255c1.867,4.085,11.328.942,13.192-.786,1.973-1.829,7.768-2.683,7.768-2.683s.247-23.9,2.1-26.949c.878-1.446,1.09-6.165,1.068-10.724q0-.243,0-.485c2.591-.505,8.751-1.676,11.613-1.961a11.119,11.119,0,0,0,5.153-2.41c.111.137.171.215.171.215a3.56,3.56,0,0,0,1.577.259,2.44,2.44,0,0,0,1.382-.259c1.11-.61,5.179-1.829,6.658-2.439s-.247-5-1.356-5.853-1.85-1.951-1.233-2.439-1.48-1.707-2.713-1.951a40.124,40.124,0,0,1-4.932-1.951s-1.356-2.8-3.576-2.8-5.178-2.195-5.178-2.195c-.123-.976-2.466-1.1-2.466-1.1s-8.877-6.829-10.357-5.975-5.548-1.341-5.548-1.341-4.99.559-6.165-.36v-.006a1.4,1.4,0,0,0-.3-.828c-.266-.824-1.555-1.956-2.806-2.9a10.982,10.982,0,0,0,.143-1.762c0-.256-.01-.512-.027-.763,0-.042-.008-.084-.012-.126l.174-1.717a3.559,3.559,0,0,1,.431-1.615c.208-.321.514-.574.746-.88a2.444,2.444,0,0,0,.152-.228c.013-.021.024-.043.036-.064q.05-.091.093-.184c.009-.021.019-.042.028-.063a2.785,2.785,0,0,0,.159-.52c0-.014.005-.028.008-.042q.023-.121.037-.244l0-.034a5.249,5.249,0,0,0-.278-2.094,14.089,14.089,0,0,1-1.01-3.467,10.682,10.682,0,0,0-.062-1.787c-.3-1.331-1.669-2.182-2.987-2.734a16.631,16.631,0,0,1-4.206-2.734c-1.245-.965-3.3-.481-4.864-.38a42.479,42.479,0,0,0-10.473,2.421,10.41,10.41,0,0,0-3.659,1.816,4.031,4.031,0,0,0-1.339,2.259h0v0a2.841,2.841,0,0,0-.041.616c0,.018,0,.037,0,.055q.008.118.027.236c0,.026.008.051.012.077a2.506,2.506,0,0,0,.068.279l0,.007c.142.449.406.857.558,1.3a2.815,2.815,0,0,1,.084.3l.007.033c.021.1.038.2.05.294h0a12.611,12.611,0,0,1-.454,3.4c-.026.16-.043.323-.055.486h0v.006a5.814,5.814,0,0,0,.171,1.947l.005.022c.021.078.046.155.071.231.011.033.021.067.032.1.023.065.049.129.075.193.017.043.034.086.053.128s.052.112.079.168.047.094.071.139.056.1.086.149.059.1.09.143.06.09.092.133.071.095.108.141.064.08.1.118.085.092.129.137.067.069.1.1.1.089.154.132c.035.028.068.058.1.085.061.046.126.088.191.13.031.02.06.042.092.061a3.228,3.228,0,0,0,.311.163c.708.323,1.6.438,2.028,1.059a1.387,1.387,0,0,1,.208.486c0,.042,0,.084,0,.126v.107c0,.361.025.717.062,1.068a4.084,4.084,0,0,0,.032.578,1.668,1.668,0,0,0,.121.419,11.061,11.061,0,0,0,3.739,6.28c.036.188.078.408.126.656a12.32,12.32,0,0,1-3.587,1.88c-2.959.866-7.151,4.863-7.151,4.863s-2.084,15-2.582,16.828a81.292,81.292,0,0,0-.87,8.9,20.432,20.432,0,0,1-1.233,4.39c-.523,1.032-.429,5.463,1.033,8.155a6.883,6.883,0,0,1-.909,1.478c-2.959,3.414-11.837,3.292-14.8,3.292-2.726,0-3.567,1.652-3.682,1.913-5.417,1.538-22.964,6.547-25.046,7.457-2.466,1.078-3.822,11.726-3.822,11.726s-5.178,17.682-4.932,20.008-1.726,8.77-1.726,8.77,0,7.295-.838,7.79a.065.065,0,0,1-.025.015c-.863.366-.74,3.9-.74,3.9s.634.184,1.625.434a28.333,28.333,0,0,1-2,6.062c-.384-.485-.758-.69-.984-.122-.617,1.551-9.864,12.526-12.207,12.526a7.1,7.1,0,0,0-4.175,2.149C289.247,330.38,288.682,332.121,290.682,333.46ZM333.1,269.929a102.81,102.81,0,0,0,21.7-.744,24.923,24.923,0,0,1-1.6,4.28,43.324,43.324,0,0,0-2.836,9.633c0,1.463-3.329,14.023-4.315,14.633a3.65,3.65,0,0,0-1.073,1.551,14.564,14.564,0,0,0-.654,1.863c.014.319.044.618.085.9-.737.676-1.516,1.382-2.211,2.009h0a48.01,48.01,0,0,0-5.889,3.795c-1.48,1.341-8.384,2.985-8.384,2.985a42.791,42.791,0,0,0-4.961,2.532c-2.139,1.291-4.281,2.928-4.839,4.547.241-2.725.636-6.008.9-8.1.134,0,.266-.008.394-.016,3.455-.215,2.939-3.512,2.757-4.329-.025-.117-.044-.183-.044-.183,2.466-2.683,8.014-22.681,7.275-24.876s.617-4.146.91-4.146.693-2.439.076-3.78,2.712-2.561,2.712-2.561Zm84.751-53.8c-.218.053-.436.105-.654.161-.006-.092-.008-.142-.008-.142s.246,0,.662-.02Zm-35.825-18.4c-.1.122-.2.242-.3.356-.041.045-.084.088-.126.131,0-.229,0-.456,0-.677q.213.1.431.189ZM369.67,221.39l.045.686s-.067.418-.192,1.136Zm56.662-6.815-2.15.371c.305-.115.605-.241.9-.379a2.052,2.052,0,0,1,.686-.186,3.737,3.737,0,0,1,.8.172,1.682,1.682,0,0,0-.233.023Z" transform="translate(-144.366 -109.374)" fill="url(#linear-gradient-3)"/>
  <path id="Path_36552" data-name="Path 36552" d="M394.162,407.99s-2.478,5.127-2.357,5.49-5.325,4.72-5.325,4.72l-5.93-4.236.605-2.9s6.656-6,7.14-6.69S394.162,407.99,394.162,407.99Z" transform="translate(-184.958 -214.749)" fill="#be6f72"/>
  <path id="Path_36553" data-name="Path 36553" d="M343.481,429.2c4.115,3.994,8.955,2.783,11.254,2.541s14.58-7.624,15.761-8.108a3.144,3.144,0,0,0,1.077-1.1h0a28.087,28.087,0,0,0,2.079-3.841c-.082.022-4.107,1.172-5.124,0,0,0-1.694-2.077-2.057-2.077s-.029-3.645-.029-3.645a47.055,47.055,0,0,0-5.78,3.766c-1.452,1.331-8.229,2.963-8.229,2.963a41.8,41.8,0,0,0-4.87,2.512C344.357,424.171,341.141,426.932,343.481,429.2Z" transform="translate(-168.097 -218.612)" fill="#3f3d56"/>
  <path id="Path_36554" data-name="Path 36554" d="M343.481,436.618c4.115,3.994,8.955,2.783,11.254,2.541s14.58-7.624,15.761-8.108a3.142,3.142,0,0,0,1.077-1.1c-1.433-.854-10.787,5.092-13.406,6.181s-9.241.484-12.992-1.089c-1.873-.784.024-3.2,2.391-5.417C344.357,431.586,341.141,434.348,343.481,436.618Z" transform="translate(-168.097 -226.028)" opacity="0.1"/>
  <path id="Path_36555" data-name="Path 36555" d="M335.286,418.135s-1.724,12.949-1.285,14.643-10.816-5.809-10.816-5.809,3.938-8.114,2.783-9.978S335.286,418.135,335.286,418.135Z" transform="translate(-159.418 -220.13)" fill="#be6f72"/>
  <path id="Path_36556" data-name="Path 36556" d="M325.578,370.257s7.019,2.057,10.891,1.815c3.391-.213,2.885-3.485,2.706-4.3-.024-.116-.044-.182-.044-.182,2.42-2.662,7.866-22.509,7.14-24.687s.605-4.115.893-4.115.68-2.42.075-3.751S349.9,332.5,349.9,332.5a99.813,99.813,0,0,0,21.3-.738,24.916,24.916,0,0,1-1.573,4.248,43.359,43.359,0,0,0-2.783,9.56c0,1.452-3.267,13.917-4.235,14.522a3.623,3.623,0,0,0-1.053,1.539,14.568,14.568,0,0,0-.641,1.849c.363,8.108,9.56,4.962,10.891,3.872a3.3,3.3,0,0,0,1.21-2.662s11.98-12.223,10.407-17.305,3.872-5.2,3.872-5.2,8.35-3.631,9.512-5.809c.716-1.341,6.978-4.281,11.692-6.348,2.953-1.295,5.3-2.244,5.3-2.244l-1.963-7.038-1.547-5.547-2.912-1.094-9.311-3.5-16.717-2.3-1.532.2-16.24,2.1s-23.719,6.777-26.139,7.847-3.751,11.637-3.751,11.637-5.083,17.547-4.841,19.856-1.694,8.7-1.694,8.7,0,7.239-.823,7.73a.066.066,0,0,1-.024.015C325.457,366.748,325.578,370.257,325.578,370.257Z" transform="translate(-160.481 -172.011)" fill="#4d66f0"/>
  <path id="Path_36557" data-name="Path 36557" d="M369.427,344.246a99.811,99.811,0,0,0,21.3-.738c.726-2.287,10.9-8.58,10.9-8.58C393.279,332.87,369.427,344.246,369.427,344.246Z" transform="translate(-180.006 -183.756)" opacity="0.1"/>
  <path id="Path_36558" data-name="Path 36558" d="M389.276,406.279c.363,8.108,9.56,4.962,10.891,3.872a3.4,3.4,0,0,0,.516-.528c-3.214,1.184-8.911,2.1-10.765-5.194A14.563,14.563,0,0,0,389.276,406.279Z" transform="translate(-188.842 -214.81)" fill="#444053"/>
  <path id="Path_36559" data-name="Path 36559" d="M325.578,416.859s7.019,2.057,10.891,1.815c3.391-.213,2.885-3.485,2.706-4.3-3.553-.111-9.671-.445-12.847-1.406a.066.066,0,0,1-.024.015C325.457,413.35,325.578,416.859,325.578,416.859Z" transform="translate(-160.481 -218.612)" fill="#444053"/>
  <path id="Path_36560" data-name="Path 36560" d="M389.276,406.279c.363,8.108,9.56,4.962,10.891,3.872a3.4,3.4,0,0,0,.516-.528c-3.214,1.184-8.911,2.1-10.765-5.194A14.563,14.563,0,0,0,389.276,406.279Z" transform="translate(-188.842 -214.81)" opacity="0.1"/>
  <path id="Path_36561" data-name="Path 36561" d="M325.578,416.859s7.019,2.057,10.891,1.815c3.391-.213,2.885-3.485,2.706-4.3-3.553-.111-9.671-.445-12.847-1.406a.066.066,0,0,1-.024.015C325.457,413.35,325.578,416.859,325.578,416.859Z" transform="translate(-160.481 -218.612)" opacity="0.1"/>
  <path id="Path_36562" data-name="Path 36562" d="M293.361,450.074c3.751,2.541,9.439,1.331,9.439,1.331s8.592-4.115,11.133-4.115,8.713-2.541,8.713-2.541l-.208-1.714-1-8.21s-9.425-.242-9.8-1.089c0,0-1.694-4.168-2.3-2.629s-9.681,12.431-11.981,12.431a6.945,6.945,0,0,0-4.1,2.132C291.953,447.017,291.4,448.745,293.361,450.074Z" transform="translate(-145.569 -226.535)" fill="#3f3d56"/>
  <path id="Path_36563" data-name="Path 36563" d="M353.067,336.654s7.866,4.962,5.688,6.051S353.067,336.654,353.067,336.654Z" transform="translate(-172.722 -184.635)" opacity="0.1"/>
  <path id="Path_36564" data-name="Path 36564" d="M347.178,353.886s6.777,6.434,4.236,6.605S347.178,353.886,347.178,353.886Z" transform="translate(-170.1 -192.307)" opacity="0.1"/>
  <path id="Path_36565" data-name="Path 36565" d="M334.09,390.75s3.44,6.467,2.144,7.59S334.09,390.75,334.09,390.75Z" transform="translate(-164.273 -208.719)" opacity="0.1"/>
  <path id="Path_36566" data-name="Path 36566" d="M402.3,399.122c-1.21,1.21,11.5-3.994,8.592-4.236S402.3,399.122,402.3,399.122Z" transform="translate(-194.604 -210.556)" opacity="0.1"/>
  <path id="Path_36567" data-name="Path 36567" d="M448.17,225.749l.4-.06c1.505-.23,6.961-1.087,11.855-2.149,1.193-.259,2.35-.53,3.41-.808,3.749-.983,6.264-2.043,4.661-2.912a8.583,8.583,0,0,1-3.831-5.046c-.056-.177-.109-.349-.157-.518a13.309,13.309,0,0,1-.489-2.786s-13.675-4.841-11.012,0a4.588,4.588,0,0,1-.806,5.671,10.618,10.618,0,0,1-2.945,2.2Z" transform="translate(-215.062 -127.944)" fill="#be6f72"/>
  <path id="Path_36568" data-name="Path 36568" d="M450.6,232.172s-4.891,3.509-9.888.605-11.531,25.655-11.531,25.655l-6.777,16.7s-4.39,3.63,1.072,5.2,17.583-1.573,20.66,3.025,8.9,5.325,9.5,5.325,2.9-17.305,2.9-17.305l.6-25.05Z" transform="translate(-202.847 -138.119)" opacity="0.1"/>
  <path id="Path_36569" data-name="Path 36569" d="M423.91,278.591c5.463,1.573,17.583-1.573,20.66,3.025a11.817,11.817,0,0,0,5.206,4.19,13.632,13.632,0,0,0,4.294,1.135c.08,0,.194-.317.327-.867.852-3.5,2.575-16.439,2.575-16.439l.6-25.05-5.751-12.457-.784-1.7a10.418,10.418,0,0,1-2.493,1.213,8.774,8.774,0,0,1-7.4-.607c-1.467-.852-3.064,1-4.591,4.054-3.676,7.343-6.939,21.6-6.939,21.6l-6.777,16.7a5.838,5.838,0,0,0-.46.441C421.414,274.842,419.611,277.354,423.91,278.591Z" transform="translate(-203.042 -137.342)" fill="#f3f5f9"/>
  <path id="Path_36570" data-name="Path 36570" d="M471.573,274a31.5,31.5,0,0,0-.162,6.373,74.68,74.68,0,0,0,1.138,9,3.448,3.448,0,0,0,.148.549c2.953-1.295,5.3-2.244,5.3-2.244l-1.963-7.038c.852-3.5,2.575-16.439,2.575-16.439l.6-25.05-5.751-12.457c3.749-.983,6.264-2.043,4.661-2.912a8.873,8.873,0,0,1-3.989-5.564,20.278,20.278,0,0,1-3.439,3.7l-.075.063-.436,4.223-.133,1.3-.278,2.694s1.331,31.827,2.3,33.642.484,5.325-.363,9.439C471.652,273.508,471.611,273.748,471.573,274Z" transform="translate(-224.677 -131.906)" opacity="0.1"/>
  <path id="Path_36571" data-name="Path 36571" d="M472.573,266.674c-.847,4.115-.121,10.891.847,16.095s11.254,1.815,13.191,0,7.624-2.662,7.624-2.662.242-23.719,2.057-26.744c.862-1.435,1.07-6.119,1.048-10.642-.017-4.064-.218-8-.293-9.33-.019-.31-.029-.479-.029-.479s7.866-13.312,7.745-14.28-2.42-1.089-2.42-1.089-8.713-6.777-10.165-5.93-5.446-1.331-5.446-1.331-5.061.574-6.106-.4a.532.532,0,0,1-.186-.445c.119-1.549-5.158-4.858-5.32-4.959,4.446,4-2.745,10.165-3.56,10.84l-.075.063-.847,8.215s1.331,31.827,2.3,33.642S473.42,262.559,472.573,266.674Z" transform="translate(-225.065 -125.788)" fill="#3e4664"/>
  <circle id="Ellipse_221" data-name="Ellipse 221" cx="0.605" cy="0.605" r="0.605" transform="translate(247.372 105.707)" fill="#444053"/>
  <path id="Path_36572" data-name="Path 36572" d="M472.736,216.188l3.676,3.558,5.39-8.994a.532.532,0,0,1-.186-.445c.119-1.549-5.158-4.858-5.32-4.959C480.742,209.348,473.552,215.512,472.736,216.188Z" transform="translate(-225.999 -126.177)" opacity="0.1"/>
  <circle id="Ellipse_222" data-name="Ellipse 222" cx="0.605" cy="0.605" r="0.605" transform="translate(248.582 125.07)" opacity="0.1"/>
  <circle id="Ellipse_223" data-name="Ellipse 223" cx="0.605" cy="0.605" r="0.605" transform="translate(248.582 124.828)" fill="#444053"/>
  <path id="Path_36573" data-name="Path 36573" d="M472.3,215.315l3.676,3.558,5.39-8.994a.532.532,0,0,1-.186-.445c.119-1.549-5.158-4.858-5.32-4.959C480.305,208.475,473.115,214.64,472.3,215.315Z" transform="translate(-225.805 -125.788)" fill="#67647e"/>
  <rect id="Rectangle_2703" data-name="Rectangle 2703" width="8.422" height="17.796" rx="1.699" transform="matrix(-1, -0.023, 0.023, -1, 251.095, 123.606)" fill="#3f3d56"/>
  <rect id="Rectangle_2704" data-name="Rectangle 2704" width="8.422" height="17.796" rx="1.699" transform="matrix(-1, -0.023, 0.023, -1, 251.095, 123.606)" opacity="0.1"/>
  <rect id="Rectangle_2705" data-name="Rectangle 2705" width="8.422" height="17.796" rx="1.699" transform="matrix(-1, -0.023, 0.023, -1, 251.139, 124)" fill="#3f3d56"/>
  <circle id="Ellipse_224" data-name="Ellipse 224" cx="1.323" cy="1.323" r="1.323" transform="translate(246.035 109.992)" fill="#67647e"/>
  <path id="Path_36574" data-name="Path 36574" d="M391.676,271.946c3.025,1.331,22.872-2.178,25.776-3.025s7.14-7.382,5.083-12.1.726-9.318.726-9.318,4.357-9.318,5.325-11.133,2.987-7.1,3.267-7.987a.719.719,0,0,0-.172-.554,21.116,21.116,0,0,0-3.822-3.318c-.854.31-.961-2.137-.927-3.935.019-1.007.08-1.81.08-1.81s-.4.409-1.058.966c-.24.2-.513.424-.816.653a12.531,12.531,0,0,1-3.814,2.084c-2.9.859-7.019,4.826-7.019,4.826l1.21,18.585s-2.783,17.477-5.688,20.865-11.617,3.267-14.522,3.267S391.676,271.946,391.676,271.946Z" transform="translate(-189.911 -132.149)" opacity="0.1"/>
  <path id="Path_36575" data-name="Path 36575" d="M391.239,270.637c3.025,1.331,22.872-2.178,25.776-3.025s7.14-7.382,5.083-12.1.726-9.318.726-9.318,4.357-9.318,5.325-11.133,2.987-7.1,3.267-7.987a.719.719,0,0,0-.172-.554,21.118,21.118,0,0,0-3.822-3.318c-.854.31-.961-2.137-.927-3.935.019-1.007.08-1.81.08-1.81s-.4.409-1.058.966c-.24.2-.513.424-.816.653a12.529,12.529,0,0,1-3.814,2.084c-2.9.859-7.019,4.826-7.019,4.826l1.21,18.585s-2.783,17.477-5.688,20.865S397.774,268.7,394.87,268.7,391.239,270.637,391.239,270.637Z" transform="translate(-189.716 -131.566)" fill="#3e4664"/>
  <path id="Path_36576" data-name="Path 36576" d="M450.57,218.325s.114.639.305,1.619c.651,3.323,2.2,10.579,3.325,10.3.8-.2,2.161-1.624,3.217-2.854a21.112,21.112,0,0,0-3.822-3.318c-.854.31-.961-2.137-.927-3.935l-.978-.845Z" transform="translate(-216.131 -131.954)" opacity="0.1"/>
  <path id="Path_36577" data-name="Path 36577" d="M451.006,217.453s.114.639.3,1.619c.651,3.323,2.2,10.579,3.325,10.3.8-.2,2.161-1.624,3.217-2.854a21.115,21.115,0,0,0-3.822-3.318c-.854.31-.961-2.137-.927-3.935l-.978-.845Z" transform="translate(-216.325 -131.566)" fill="#67647e"/>
  <path id="Path_36578" data-name="Path 36578" d="M432.778,275.816s6.051-1.21,7.745-3.872,13.22-4.962,11.813-2.178-11.813,11.891-11.813,11.891l-4.509,6.458L430,286.586l-2.535-4.931Z" transform="translate(-205.842 -154.293)" fill="#be6f72"/>
  <path id="Path_36579" data-name="Path 36579" d="M457.382,294.131s-5.86,2.178-6.742,5.083S457.382,294.131,457.382,294.131Z" transform="translate(-216.13 -165.704)" opacity="0.1"/>
  <path id="Path_36580" data-name="Path 36580" d="M463.861,300.227s.533,3.024-6.813,2.782Z" transform="translate(-219.015 -168.418)" opacity="0.1"/>
  <path id="Path_36581" data-name="Path 36581" d="M519.582,230.233l2.662-.242s2.9,2.178,5.083,2.178,3.509,2.783,3.509,2.783a39.134,39.134,0,0,0,4.841,1.936c1.21.242,3.267,1.452,2.662,1.936s.121,1.573,1.21,2.42,2.783,5.2,1.331,5.809-5.446,1.815-6.535,2.42a3,3,0,0,1-2.42,0s-6.411-8.35-9.679-6.777a20.971,20.971,0,0,1-7.746,1.573l-3.51-7.382Z" transform="translate(-243.031 -137.148)" opacity="0.1"/>
  <path id="Path_36582" data-name="Path 36582" d="M424.826,271.314a3.235,3.235,0,0,0,2.256,1.568,17.1,17.1,0,0,0,7.048-.651s-12.191-3.872-.453-13.29H430.53l-1.048-.4.479-2.508.69-22.605-2.541-.605s-2.045,14.885-2.534,16.7a81.549,81.549,0,0,0-.854,8.834,20.455,20.455,0,0,1-1.21,4.357C422.964,263.809,423.1,268.731,424.826,271.314Z" transform="translate(-203.957 -138.41)" fill="#3e4664"/>
  <path id="Path_36583" data-name="Path 36583" d="M426.981,291.952a3.235,3.235,0,0,0,2.256,1.568,17.1,17.1,0,0,0,7.048-.651s-12.191-3.872-.453-13.29h-3.146l-1.048-.4C429.915,282.235,427.2,287.665,426.981,291.952Z" transform="translate(-205.629 -159.049)" opacity="0.1"/>
  <path id="Path_36584" data-name="Path 36584" d="M426.109,291.952a3.235,3.235,0,0,0,2.256,1.568,17.1,17.1,0,0,0,7.048-.651s-12.191-3.872-.453-13.29h-3.146l-1.048-.4C429.042,282.235,426.329,287.665,426.109,291.952Z" transform="translate(-205.241 -159.049)" fill="none"/>
  <path id="Path_36585" data-name="Path 36585" d="M426.109,291.952a3.235,3.235,0,0,0,2.256,1.568,17.1,17.1,0,0,0,7.048-.651s-12.191-3.872-.453-13.29h-3.146l-1.048-.4C429.042,282.235,426.329,287.665,426.109,291.952Z" transform="translate(-205.241 -159.049)" fill="#67647e"/>
  <path id="Path_36586" data-name="Path 36586" d="M455.442,217.139a11.013,11.013,0,0,0,12.464-2.367c-.056-.177-.109-.349-.157-.518a13.3,13.3,0,0,1-.489-2.786s-13.675-4.841-11.012,0A4.587,4.587,0,0,1,455.442,217.139Z" transform="translate(-218.3 -127.944)" opacity="0.1"/>
  <path id="Path_36587" data-name="Path 36587" d="M443.808,195.633v.106q.007.537.06,1.06c.036.334.087.666.15.99a11.016,11.016,0,0,0,21.219,1.423c.073-.213.14-.428.2-.646a10.957,10.957,0,0,0,.4-2.933c0-.254-.01-.508-.027-.758a11.012,11.012,0,0,0-22,.758Z" transform="translate(-213.12 -116.949)" fill="#be6f72"/>
  <path id="Path_36588" data-name="Path 36588" d="M443.808,195.74a4.78,4.78,0,0,1,.06,1.06,4.1,4.1,0,0,0,.031.574,1.664,1.664,0,0,0,.119.416,2.058,2.058,0,0,0,2.856,1.048,3.1,3.1,0,0,0,.859-1.125c1.016-1.89,2.432-4.066,4.659-4.1a10.6,10.6,0,0,1,2.759.617,2.957,2.957,0,0,0,2.691-.363c.525-.479.775-1.3,1.481-1.469s1.355.479,1.68,1.113.581,1.38,1.237,1.706c.29.145.632.186.917.341,1.317.721.712,3.248,2.079,3.657a1.024,1.024,0,0,0,.131.031c.022-.225.046-.453.068-.678l.37-3.691a11.012,11.012,0,0,0-22,.758Z" transform="translate(-213.12 -116.949)" opacity="0.1"/>
  <path id="Path_36589" data-name="Path 36589" d="M459.7,172.192c1.294.548,2.641,1.392,2.932,2.713a10.71,10.71,0,0,1,.061,1.774,14.1,14.1,0,0,0,.991,3.441,3.824,3.824,0,0,1-.235,3.447c-.227.3-.528.555-.732.874a3.561,3.561,0,0,0-.423,1.6L461.7,192c-1.536-.286-.852-2.947-2.21-3.689-.285-.156-.625-.2-.916-.343-.655-.327-.912-1.073-1.237-1.706s-.964-1.283-1.681-1.112-.954.991-1.479,1.469a2.955,2.955,0,0,1-2.693.362,10.662,10.662,0,0,0-2.758-.618c-2.227.038-3.644,2.212-4.66,4.1a3.077,3.077,0,0,1-.859,1.127,2.069,2.069,0,0,1-2.974-1.466c-.1-.71.118-1.5-.292-2.1-.421-.617-1.3-.731-1.991-1.051-1.768-.815-2.317-3.023-2.023-4.875.212-1.335.743-2.709.308-3.993-.15-.443-.409-.847-.548-1.293a3.494,3.494,0,0,1,1.244-3.5,10.176,10.176,0,0,1,3.591-1.8,41.314,41.314,0,0,1,10.279-2.4c1.538-.1,3.552-.581,4.774.377A16.3,16.3,0,0,0,459.7,172.192Z" transform="translate(-209.454 -109.947)" fill="#3f3d56"/>
  <circle id="Ellipse_225" data-name="Ellipse 225" cx="0.605" cy="0.605" r="0.605" transform="translate(246.767 96.147)" opacity="0.1"/>
  <circle id="Ellipse_226" data-name="Ellipse 226" cx="0.605" cy="0.605" r="0.605" transform="translate(246.767 95.905)" fill="#444053"/>
  <circle id="Ellipse_227" data-name="Ellipse 227" cx="0.605" cy="0.605" r="0.605" transform="translate(250.639 134.146)" opacity="0.1"/>
  <circle id="Ellipse_228" data-name="Ellipse 228" cx="0.605" cy="0.605" r="0.605" transform="translate(250.639 133.904)" fill="#444053"/>
  <circle id="Ellipse_229" data-name="Ellipse 229" cx="0.605" cy="0.605" r="0.605" transform="translate(248.582 144.19)" opacity="0.1"/>
  <circle id="Ellipse_230" data-name="Ellipse 230" cx="0.605" cy="0.605" r="0.605" transform="translate(248.582 143.948)" fill="#444053"/>
  <path id="Path_36590" data-name="Path 36590" d="M439.188,254.27s-1.331,9.039,0,10.612S439.188,254.27,439.188,254.27Z" transform="translate(-210.8 -147.957)" opacity="0.1"/>
  <path id="Path_36591" data-name="Path 36591" d="M508.183,284.522s2.541,5.475,0,10.724-4.115,7.381-3.267,10.732S508.183,284.522,508.183,284.522Z" transform="translate(-240.223 -161.426)" opacity="0.1"/>
  <path id="Path_36592" data-name="Path 36592" d="M293.361,459.919c3.751,2.541,9.439,1.331,9.439,1.331s8.592-4.115,11.133-4.115,8.713-2.541,8.713-2.541l-.208-1.714c-2.508.484-8.21,1.634-8.868,2.2-.847.726-11.254,4.235-11.254,4.235s-7.087-.886-9.059-3.8C291.953,456.862,291.4,458.59,293.361,459.919Z" transform="translate(-145.569 -236.38)" opacity="0.1"/>
  <g id="Group_27873" data-name="Group 27873" transform="translate(226.119 65.37)" opacity="0.1">
    <path id="Path_36593" data-name="Path 36593" d="M484.459,180.867c-.007-.131-.007-.263,0-.394.011.15.013.3.011.453C484.464,180.905,484.461,180.886,484.459,180.867Z" transform="translate(-457.335 -180.472)"/>
    <path id="Path_36594" data-name="Path 36594" d="M438.177,195.976c.695.32,1.57.435,1.991,1.051.41.6.188,1.395.292,2.1a2.069,2.069,0,0,0,2.974,1.466,3.078,3.078,0,0,0,.859-1.127c1.017-1.89,2.433-4.065,4.66-4.1a10.665,10.665,0,0,1,2.758.618,2.955,2.955,0,0,0,2.693-.362c.525-.479.775-1.3,1.479-1.469s1.355.479,1.681,1.112.582,1.38,1.237,1.706c.291.145.631.187.916.343,1.358.742.674,3.4,2.21,3.689l.6-5.957a3.562,3.562,0,0,1,.423-1.6c.2-.318.5-.57.732-.874a2.665,2.665,0,0,0,.5-1.281,3.1,3.1,0,0,1-.5,2.249c-.227.3-.528.555-.732.874a3.563,3.563,0,0,0-.423,1.6l-.6,5.957c-1.536-.286-.852-2.947-2.21-3.689-.285-.156-.625-.2-.916-.343-.655-.327-.912-1.073-1.237-1.706s-.964-1.283-1.681-1.112-.954.991-1.479,1.469a2.955,2.955,0,0,1-2.693.362,10.665,10.665,0,0,0-2.758-.618c-2.227.038-3.644,2.212-4.66,4.1a3.079,3.079,0,0,1-.859,1.127,2.069,2.069,0,0,1-2.974-1.466c-.1-.71.118-1.5-.292-2.1-.421-.617-1.3-.731-1.991-1.051-1.617-.745-2.212-2.655-2.077-4.393A3.949,3.949,0,0,0,438.177,195.976Z" transform="translate(-435.799 -185.288)"/>
    <path id="Path_36595" data-name="Path 36595" d="M435.688,181.184c.139.446.4.85.548,1.293a3.722,3.722,0,0,1,.138,1.591,3.091,3.091,0,0,0-.138-.623c-.15-.443-.409-.847-.548-1.293a2.677,2.677,0,0,1-.071-1.263,2.514,2.514,0,0,0,.071.295Z" transform="translate(-435.573 -180.658)"/>
  </g>
  <path id="Path_36596" data-name="Path 36596" d="M487.853,268.695c2.783-.61,9.318-2.536,9.318-2.536l1.169-.235c-.017-4.064-.218-8-.293-9.33l-.029,0s-5.567,1.815-6.9,2.783-5.446.726-5.446.726a18.652,18.652,0,0,0-11.739,6.293C468.612,272.33,485.07,269.3,487.853,268.695Z" transform="translate(-226.065 -148.992)" opacity="0.1"/>
  <path id="Path_36597" data-name="Path 36597" d="M515.053,256.235a1.614,1.614,0,0,1,.363,2.713c-1.474,1.221-3.627,2.681-5.681,2.888-3.428.345-11.678,2-12.5,2.165-.044.009-.086.019-.13.032-.68.2-6.632,1.943-9.254,2.518-2.783.61-19.241,3.635-13.917-2.294a18.822,18.822,0,0,1,11.62-6.283,1.513,1.513,0,0,1,.213,0c.622.029,4.139.15,5.351-.731a11.417,11.417,0,0,1,2-1,38.447,38.447,0,0,1,8.181-2.359l5.693-.993a1.638,1.638,0,0,1,.959.122Z" transform="translate(-226.065 -147.332)" fill="#be6f72"/>
  <path id="Path_36598" data-name="Path 36598" d="M520.455,230.233l2.662-.242s2.9,2.178,5.083,2.178,3.51,2.783,3.51,2.783a39.139,39.139,0,0,0,4.84,1.936c1.21.242,3.267,1.452,2.662,1.936s.121,1.573,1.21,2.42,2.783,5.2,1.331,5.809-5.446,1.815-6.535,2.42a3,3,0,0,1-2.42,0s-6.411-8.35-9.68-6.777a20.973,20.973,0,0,1-7.746,1.573l-3.509-7.382Z" transform="translate(-243.419 -137.148)" fill="#3e4664"/>
</svg>
