<svg xmlns="http://www.w3.org/2000/svg" width="16.994" height="17" viewBox="0 0 16.994 17">
  <g id="noun_message_160429" transform="translate(-13.449 -13.436)">
    <path id="Path_36742" data-name="Path 36742" d="M27.957,15.922A8.5,8.5,0,0,0,15.411,27.366a3.294,3.294,0,0,1-1.389,1.545.772.772,0,0,0,.222,1.456,4.358,4.358,0,0,0,.671.05,5.083,5.083,0,0,0,3-1A8.5,8.5,0,0,0,27.957,15.922Zm-10.2,7.307a1.293,1.293,0,1,1,1.293-1.293A1.293,1.293,0,0,1,17.755,23.229Zm4.192,0a1.293,1.293,0,1,1,1.293-1.293A1.293,1.293,0,0,1,21.946,23.229Zm4.192,0a1.293,1.293,0,1,1,1.293-1.293A1.293,1.293,0,0,1,26.138,23.229Z" transform="translate(0 0)" fill="#8e8e98"/>
  </g>
</svg>
