<svg xmlns="http://www.w3.org/2000/svg" width="50" height="50" viewBox="0 0 50 50">
  <g id="Group_27547" data-name="Group 27547" transform="translate(-1106 -244)">
    <g id="Rectangle_2556" data-name="Rectangle 2556" transform="translate(1106 244)" fill="#fff" stroke="#626cb2" stroke-width="1">
      <rect width="50" height="50" rx="12" stroke="none"/>
      <rect x="0.5" y="0.5" width="49" height="49" rx="11.5" fill="none"/>
    </g>
    <g id="administrator-solid" transform="translate(1116 254)">
      <circle id="Ellipse_159" data-name="Ellipse 159" cx="5" cy="5" r="5" transform="translate(7.225 1.917)" fill="#4d66f0"/>
      <path id="Path_36055" data-name="Path 36055" d="M14.033,29.468a1.792,1.792,0,0,1-.317-2.125l.442-.833-.908-.275A1.783,1.783,0,0,1,12,24.484V22.776a1.8,1.8,0,0,1,1.275-1.725l.908-.275-.433-.833a1.808,1.808,0,0,1,.292-2.1,15.766,15.766,0,0,0-1.933-.133A12.983,12.983,0,0,0,2,22.176v6.458a.833.833,0,0,0,.833.833Z" transform="translate(-0.333 -2.951)" fill="#4d66f0"/>
      <path id="Path_36056" data-name="Path 36056" d="M30.707,22.178l-1.667-.5a5.608,5.608,0,0,0-.483-1.183l.833-1.55a.292.292,0,0,0-.058-.358L28.123,17.37a.317.317,0,0,0-.358-.058l-1.542.833a6.45,6.45,0,0,0-1.192-.5l-.508-1.667a.317.317,0,0,0-.3-.208H22.49a.317.317,0,0,0-.292.217l-.5,1.667a5.708,5.708,0,0,0-1.208.508l-1.508-.833a.317.317,0,0,0-.367.05l-1.225,1.2a.308.308,0,0,0-.058.367l.833,1.517a6.033,6.033,0,0,0-.542,1.192l-1.667.508a.3.3,0,0,0-.217.292v1.708a.3.3,0,0,0,.217.292l1.667.508a6.075,6.075,0,0,0,.5,1.175L17.29,27.72a.308.308,0,0,0,.058.367l1.242,1.208a.317.317,0,0,0,.367.05l1.558-.833a5.908,5.908,0,0,0,1.167.475l.5,1.708a.317.317,0,0,0,.3.217H24.19a.317.317,0,0,0,.292-.217l.5-1.708a5.567,5.567,0,0,0,1.15-.475l1.575.833a.317.317,0,0,0,.367-.05l1.217-1.208a.317.317,0,0,0,.05-.367l-.833-1.567A5.766,5.766,0,0,0,28.982,25l1.667-.508a.325.325,0,0,0,.225-.292V22.478A.333.333,0,0,0,30.707,22.178Zm-7.358,3.933a2.783,2.783,0,1,1,2.775-2.783,2.783,2.783,0,0,1-2.775,2.783Z" transform="translate(-2.623 -2.628)" fill="#4d66f0"/>
      <rect id="Rectangle_2562" data-name="Rectangle 2562" width="30" height="30" fill="rgba(0,0,0,0)"/>
    </g>
  </g>
</svg>
