<svg xmlns="http://www.w3.org/2000/svg" width="50" height="50" viewBox="0 0 50 50">
  <g id="Group_28121" data-name="Group 28121" transform="translate(-572 -747)">
    <g id="Rectangle_2556" data-name="Rectangle 2556" transform="translate(572 747)" fill="#fff" stroke="#626cb2" stroke-width="1">
      <rect width="50" height="50" rx="12" stroke="none"/>
      <rect x="0.5" y="0.5" width="49" height="49" rx="11.5" fill="none"/>
    </g>
    <g id="noun_renewable_energy_2082384" data-name="noun_renewable energy_2082384" transform="translate(576.502 751.754)">
      <path id="Path_36730" data-name="Path 36730" d="M14.656,20.852H18.8l-1.745,7.574,8.289-10.059H20.373l1.575-6.793Z" fill="#4d66f0"/>
      <path id="Path_36731" data-name="Path 36731" d="M35.98,17.879H33.572a13.74,13.74,0,0,0-21.4-9.188l1.294,1.865a11.479,11.479,0,0,1,17.812,7.323H29.255c-.463,0-.652.326-.421.729L30.1,20.792c.231.4.611,1.055.842,1.457L32.2,24.433a.445.445,0,0,0,.842,0L34.3,22.249c.23-.4.61-1.057.841-1.457L36.4,18.608C36.632,18.2,36.444,17.879,35.98,17.879Z" fill="#4d66f0"/>
      <path id="Path_36732" data-name="Path 36732" d="M20,31.482A11.5,11.5,0,0,1,8.723,22.121h2.022c.463,0,.652-.328.421-.729L9.905,19.208l-.842-1.457L7.8,15.567a.445.445,0,0,0-.842,0L5.7,17.751c-.23.4-.61,1.057-.841,1.457L3.6,21.392c-.231.4-.043.729.42.729H6.425a13.742,13.742,0,0,0,21.4,9.188l-1.294-1.867A11.411,11.411,0,0,1,20,31.482Z" fill="#4d66f0"/>
    </g>
  </g>
</svg>
