<svg xmlns="http://www.w3.org/2000/svg" xmlns:xlink="http://www.w3.org/1999/xlink" width="158" height="158" viewBox="0 0 158 158">
  <defs>
    <linearGradient id="linear-gradient" x1="0.5" x2="0.5" y2="1" gradientUnits="objectBoundingBox">
      <stop offset="0" stop-color="#279ed9"/>
      <stop offset="1" stop-color="#238ec3"/>
    </linearGradient>
  </defs>
  <g id="Group_28364" data-name="Group 28364" transform="translate(-927 -77)">
    <rect id="Rectangle_2868" data-name="Rectangle 2868" width="158" height="158" rx="12" transform="translate(927 77)" fill="#dbe3ff"/>
    <g id="Group_28333" data-name="Group 28333" transform="translate(91 -615)">
      <g id="Group_28329" data-name="Group 28329" transform="translate(341 2)">
        <path id="Path_36388" data-name="Path 36388" d="M49.975,38.29c0,.274-.008.867-.025,1.326a26.331,26.331,0,0,1-.264,3.23,10.758,10.758,0,0,1-.905,2.706,9.634,9.634,0,0,1-4.242,4.237,10.782,10.782,0,0,1-2.722.906,26.433,26.433,0,0,1-3.205.259c-.459.016-1.053.025-1.326.025l-24.619,0c-.274,0-.867-.008-1.326-.025a26.343,26.343,0,0,1-3.23-.264,10.761,10.761,0,0,1-2.706-.905,9.634,9.634,0,0,1-4.237-4.242,10.778,10.778,0,0,1-.906-2.722A26.448,26.448,0,0,1,0,39.611c-.016-.459-.025-1.053-.025-1.326l0-24.619c0-.274.008-.867.025-1.326A26.342,26.342,0,0,1,.271,9.11,10.758,10.758,0,0,1,1.177,6.4,9.635,9.635,0,0,1,5.418,2.167,10.783,10.783,0,0,1,8.14,1.261,26.428,26.428,0,0,1,11.346,1C11.8.986,12.4.978,12.671.978l24.619,0c.274,0,.867.008,1.326.025a26.345,26.345,0,0,1,3.23.264,10.758,10.758,0,0,1,2.706.905A9.634,9.634,0,0,1,48.79,6.418,10.779,10.779,0,0,1,49.7,9.139a26.464,26.464,0,0,1,.259,3.205c.016.459.025,1.053.025,1.326l0,24.619Z" transform="translate(550.021 727.022)" fill="url(#linear-gradient)"/>
        <g id="Telegram_3_" transform="translate(478.866 602.348)">
          <path id="Shape_Plane_3" d="M178.437,187.749c-.236-.126-.714.2-.714.2L161,198.761s2.422,8,2.549,8.464a1.42,1.42,0,0,0,.714.918l.612-7.444,13.664-12.338S178.673,187.874,178.437,187.749Z" transform="translate(-72.62 -44.963)" fill="#cbe0ee"/>
          <path id="Shape_Plane_2" d="M192.694,314s-.674,7.036-.714,7.342.46.465.918.1c1.488-1.179,4.283-4.079,4.283-4.079Z" transform="translate(-100.44 -158.366)" fill="#a8c6df"/>
          <path id="Shape_Plane_1" d="M108.978,137.891c-.827.246-8.413,3.052-15.3,5.812-6.095,2.445-11.154,4.659-11.625,4.895-1.529.51-3.12,1.617-.612,2.753,1.176.588,6.934,2.447,6.934,2.447s16.234-10.5,16.723-10.809c.75-.51,1.239-.047.51.714-.323.312-13.358,11.931-13.358,11.931.226,0,10.282,7.69,10.809,8.26,1.731,1.441,3.169.657,3.467-.918.062-.284,1.688-7.127,2.957-13.46.918-4.58,1.655-9.093,1.835-10.1C111.588,137.729,110.968,137.327,108.978,137.891Z" transform="translate(0 0)" fill="#fff"/>
        </g>
      </g>
      <text id="Telegram" transform="translate(880 808)" fill="#3e4664" font-size="18" font-family="Lato-Regular, Lato"><tspan x="0" y="0">Telegram</tspan></text>
    </g>
  </g>
</svg>
