<svg xmlns="http://www.w3.org/2000/svg" xmlns:xlink="http://www.w3.org/1999/xlink" width="158" height="158" viewBox="0 0 158 158">
  <defs>
    <linearGradient id="linear-gradient" x1="0.5" x2="0.5" y2="1" gradientUnits="objectBoundingBox">
      <stop offset="0" stop-color="#61fd7d"/>
      <stop offset="1" stop-color="#2bb826"/>
    </linearGradient>
  </defs>
  <g id="Group_28361" data-name="Group 28361" transform="translate(-267 -77)">
    <rect id="Rectangle_2865" data-name="Rectangle 2865" width="158" height="158" rx="12" transform="translate(267 77)" fill="#dbe3ff"/>
    <g id="Group_28335" data-name="Group 28335" transform="translate(-279 -615)">
      <g id="Whatsapp" transform="translate(600.021 729.022)">
        <path id="Path_36388" data-name="Path 36388" d="M49.975,38.29c0,.274-.008.867-.025,1.326a26.331,26.331,0,0,1-.264,3.23,10.758,10.758,0,0,1-.905,2.706,9.634,9.634,0,0,1-4.242,4.237,10.782,10.782,0,0,1-2.722.906,26.433,26.433,0,0,1-3.205.259c-.459.016-1.053.025-1.326.025l-24.619,0c-.274,0-.867-.008-1.326-.025a26.343,26.343,0,0,1-3.23-.264,10.761,10.761,0,0,1-2.706-.905,9.634,9.634,0,0,1-4.237-4.242,10.778,10.778,0,0,1-.906-2.722A26.448,26.448,0,0,1,0,39.611c-.016-.459-.025-1.053-.025-1.326l0-24.619c0-.274.008-.867.025-1.326A26.342,26.342,0,0,1,.271,9.11,10.758,10.758,0,0,1,1.177,6.4,9.635,9.635,0,0,1,5.418,2.167,10.783,10.783,0,0,1,8.14,1.261,26.428,26.428,0,0,1,11.346,1C11.8.986,12.4.978,12.671.978l24.619,0c.274,0,.867.008,1.326.025a26.345,26.345,0,0,1,3.23.264,10.758,10.758,0,0,1,2.706.905A9.634,9.634,0,0,1,48.79,6.418,10.779,10.779,0,0,1,49.7,9.139a26.464,26.464,0,0,1,.259,3.205c.016.459.025,1.053.025,1.326l0,24.619Z" transform="translate(0 0)" fill="url(#linear-gradient)"/>
        <g id="Group_27870" data-name="Group 27870" transform="translate(7.462 7.55)">
          <path id="Path_36389" data-name="Path 36389" d="M184.009,140.845a17.931,17.931,0,0,0-28.22,21.627l-2.544,9.288,9.5-2.492a17.921,17.921,0,0,0,8.568,2.182h.007a17.931,17.931,0,0,0,12.683-30.6Zm-12.683,27.577h-.006a14.884,14.884,0,0,1-7.585-2.077l-.544-.323-5.64,1.479,1.505-5.5-.354-.564a14.9,14.9,0,1,1,12.624,6.981Zm8.174-11.158c-.448-.224-2.651-1.308-3.061-1.457s-.709-.224-1.008.224-1.157,1.457-1.418,1.756-.523.336-.971.112a12.235,12.235,0,0,1-3.6-2.223,13.5,13.5,0,0,1-2.492-3.1c-.261-.448-.028-.691.2-.914.2-.2.448-.523.672-.785a3.05,3.05,0,0,0,.448-.747.824.824,0,0,0-.037-.785c-.112-.224-1.008-2.429-1.381-3.325-.364-.873-.733-.755-1.008-.769s-.56-.016-.859-.016a1.646,1.646,0,0,0-1.195.56,5.022,5.022,0,0,0-1.568,3.736,8.71,8.71,0,0,0,1.829,4.633c.224.3,3.159,4.823,7.653,6.763a25.771,25.771,0,0,0,2.554.943,6.144,6.144,0,0,0,2.822.178c.861-.129,2.65-1.083,3.024-2.13a3.743,3.743,0,0,0,.261-2.13c-.112-.187-.411-.3-.859-.523Z" transform="translate(-153.246 -135.588)" fill="#fff"/>
        </g>
      </g>
      <text id="WhatsApp-2" data-name="WhatsApp" transform="translate(583 808)" fill="#3e4664" font-size="18" font-family="Lato-Regular, Lato"><tspan x="0" y="0">WhatsApp</tspan></text>
    </g>
  </g>
</svg>
