<svg xmlns="http://www.w3.org/2000/svg" width="19.645" height="20" viewBox="0 0 19.645 20">
  <g id="administrator-line" transform="translate(-2 -1.29)">
    <path id="Path_36342" data-name="Path 36342" d="M12.09,9.631a4.17,4.17,0,1,1,4.17-4.164A4.17,4.17,0,0,1,12.09,9.631Zm0-7.1a2.936,2.936,0,1,0,2.936,2.936A2.936,2.936,0,0,0,12.09,2.53Z" transform="translate(-2.268)" fill="#3e4664"/>
    <path id="Path_36343" data-name="Path 36343" d="M10.9,26.254a1.32,1.32,0,0,1-.382-1.036H3.234V21.651a9.136,9.136,0,0,1,6.841-2.887h.444a1.357,1.357,0,0,1,.382-1.141l.074-.068c-.29,0-.617-.037-.9-.037a10.16,10.16,0,0,0-7.952,3.541.617.617,0,0,0-.123.37v3.788a1.234,1.234,0,0,0,1.234,1.234h7.835Z" transform="translate(0 -6.216)" fill="#3e4664"/>
    <path id="Path_36344" data-name="Path 36344" d="M26.87,16.287a.228.228,0,0,1,.093,0,.259.259,0,0,0-.093,0Z" transform="translate(-9.528 -5.744)" fill="#3e4664"/>
    <path id="Path_36345" data-name="Path 36345" d="M26.807,20.374,25.573,20a4.448,4.448,0,0,0-.358-.87l.617-1.147a.234.234,0,0,0-.062-.271l-.895-.895a.222.222,0,0,0-.271-.043l-1.135.617a4.411,4.411,0,0,0-.882-.376l-.376-1.234a.222.222,0,0,0-.222-.148H20.725a.222.222,0,0,0-.216.16l-.376,1.234a4.318,4.318,0,0,0-.888.37l-1.123-.617a.216.216,0,0,0-.265.043l-.913.888a.234.234,0,0,0-.037.271l.617,1.123a4.177,4.177,0,0,0-.389.882l-1.234.37a.222.222,0,0,0-.16.216v1.265a.216.216,0,0,0,.16.191l1.234.376a4.318,4.318,0,0,0,.37.87l-.617,1.178a.222.222,0,0,0,.037.265l.895.895a.234.234,0,0,0,.271.043l1.154-.617a4.374,4.374,0,0,0,.864.352l.37,1.234a.234.234,0,0,0,.216.16h1.265a.228.228,0,0,0,.216-.16l.376-1.265a4.269,4.269,0,0,0,.851-.352l1.166.617a.222.222,0,0,0,.265-.043l.938-.839a.216.216,0,0,0,0-.247l-.617-1.16a4.318,4.318,0,0,0,.358-.857l1.234-.376a.222.222,0,0,0,.16-.216v-1.3a.222.222,0,0,0-.1-.216ZM21.36,23.261a2.06,2.06,0,1,1,2.054-2.054A2.06,2.06,0,0,1,21.36,23.261Z" transform="translate(-5.264 -5.493)" fill="#3e4664"/>
  </g>
</svg>
