<svg xmlns="http://www.w3.org/2000/svg" width="50" height="50" viewBox="0 0 50 50">
  <g id="Group_27557" data-name="Group 27557" transform="translate(-156 -531)">
    <g id="Rectangle_2556" data-name="Rectangle 2556" transform="translate(156 531)" fill="#fff" stroke="#626cb2" stroke-width="1">
      <rect width="50" height="50" rx="12" stroke="none"/>
      <rect x="0.5" y="0.5" width="49" height="49" rx="11.5" fill="none"/>
    </g>
    <g id="tree-solid" transform="translate(166 541)">
      <path id="Path_36057" data-name="Path 36057" d="M15.748,2a10.841,10.841,0,0,0-.833,21.667V19.331L10.581,15a.825.825,0,0,1,1.167-1.167h0L14.915,17V11.831l-2.25-2.25a.825.825,0,1,1,1.167-1.167h0l2.75,2.75v2.5l2.75-2.75a.806.806,0,0,1,1.167,0h0a.806.806,0,0,1,0,1.167L16.581,16v7.667A10.841,10.841,0,1,0,15.748,2Z" transform="translate(-0.748 -0.331)" fill="#4d66f0"/>
      <path id="Path_36058" data-name="Path 36058" d="M17.833,28H17v4.167a.833.833,0,0,0,1.667,0V28Z" transform="translate(-2.833 -4.667)" fill="#4d66f0"/>
      <rect id="Rectangle_2563" data-name="Rectangle 2563" width="30" height="30" fill="rgba(0,0,0,0)"/>
    </g>
  </g>
</svg>
