<svg xmlns="http://www.w3.org/2000/svg" width="24.546" height="18" viewBox="0 0 24.546 18">
  <g id="noun_Upload_1562155" transform="translate(-5 -16.998)">
    <g id="Group_27588" data-name="Group 27588" transform="translate(5 16.998)">
      <path id="Path_36073" data-name="Path 36073" d="M17.273,969.361a7.3,7.3,0,0,1,7.236,6.1,5.986,5.986,0,0,1-.963,11.9H10.182a5.171,5.171,0,0,1-.222-10.338,7.291,7.291,0,0,1,7.313-7.662Zm0,1.091a6.262,6.262,0,0,0-6.222,7.023.546.546,0,0,1-.545.614h-.324a4.091,4.091,0,0,0,0,8.182H23.545a4.911,4.911,0,0,0,.452-9.8.546.546,0,0,1-.494-.477,6.253,6.253,0,0,0-6.23-5.54Zm0,5.455a.593.593,0,0,1,.366.136l3,2.727a.56.56,0,0,1,.043.775.571.571,0,0,1-.776.034l-2.088-1.9v5.864a.545.545,0,0,1-1.091,0v-5.864l-2.088,1.9a.581.581,0,0,1-.776-.034.554.554,0,0,1,.043-.775l3-2.727A.476.476,0,0,1,17.273,975.906Z" transform="translate(-5 -969.36)" fill="#bebebf"/>
    </g>
  </g>
</svg>
