<svg xmlns="http://www.w3.org/2000/svg" width="201.953" height="21" viewBox="0 0 201.953 21">
  <g id="Group_27708" data-name="Group 27708" transform="translate(-140.047 -34)">
    <g id="coin-bag-solid" transform="translate(137 31.5)">
      <path id="Path_1" data-name="Path 1" d="M17.844,18.419h5.325c-.447-5.9-2.987-9.565-6.246-11.733l1.484-3.238A.677.677,0,0,0,17.79,2.5H8.5a.677.677,0,0,0-.616.948L8.7,5.21h6.855l-.61,1.355H13.691a16.868,16.868,0,0,1,.84,3.177,16.59,16.59,0,0,1,.217,2.032l-1.07.752a15.27,15.27,0,0,0-.217-2.615A14.727,14.727,0,0,0,12.5,6.565h-.677a19.118,19.118,0,0,0-1.68,2.506,16.2,16.2,0,0,0-1.009,2.344L8.2,10.8a15.432,15.432,0,0,1,1-2.263,20.869,20.869,0,0,1,1.3-1.971H9.315l.054.115c-3.59,2.391-6.32,6.591-6.32,13.6a1.118,1.118,0,0,0,1.057,1.185H9.525a1.809,1.809,0,0,1,1.084-3.048,1.809,1.809,0,0,1-.251-.908,1.829,1.829,0,0,1,1.829-1.829h4.065a1.829,1.829,0,0,1,1.829,1.829A1.782,1.782,0,0,1,17.844,18.419Z" transform="translate(0 0)" fill="#00d95e"/>
      <path id="Path_2" data-name="Path 2" d="M19.019,28.177a.677.677,0,0,0-.677-.677H14.277a.677.677,0,1,0,0,1.355h4.065A.677.677,0,0,0,19.019,28.177Z" transform="translate(-3.404 -8.065)" fill="#00d95e"/>
      <path id="Path_3" data-name="Path 3" d="M20.282,23.5H16.217a.677.677,0,0,0,0,1.355h4.065a.677.677,0,1,0,0-1.355Z" transform="translate(-4.03 -6.774)" fill="#00d95e"/>
      <path id="Path_4" data-name="Path 4" d="M19.742,31.5H15.677a.677.677,0,0,0,0,1.355h4.065a.677.677,0,1,0,0-1.355Z" transform="translate(-3.856 -9.355)" fill="#00d95e"/>
      <path id="Path_5" data-name="Path 5" d="M30.119,31.5H25.377a.677.677,0,0,0,0,1.355h4.742a.677.677,0,0,0,0-1.355Z" transform="translate(-6.985 -9.355)" fill="#00d95e"/>
      <path id="Path_6" data-name="Path 6" d="M31.119,27.5H26.377a.677.677,0,1,0,0,1.355h4.742a.677.677,0,0,0,0-1.355Z" transform="translate(-7.307 -8.065)" fill="#00d95e"/>
    </g>
    <text id="SmallFinance.Tech" transform="translate(169 51)" fill="#00d95e" font-size="20" font-family="CircularStd-Bold, Circular Std Bold" font-weight="700"><tspan x="0" y="0">SmallFinance.Tech</tspan></text>
  </g>
</svg>
