<svg xmlns="http://www.w3.org/2000/svg" width="12.132" height="14" viewBox="0 0 12.132 14">
  <g id="trash-solid" transform="translate(-4 -2)">
    <path id="Path_36350" data-name="Path 36350" d="M6,9v9.625a1.282,1.282,0,0,0,1.251,1.313h7.976A1.282,1.282,0,0,0,16.5,18.625V9Zm3.938,8.75H9.062V11.188h.875Zm3.5,0h-.875V11.188h.875Z" transform="translate(-1.125 -3.937)" fill="#fff"/>
    <path id="Path_36351" data-name="Path 36351" d="M15.694,3.313H12.313V2.875A.875.875,0,0,0,11.438,2H8.725a.875.875,0,0,0-.788.875v.438h-3.5a.438.438,0,1,0,0,.875H15.694a.438.438,0,0,0,0-.875Z" fill="#fff"/>
  </g>
</svg>
