<svg xmlns="http://www.w3.org/2000/svg" width="15.598" height="18" viewBox="0 0 15.598 18">
  <g id="trash-solid" transform="translate(-4 -2)">
    <path id="Path_36350" data-name="Path 36350" d="M6,9V21.375a1.648,1.648,0,0,0,1.609,1.688H17.863A1.648,1.648,0,0,0,19.5,21.375V9Zm5.063,11.25H9.937V11.813h1.125Zm4.5,0H14.437V11.813h1.125Z" transform="translate(-0.875 -3.062)" fill="#fff"/>
    <path id="Path_36351" data-name="Path 36351" d="M19.036,3.688H14.688V3.125A1.125,1.125,0,0,0,13.563,2H10.075A1.125,1.125,0,0,0,9.063,3.125v.563h-4.5a.563.563,0,1,0,0,1.125H19.036a.563.563,0,0,0,0-1.125Z" fill="#fff"/>
  </g>
</svg>
