<svg xmlns="http://www.w3.org/2000/svg" width="30.702" height="20" viewBox="0 0 30.702 20">
  <g id="eye-line" transform="translate(-1.72 -7.53)">
    <path id="Path_36729" data-name="Path 36729" d="M32.173,17.077c-3.217-5.947-8.859-9.547-15.1-9.547s-11.895,3.6-15.084,9.547l-.267.449.248.458c3.217,5.947,8.859,9.547,15.1,9.547s11.895-3.551,15.1-9.547l.248-.458Zm-15.1,8.5A15.186,15.186,0,0,1,3.9,17.525,15.186,15.186,0,0,1,17.071,9.477a15.248,15.248,0,0,1,13.165,8.048A15.24,15.24,0,0,1,17.071,25.573Z" fill="#8e8e98"/>
    <path id="Path_36730" data-name="Path 36730" d="M17.781,11.17a6.549,6.549,0,1,0,4.652,1.891,6.549,6.549,0,0,0-4.652-1.891Zm0,11.189A4.649,4.649,0,1,1,21.1,21a4.64,4.64,0,0,1-3.319,1.355Z" transform="translate(-0.434 -0.165)" fill="#8e8e98"/>
  </g>
</svg>
