<svg xmlns="http://www.w3.org/2000/svg" width="15.345" height="14.235" viewBox="0 0 15.345 14.235">
  <g id="filter-line" transform="translate(-1.5 -3.5)">
    <path id="Path_7" data-name="Path 7" d="M15.9,4H2.448A.448.448,0,0,0,2,4.448V5.2a.8.8,0,0,0,.238.569l5.142,5.218v4.572l.9.341V10.724a.448.448,0,0,0-.13-.318L2.9,5.161V4.9H15.448V5.17l-5.231,5.236a.448.448,0,0,0-.148.318v5.922l.9.354V10.948l5.142-5.155a.811.811,0,0,0,.238-.583V4.448A.448.448,0,0,0,15.9,4Z" fill="#8e8e98" stroke="#8e8e98" stroke-width="1"/>
  </g>
</svg>
