<svg xmlns="http://www.w3.org/2000/svg" width="14" height="14" viewBox="0 0 14 14">
  <g id="Group_27745" data-name="Group 27745" transform="translate(-956 -1621)">
    <g id="dot-circle-line_1_" data-name="dot-circle-line (1)" transform="translate(956 1621)">
      <path id="Path_36068" data-name="Path 36068" d="M9,16a7,7,0,1,1,7-7A7,7,0,0,1,9,16Zm.994-9.343c-3.383,0,3.921,2.653,3.921,6.035S5.617,15.125,9,15.125,5.712,10.349,5.712,6.966,13.377,6.657,9.994,6.657Z" transform="translate(-2 -2)" fill="#00d95e"/>
    </g>
    <g id="check-line_4_" data-name="check-line (4)" transform="translate(959 1625)">
      <path id="Path_36085" data-name="Path 36085" d="M6.151,13.05,3.119,10.021a.291.291,0,0,1,.41-.41l2.616,2.616,5.113-5.107a.291.291,0,0,1,.41.41Z" transform="translate(-3.05 -7.05)" fill="#fff" stroke="#fff" stroke-width="1"/>
    </g>
  </g>
</svg>
