<svg xmlns="http://www.w3.org/2000/svg" width="50" height="50" viewBox="0 0 50 50">
  <g id="Group_28119" data-name="Group 28119" transform="translate(-1240 -747)">
    <g id="Rectangle_2556" data-name="Rectangle 2556" transform="translate(1240 747)" fill="#fff" stroke="#626cb2" stroke-width="1">
      <rect width="50" height="50" rx="12" stroke="none"/>
      <rect x="0.5" y="0.5" width="49" height="49" rx="11.5" fill="none"/>
    </g>
    <g id="noun_coin_2900836" transform="translate(1246 757)">
      <g id="Group_28118" data-name="Group 28118" transform="translate(7 2)">
        <g id="Group_28117" data-name="Group 28117" transform="translate(0 0)">
          <path id="Path_36736" data-name="Path 36736" d="M7,45.709a1.849,1.849,0,0,0,.011.206c0,.024.008.048.012.072.007.044.012.088.021.131s.016.058.024.087.019.076.031.113.022.057.032.085.027.076.043.113.027.054.04.081.035.076.056.113.033.054.049.081.043.074.067.11.04.056.06.084.048.07.075.1.047.056.07.084.054.067.084.1.05.053.075.079.062.068.1.1.054.051.081.076.07.067.107.1.059.049.088.073.077.065.118.1.061.046.092.069.085.065.13.1.066.045.1.067.091.062.138.093.07.043.1.064.1.061.148.091l.107.06c.053.03.106.06.16.089l.112.057c.056.029.111.057.169.085l.118.055c.059.027.116.055.177.081l.122.051c.062.026.123.052.186.078l.126.049.193.074.134.047c.065.023.13.046.2.068l.141.044c.067.021.133.043.2.063l.146.041.207.058.151.038.211.053.159.036.213.047.165.032c.072.014.143.029.215.042l.172.029.217.036.177.025.219.031.184.022.219.025.192.018.217.019.2.013.216.014.21.008.21.008.22,0,.176,0c1.588-1.369,4.385-2.277,7.656-2.334h0l.054-.053q.048-.05.094-.1t.1-.119c.027-.033.054-.066.08-.1s.061-.082.089-.123.046-.066.067-.1.051-.084.074-.127.037-.065.054-.1.041-.088.06-.131.028-.064.04-.1.031-.093.045-.139c.009-.03.02-.06.027-.09.013-.052.021-.1.03-.155,0-.025.01-.051.014-.076a1.9,1.9,0,0,0,.015-.233v-.784c-.011.012-.024.023-.034.035-.072.078-.149.155-.228.231l-.077.072c-.095.087-.192.172-.3.255l-.006.005c-.107.085-.22.167-.336.248l-.092.063q-.15.1-.309.2l-.065.04q-.19.113-.394.219l-.095.048q-.169.086-.346.167l-.1.047c-.146.065-.3.128-.449.189l-.073.027q-.2.077-.409.148l-.126.043q-.49.162-1.021.292l-.14.033q-.225.053-.457.1l-.095.02q-.274.053-.556.1l-.137.02q-.23.034-.466.062l-.143.017c-.194.022-.391.041-.589.056l-.105.007q-.254.018-.513.029l-.166.007c-.206.007-.413.012-.623.012s-.417,0-.623-.012l-.166-.007q-.258-.011-.513-.029l-.105-.007c-.2-.015-.4-.034-.589-.056l-.143-.017q-.235-.028-.466-.062l-.137-.02q-.282-.044-.556-.1l-.095-.02q-.232-.047-.457-.1l-.14-.033q-.53-.13-1.021-.292l-.126-.043q-.208-.072-.409-.148l-.073-.027c-.154-.06-.3-.123-.449-.189l-.1-.047q-.177-.081-.346-.167l-.095-.048c-.135-.071-.267-.144-.394-.219l-.065-.04q-.159-.1-.309-.2l-.092-.063c-.116-.081-.229-.163-.336-.248l-.006-.005c-.1-.083-.2-.168-.3-.255l-.077-.072q-.12-.114-.228-.231L7,44.925Z" transform="translate(-7 -35.578)" fill="#4d66f0"/>
          <path id="Path_36737" data-name="Path 36737" d="M7,31.726c0,2.208,3.869,4.074,8.448,4.074S23.9,33.934,23.9,31.726v-.842l-.03.03q-.112.121-.235.238l-.073.068a6.169,6.169,0,0,1-.643.512l-.087.06c-.1.069-.208.137-.317.2l-.059.036q-.192.114-.4.221l-.09.046q-.172.088-.353.171l-.1.045c-.147.066-.3.129-.452.19L21,32.729q-.2.078-.414.15l-.123.042q-.492.163-1.024.293l-.137.032q-.228.053-.461.1l-.091.019q-.274.053-.558.1l-.135.02q-.231.034-.467.063l-.142.017q-.291.032-.589.056l-.105.007q-.254.018-.513.029l-.166.007c-.206.007-.413.012-.623.012s-.417,0-.623-.012l-.167-.007q-.257-.011-.511-.029l-.108-.007c-.2-.015-.394-.034-.588-.056l-.145-.017q-.234-.028-.463-.062l-.139-.021q-.281-.044-.554-.1l-.1-.021q-.228-.046-.451-.1l-.144-.034c-.175-.043-.349-.088-.518-.136l-.009,0c-.166-.048-.329-.1-.489-.152l-.133-.045q-.2-.07-.4-.144L9.827,32.7c-.152-.06-.3-.122-.444-.187l-.109-.05q-.172-.079-.337-.163l-.1-.052q-.2-.105-.39-.217l-.072-.044q-.155-.094-.3-.193l-.1-.066c-.115-.08-.227-.162-.333-.246l-.012-.01c-.1-.082-.2-.165-.291-.25l-.079-.074q-.119-.113-.227-.229L7,30.884Z" transform="translate(-7 -24.595)" fill="#4d66f0"/>
          <path id="Path_36738" data-name="Path 36738" d="M52.385,60.776l-.072,0c-.157,0-.312-.007-.465-.007l-.124,0h0c-.186,0-.371.006-.555.013h-.031c-.352.015-.7.041-1.041.077l-.2.022-.249.032c-.093.013-.187.025-.278.039l-.031.005a11.321,11.321,0,0,0-4.175,1.424l-.1.066-.142.1a5.325,5.325,0,0,0-.554.438,3.369,3.369,0,0,0-.713.888c-.012.023-.023.047-.034.07-.023.047-.045.1-.065.143-.012.03-.024.06-.034.09s-.029.086-.042.13-.018.062-.025.093c-.011.047-.02.094-.027.142,0,.027-.01.053-.013.08a1.925,1.925,0,0,0-.014.224,1.858,1.858,0,0,0,.021.267c0,.017.005.033.008.049a2.065,2.065,0,0,0,.062.266v0c.609,1.943,4.188,3.489,8.356,3.489a16.535,16.535,0,0,0,1.981-.119c.168-.02.335-.042.5-.067a13.9,13.9,0,0,0,2.092-.484l.114-.035c.057-.019.111-.039.167-.058l.165-.057.114-.043c.069-.026.139-.052.207-.079l.019-.008c.2-.082.4-.167.585-.257l.028-.014a7.625,7.625,0,0,0,.775-.432l.028-.019a3.237,3.237,0,0,0,1.665-2.195c0-.026,0-.052,0-.079,0-.042.007-.085.007-.127,0-2.059-3.363-3.819-7.529-4.048Q52.575,60.782,52.385,60.776Z" transform="translate(-35.474 -47.97)" fill="#4d66f0"/>
          <path id="Path_36739" data-name="Path 36739" d="M7,59.428c0,.063,0,.125.009.188,0,.009,0,.018,0,.027.006.054.014.108.024.161,0,0,0,.008,0,.012.37,1.787,3.257,3.3,6.948,3.62v-.212h0c0-.081,0-.161.011-.242,0-.038.009-.076.014-.114s.01-.079.017-.119.02-.1.031-.152c.005-.024.01-.048.017-.072.015-.061.033-.121.052-.181l.01-.032a3.393,3.393,0,0,1,.422-.844l-.035,0q-.283-.014-.56-.036l-.12-.011c-.147-.013-.293-.027-.437-.044l-.174-.021q-.2-.025-.4-.055l-.146-.022q-.264-.042-.521-.091l-.074-.015q-.22-.044-.435-.093l-.152-.036q-.183-.044-.362-.092l-.136-.037c-.16-.045-.317-.091-.471-.141l-.019-.007c-.147-.047-.29-.1-.431-.149l-.127-.048q-.163-.062-.32-.127l-.122-.051c-.134-.057-.266-.117-.394-.178l-.013-.006c-.133-.064-.261-.131-.386-.2l-.1-.056q-.138-.077-.271-.158l-.1-.064c-.1-.064-.2-.128-.292-.195l-.042-.029c-.107-.076-.209-.155-.308-.235l-.075-.063q-.109-.091-.211-.186l-.081-.076q-.106-.1-.2-.207L7,58.7Z" transform="translate(-7 -46.356)" fill="#4d66f0"/>
          <path id="Path_36740" data-name="Path 36740" d="M7.011,6.28A3.238,3.238,0,0,0,8.676,8.475l.028.019a7.692,7.692,0,0,0,.775.432l.028.014c.187.09.382.176.585.257l.019.008c.068.027.137.053.207.079l.114.043.165.057c.056.019.11.039.167.058l.114.035a13.9,13.9,0,0,0,2.092.484c.164.025.331.047.5.068a16.535,16.535,0,0,0,1.981.119c4.538,0,8.377-1.833,8.445-4.015,0-.02,0-.039,0-.059C23.9,3.865,20.028,2,15.448,2S7,3.865,7,6.074c0,.043,0,.085.007.127C7.009,6.227,7.008,6.254,7.011,6.28Z" transform="translate(-7 -2)" fill="#4d66f0"/>
          <path id="Path_36741" data-name="Path 36741" d="M60.034,103.959l-.075.07c-.1.088-.2.175-.3.26h0c-.107.086-.221.168-.338.25l-.09.061q-.152.1-.313.2l-.061.038c-.128.076-.26.149-.4.22l-.092.047q-.171.087-.35.17l-.1.046q-.22.1-.451.189l-.069.026q-.2.078-.413.15l-.124.042q-.491.163-1.023.293l-.138.033q-.227.053-.459.1l-.093.019q-.274.053-.557.1l-.135.02q-.231.034-.467.063l-.142.017q-.291.032-.589.056l-.105.007q-.254.018-.513.029l-.166.007c-.206.007-.413.012-.623.012s-.417,0-.623-.012l-.166-.007q-.258-.011-.513-.029l-.105-.007q-.3-.023-.589-.056l-.142-.017q-.236-.028-.467-.063l-.135-.02q-.283-.044-.557-.1l-.093-.019q-.233-.047-.459-.1l-.138-.033q-.531-.13-1.023-.293l-.124-.042q-.21-.072-.413-.15l-.069-.026c-.154-.061-.3-.124-.451-.189l-.1-.046q-.179-.082-.35-.17l-.092-.047c-.136-.071-.268-.145-.4-.22l-.061-.038q-.162-.1-.313-.2l-.09-.061c-.117-.081-.231-.164-.338-.25h0c-.106-.084-.205-.171-.3-.26l-.075-.07q-.121-.115-.231-.235l-.032-.033v.784a1.852,1.852,0,0,0,.024.285l.006.035a2.117,2.117,0,0,0,.073.292s0,.009,0,.013c.646,1.924,4.2,3.448,8.343,3.448,4.58,0,8.448-1.865,8.448-4.074v-.784l-.032.033Q60.156,103.844,60.034,103.959Z" transform="translate(-35.476 -81.549)" fill="#4d66f0"/>
          <path id="Path_36742" data-name="Path 36742" d="M60.033,89.916l-.079.074c-.093.085-.189.169-.291.25l-.012.01c-.106.084-.218.166-.333.246l-.1.066q-.146.1-.3.193l-.072.044q-.188.112-.39.217l-.1.052q-.165.084-.337.163l-.109.05q-.217.1-.444.187l-.082.031q-.195.075-.4.144l-.133.045c-.16.053-.322.1-.489.152l-.009,0c-.169.048-.343.093-.518.136l-.144.034q-.222.052-.451.1l-.1.021q-.273.053-.554.1l-.139.021q-.229.034-.463.062l-.145.017c-.194.022-.39.04-.588.056l-.108.007q-.253.018-.511.029l-.167.007c-.206.007-.413.012-.623.012s-.417,0-.623-.012l-.166-.007q-.258-.011-.513-.029l-.105-.007q-.3-.023-.589-.056l-.142-.017q-.236-.028-.467-.063l-.135-.02q-.283-.044-.558-.1l-.091-.019q-.234-.047-.461-.1l-.137-.032q-.532-.13-1.024-.293l-.123-.042q-.211-.073-.414-.15l-.068-.025c-.155-.061-.3-.124-.452-.19l-.1-.045q-.181-.083-.353-.171l-.09-.046c-.137-.072-.269-.145-.4-.221l-.059-.036q-.163-.1-.317-.2l-.087-.06a6.2,6.2,0,0,1-.643-.512l-.073-.068c-.082-.078-.161-.157-.235-.238l-.03-.03v.842a1.884,1.884,0,0,0,.02.263c0,.018.006.035.009.053a2.005,2.005,0,0,0,.057.247c.589,1.953,4.178,3.511,8.362,3.511,4.58,0,8.448-1.865,8.448-4.074v-.842l-.035.036C60.188,89.764,60.112,89.841,60.033,89.916Z" transform="translate(-35.473 -70.566)" fill="#4d66f0"/>
          <path id="Path_36743" data-name="Path 36743" d="M7.009,73.158c0,.01,0,.019,0,.029.006.053.014.107.024.16l0,.015c.363,1.739,3.108,3.22,6.659,3.592l.038,0,.251.023V74.868q-.291-.024-.575-.057h0C10.552,74.479,8.224,73.47,7,72.118v.852C7,73.033,7,73.1,7.009,73.158Z" transform="translate(-7 -56.85)" fill="#4d66f0"/>
          <path id="Path_36744" data-name="Path 36744" d="M13.989,88.86l-.043,0q-.251-.021-.5-.049L13.38,88.8C10.536,88.465,8.22,87.457,7,86.11v.852c0,1.965,3.029,3.672,7,4.012-.007-.083-.012-.167-.012-.252Z" transform="translate(-7 -67.796)" fill="#4d66f0"/>
        </g>
      </g>
    </g>
  </g>
</svg>
