<svg xmlns="http://www.w3.org/2000/svg" width="21.548" height="20" viewBox="0 0 21.548 20">
  <g id="users-solid_1_" data-name="users-solid (1)" transform="translate(-4.46 -6.005)">
    <path id="Path_36034" data-name="Path 36034" d="M10.457,16.139H9.765a6.9,6.9,0,0,0-5.114,2l-.191.223v6.586H7.705V21.213l.437-.493.2-.231a8.749,8.749,0,0,1,3.746-2.275,5.242,5.242,0,0,1-1.631-2.076Z" transform="translate(0 -2.073)" fill="#fff"/>
    <path id="Path_36035" data-name="Path 36035" d="M29.392,18.113a6.9,6.9,0,0,0-5.114-2,8.327,8.327,0,0,0-.867.048,5.242,5.242,0,0,1-1.591,1.949A8.678,8.678,0,0,1,25.8,20.491l.2.223.43.493v3.746h3.134V18.336Z" transform="translate(-3.552 -2.066)" fill="#fff"/>
    <path id="Path_36036" data-name="Path 36036" d="M10.263,12.524h.247a5.13,5.13,0,0,1,2.474-5,3.253,3.253,0,1,0-2.72,5.035Z" transform="translate(-0.521 -0.009)" fill="#fff"/>
    <path id="Path_36037" data-name="Path 36037" d="M23.824,11.919a5.2,5.2,0,0,1,0,.549,3.253,3.253,0,0,0,.461.04h.151A3.253,3.253,0,1,0,21.47,7.592a5.194,5.194,0,0,1,2.354,4.327Z" transform="translate(-3.48 0)" fill="#fff"/>
    <circle id="Ellipse_157" data-name="Ellipse 157" cx="3.555" cy="3.555" r="3.555" transform="translate(11.571 8.371)" fill="#fff"/>
    <path id="Path_36038" data-name="Path 36038" d="M16.6,20.3a7.707,7.707,0,0,0-5.655,2.148l-.2.223V27.7a1.249,1.249,0,0,0,1.273,1.225h9.139A1.249,1.249,0,0,0,22.434,27.7V22.684l-.191-.239A7.62,7.62,0,0,0,16.6,20.3Z" transform="translate(-1.287 -2.923)" fill="#fff"/>
  </g>
</svg>
