<svg xmlns="http://www.w3.org/2000/svg" width="15.994" height="16" viewBox="0 0 15.994 16">
  <g id="noun_message_160429" transform="translate(-13.449 -13.436)">
    <path id="Path_36742" data-name="Path 36742" d="M27.1,15.776A8,8,0,0,0,15.3,26.547,3.1,3.1,0,0,1,13.988,28a.727.727,0,0,0,.209,1.37,4.1,4.1,0,0,0,.631.047,4.784,4.784,0,0,0,2.825-.943,8,8,0,0,0,9.451-12.7Zm-9.6,6.877a1.217,1.217,0,1,1,1.217-1.217A1.217,1.217,0,0,1,17.5,22.653Zm3.945,0a1.217,1.217,0,1,1,1.217-1.217A1.217,1.217,0,0,1,21.446,22.653Zm3.945,0a1.217,1.217,0,1,1,1.217-1.217A1.217,1.217,0,0,1,25.392,22.653Z" transform="translate(0 0)" fill="#8e8e98"/>
  </g>
</svg>
