<svg xmlns="http://www.w3.org/2000/svg" width="12.254" height="12" viewBox="0 0 12.254 12">
  <path id="Path_36741" data-name="Path 36741" d="M6.158,8.172A7.33,7.33,0,0,0,8.82,9.9l1.357-1.079a.241.241,0,0,1,.273,0l2.519,1.623a.72.72,0,0,1,.119,1.144l-1.18,1.166a1.439,1.439,0,0,1-1.306.385A12.626,12.626,0,0,1,4.431,9.9,12.158,12.158,0,0,1,1.1,3.84a1.36,1.36,0,0,1,.4-1.277l1.223-1.18A.72.72,0,0,1,3.837,1.5L5.514,3.984a.227.227,0,0,1,0,.27l-1.1,1.328A7.106,7.106,0,0,0,6.158,8.172Z" transform="translate(-1.064 -1.165)" fill="#fff"/>
</svg>
