<svg xmlns="http://www.w3.org/2000/svg" width="10.212" height="10" viewBox="0 0 10.212 10">
  <g id="phone-handset-solid" transform="translate(-1.064 -1.165)">
    <path id="Path_36741" data-name="Path 36741" d="M5.309,7A6.108,6.108,0,0,0,7.528,8.441l1.13-.9a.2.2,0,0,1,.228,0l2.1,1.352a.6.6,0,0,1,.1.954l-.984.972a1.2,1.2,0,0,1-1.088.321,10.522,10.522,0,0,1-5.142-2.7A10.132,10.132,0,0,1,1.09,3.394,1.133,1.133,0,0,1,1.42,2.33l1.019-.984a.6.6,0,0,1,.936.1l1.4,2.072a.189.189,0,0,1,0,.225L3.852,4.846A5.922,5.922,0,0,0,5.309,7Z" transform="translate(0 0)" fill="#fff"/>
  </g>
</svg>
