<svg xmlns="http://www.w3.org/2000/svg" width="50" height="50" viewBox="0 0 50 50">
  <g id="Group_28122" data-name="Group 28122" transform="translate(-1237 -259)">
    <g id="Rectangle_2556" data-name="Rectangle 2556" transform="translate(1237 259)" fill="#fff" stroke="#626cb2" stroke-width="1">
      <rect width="50" height="50" rx="12" stroke="none"/>
      <rect x="0.5" y="0.5" width="49" height="49" rx="11.5" fill="none"/>
    </g>
    <path id="Path_36729" data-name="Path 36729" d="M182.1,175.608c-1.25-1.988-5.057-3-7.407-3.453l-.2-.993a3.862,3.862,0,0,0,2.592,1.008,6.583,6.583,0,0,0,4.062-1.848l.6-.6-.834-.131c-.462-.073-1.692-.268-1.406-5.628a6.442,6.442,0,0,0-4.105-6.678,6.119,6.119,0,0,0-4.258-1.605,8.187,8.187,0,0,0-6.055,2.8A6.769,6.769,0,0,0,163.52,164c.336,2.157.084,3.78-.747,4.825a2.973,2.973,0,0,1-1.959,1.121l-1.33.081,1.128.708a7.2,7.2,0,0,0,3.864,1.178,7.018,7.018,0,0,0,3.67-1.067l-.262,1.306c-2.35.451-6.157,1.465-7.406,3.453a12.877,12.877,0,0,0-1.867,5.627l-.023.45h5.277v-5.618h.856v5.618h13.339v-5.618h.856v5.618h5.076l-.023-.45A12.877,12.877,0,0,0,182.1,175.608Zm-13.7-6.016a11.022,11.022,0,0,1-2.515-5.644c.071,0,.149,0,.232,0,1.48,0,4.434-.409,8.057-3.047a6.879,6.879,0,0,0,2.524,4.388,12.472,12.472,0,0,1-2.777,4.48l0,0c-.133.128-.272.25-.415.368-.039.033-.08.063-.119.094q-.164.13-.336.249c-.037.025-.073.053-.11.077-.141.093-.286.18-.435.261l-.124.066c-.155.079-.313.153-.476.219l-.084.031a5.154,5.154,0,0,1-.546.176l-.065-.013-.046-.01c-.035-.008-.079-.02-.125-.032l-.069-.019c-.048-.014-.1-.032-.158-.051l-.1-.033c-.058-.021-.12-.046-.184-.072l-.12-.051c-.065-.029-.134-.061-.2-.1-.047-.023-.094-.047-.142-.073q-.108-.056-.221-.122c-.052-.03-.1-.063-.157-.1-.077-.048-.154-.1-.234-.155-.055-.038-.11-.08-.166-.122-.081-.061-.163-.124-.247-.193-.119-.1-.241-.2-.362-.32l-.277-.266Zm3.743,4.713a7.486,7.486,0,0,1-.852.051,6.59,6.59,0,0,1-2.854-.6l.511-2.554a5.425,5.425,0,0,0,2.274.97h.007l.012,0,.052.006h0l.025,0h0l.055-.013a5.444,5.444,0,0,0,2.257-.983l.514,2.569A6.273,6.273,0,0,1,172.142,174.3Z" transform="translate(1090.411 115.315)" fill="#4d66f0"/>
  </g>
</svg>
